/* XPM */
static char *out[] = {
/* columns rows colors chars-per-pixel */
"64 64 107 2 ",
"   c #4E7418",
".  c #477C2D",
"X  c #487F2E",
"o  c #477B30",
"O  c #497E31",
"+  c #56821D",
"@  c #59851B",
"#  c #5B8D1D",
"$  c #54921F",
"%  c #63861C",
"&  c #628C1C",
"*  c #698819",
"=  c #738F1C",
"-  c #64931E",
";  c #6B931D",
":  c #6D9C1F",
">  c #779419",
",  c #739C1F",
"<  c #7A9F1E",
"1  c #468526",
"2  c #498625",
"3  c #478B25",
"4  c #4B8D25",
"5  c #46832A",
"6  c #4A852D",
"7  c #478928",
"8  c #4C8B2B",
"9  c #518C2E",
"0  c #479124",
"q  c #4D9425",
"w  c #4E9925",
"e  c #4E9329",
"r  c #4F9928",
"t  c #519525",
"y  c #5A9222",
"u  c #539C25",
"i  c #599E25",
"p  c #52932B",
"a  c #539B29",
"s  c #599C2B",
"d  c #4D8532",
"f  c #4E8A32",
"g  c #508733",
"h  c #528C34",
"j  c #508638",
"k  c #538C3A",
"l  c #598D3A",
"z  c #4F9030",
"x  c #549133",
"c  c #5B9335",
"v  c #569832",
"b  c #5D9934",
"n  c #56903B",
"m  c #5A933A",
"M  c #5D9838",
"N  c #6B9C21",
"B  c #619636",
"V  c #629A35",
"C  c #699B37",
"Z  c #639639",
"A  c #649939",
"S  c #6B9B39",
"D  c #789F35",
"F  c #739D3C",
"G  c #55A225",
"H  c #59A425",
"J  c #56A824",
"K  c #5CAA25",
"L  c #56A129",
"P  c #5AA428",
"I  c #5BAA28",
"U  c #5FB126",
"Y  c #65A323",
"T  c #61AD25",
"R  c #60AC29",
"E  c #75A322",
"W  c #64B526",
"Q  c #75A239",
"!  c #858B15",
"~  c #85971B",
"^  c #9B9917",
"/  c #919E1A",
"(  c #8DA51E",
")  c #93A21D",
"_  c #A2A319",
"`  c #A7A819",
"'  c #B4A916",
"]  c #B4AE1B",
"[  c #8DB122",
"{  c #96B221",
"}  c #9BB320",
"|  c #C7B317",
" . c #CAB317",
".. c #C4BB1C",
"X. c #CDBB1A",
"o. c #D4BE19",
"O. c #D8BF18",
"+. c #D6C31C",
"@. c #E5C618",
"#. c #E3C91B",
"$. c #E9CB1A",
"%. c #F6D31B",
"&. c #FBD51A",
"*. c #FFDA1D",
"=. c #D0C921",
"-. c #D9C920",
";. c #FDE022",
/* pixels */
"t t u a s u q t u t a P q t t t q i a q a q 2 q u q t u q t t q 4 t t t i u q i H q t P t t L q t P i q w w u G w w u u w w w q ",
"t t G u t G u t L t t H u u u u u t a u q i u q H i t w w t G u u t u G a L r t H u t P i a u L u L H G i G G u J q i K $ G G u ",
"u H u u H u t H w w H G u u u u q u r i H i u i $ t i w 7 p p e u H u a P r w P H i H G u P u t G H H G G G L J 0 w K K J K G w ",
"4 u t t i w 0 t w 4 a H 4 u u 4 r a 0 q L G 4 i w 3 q w 5 h j k 6 i q 4 u t e L P t u H e t a q u q i 0 i 0 q t 4 w G $ L G $ 0 ",
"u t i $ 4 H u 4 G w t i t 2 t i t q u u 4 H u 4 J G 4 G p c k k t t H u q L u q R u 4 H i q u w J u q . 1 8 I i J w i K i $ H H ",
"u H i u G G u G u t H p B c u t L G u w Y i u u H u L u 4 k Z h q H G L G i w H H i i H q u G t u H q f h f r L G u K G K J H u ",
"t i q t u u 0 q u q u b C B t t t u t t G u t a H q w G 8 h B c 5 t t q w t q i H t t H q q G t w G q c h h e w u t G i G I H w ",
"t 4 H u 2 u q 2 i u 4 i v h t t 0 4 i u q G u 4 G q 4 u t q e q 0 4 u q 7 G t 1 K H 0 w w 4 t i J G t 8 a p w L G i q I H u u w ",
"G w i u G $ q u u u G G i 8 t t w u u u G K P R L t G L t u u H u G t t u w u G G u L w u u u G I L K K I K L u L J G w J J L w ",
"q w q 0 u w 4 u q q t G r e u q 4 u q q L G t s w 0 u a t q a r q u q 0 w q q G t q u w q q w q w G t w L L L I w u G u w w G q ",
"q q u q 0 u t 4 G w 0 G q t u t q q u w t H t 4 G u q u w a H i t q u t q u q 8 i q q u q t w w q u u u u H P L G w w $ u u w $ ",
"w H $ u H G u G w w i H u u H H u u w L H u u R H u H L t G H i H H u u H w t P $ u H H i G u 4 u K H K K L P H u w L H u J G u ",
"t i $ w G q q i q q u H u i u w q u q t H i t P u u t p a s H s i i w a L u t P L u a r r w u L t G u t K u t G u q s H i u G q ",
"t u u t u i t t u q t H t t u q q q q q p H t t G w r h 5 9 a 9 h d 8 v 1 f p t f 4 e 7 7 u w q u L i u H u a t 4 8 t T u u i q ",
"w G H u t G u t L i G K $ t G u u u u i u H i t H u t h d f h k Z A k k l n k k k k k j f r u L J K K J G H t 6 h 6 u H H G G $ ",
"0 i $ i G i q u G u u G u i H t 0 u u 0 i u i H K p f h j k n n A Z n n m S m m n n k n k t J L q U $ H I H a h F f G u i K J w ",
"q u w t 0 w q 8 9 h 8 i 4 e u 0 4 t u q u u t e u 4 8 d 9 h f p e v t x n n m c c f x r w q L u U H L G w u a x x h q H q u w 0 ",
"q t G u 4 u t c Q A p u G q w u w t L t t H u 4 u 0 1 6 9 u 9 8 r a q 7 k n f 6 a e 7 q u w w f r u L I w G w r t u u L H L w u ",
"q w w q i u t h C c x q t t L w q a u t P t q G t t 8 8 t t 9 8 0 0 t q k k x e r e 8 q 0 r r f f e G q J w q w a u L L u u u q ",
"t i t 4 i u u x c m p w q t u q q i r q L u 0 t u t 9 9 h 7 t i w w t 4 f k h f 8 p a L w L i 4 k q w 0 L t w J a t L u q 0 u 0 ",
"q t i H 4 P q t 4 a i L i t u i u q u w 4 u u 2 H q 6 X h 8 w w q w u t e h d 6 e i L L J G u 3 d q G G 0 J $ q G u q J t q u $ ",
"t H u i R H a H r t L G i i H u t G w t K i u H H 4 h h h 5 7 6 J L a r d c k k 5 p a I L L w 3 d q G G K G G G q w J H $ J G w ",
"q u u t H t 0 a w 0 a H r t u q t G q q u i t i u 9 8 h f d 5 d z a w a p c m h O 6 h h u q q 3 d q G t J u q u q q w $ q u G 0 ",
"t t u i 4 H u 4 P q t K t t i H s t i u t H u 4 H t . f O h h b z 8 t L 8 h c O d x x x f t G 7 5 q G G $ K u t G w q H u u G $ ",
"w H $ G G G u G L i L K i u H t L G t u K H H u H 4 . 6 6 8 6 9 q L u w 4 k m k j f f q G K u 4 d t K G G H G G w w G H K G K u ",
"q i t u L G q a G q i H w p a p 4 8 t w u t u G P p 6 t u 8 d X e e a L p n c l k h X 9 r a H q f H H u G G 0 L $ 0 u G u i H u ",
"q t i u e u t e G u e H q h j 5 6 f t e 0 G J L G u e u H p g h f 6 t 8 d k f f h n h 6 d p e 6 d 8 L w 3 w 0 4 J $ 0 H t a u u ",
"u u H L H G a u i u w L t 6 j d h d 4 7 5 u u t u t q G s t h h d d 6 g h h 8 e 8 f h f O 5 d h h 9 8 0 w $ q q G w u L H u H s ",
"u G t r u w 4 w 0 q u q 0 6 j h k d o 5 j d 4 i u w t 4 t q 8 6 x h f z h n 1 5 8 5 d h h d e p 9 h f 3 u w 0 P w t t w q w u a ",
"a t u t q u t t w q q u 8 h h h h d 8 6 f q 4 t t t t 4 t t 2 g n x n c c c f d 8 6 6 r s e r q d 9 6 6 q u t t G q q G t q t q ",
"G u i u i H t u w w u H t h h h f 6 4 8 7 q r t q e 7 7 t t u 8 e P L f c n d 6 t p 6 0 a a e q 6 t u u t H t u w w t H u u G u ",
"q H u u i u t G w w 8 8 8 6 m m n h t w 3 0 q 4 t t 4 u t H H 6 5 L t r j n f e p p p u 7 w t r i q G u G u t G r t H u t i u u ",
"4 u i t i w q t w 7 9 c m c Z c n 8 t 0 8 8 t u 7 q t 4 e 4 8 h u i L t x k f d 7 t e 0 a w e 1 0 q u q i w e a f d j d 8 p u 4 ",
"t i i u t H u 4 u 7 h b S A c h c 6 a f 8 f p h t G G 0 f d h k t H K L e k j f p t q r w L r q t t u u t H u t 9 m Z n f t i u ",
"q H u t u u q L u e h m c S c k d f x h 8 k k d i L I r 5 e f f t J J a 7 k h f o 6 8 r L L w q r w u u G H a L f h m n f t H u ",
"q i q t w u 4 w H 7 8 c h c Z h . d c c c m k e L u r e f e e e u u L w o f j h d f f f w r 0 3 q t t 4 r u q a f k k l h q u 4 ",
"0 q G $ 7 i w 2 K u 4 i H c h m k n c c m n z 0 G w w L d q z r d e a 0 1 h j O f c c x f w u 4 4 t L q 3 L w 1 4 e x 9 r t w t ",
"t u u u K u u u L t u L u 8 8 t x f 8 8 h h 7 q w w G L e w f e 7 8 w w 5 j k j j f 6 a u L u q q u G q G u w G a t u G u u u w ",
"q u w 0 G t q u w q w w 0 4 t w r t 3 4 t t 1 w L w J t 0 z f j 8 7 r L 7 d j k h j d 8 e t u i a a r r L u 0 u w q u G 0 q u q ",
"0 4 i u 7 G t 3 G q 3 u u q w i u 0 w q 7 G t 3 G L r 4 d 6 6 j j 5 L r 7 o j k k k c h d f 8 6 d 6 r L 4 L u 2 u w 7 G G u w u ",
"G H G J T H J K w q H G w G H i u H w w K G u T H a f h 5 j j h f d 4 d g k h h k j h h d 6 h 9 h f 7 q H G u H w w H L H H K i ",
"w u H u H i w G w q t G $ u H q a u q r u u t i u 0 4 f j h j j j f d h h k h d g j h h h d h h f k h 1 H q q u 0 q u I H G G w ",
"J $ u 8 7 q u w G 0 q H u t i w q t w u 4 H u 4 i q e 5 d k k k n h c x c k h 8 p t 4 5 8 8 q q 8 f k 7 4 i q q L w q W L $ w u ",
"G H u c h 8 w u G q H T $ G G u u u u u T J i i G r 8 5 5 k k h h c B B S c 9 P K t a q 3 r q 3 3 8 7 0 u $ w G J L K W U w H G ",
"q i t k h c q L G w u H t i K u w H u 0 H $ G H H 8 f h k h h u h k A F c m e i K i i G w 0 w 0 0 q w q G G w G H q G G G H K G ",
"u u t e c p L w L q u H w q L t q q t q t i t q L e f d h 6 1 4 d j l S c n 8 u K u w J L w u w u L u t 0 $ q 3 u q u I u u w q ",
"G w J G H G L G H u w L i u L u u u i w q G i q G e f f f 5 . 5 h g h Z m k f a K u G G u w G u w G G u q w q q G u u K J w $ J ",
"w w w w G L L G u t G u w w L w w t w q u u w L u 4 8 8 7 1 8 6 2 p t t p k 7 t K u u K G q G G w u G q G w q u q t u L G w L w ",
"w w $ 3 t u q u u q i L q e q q w w q 0 q u 0 t G q t u 4 q p 2 4 u u t L r G L K u w G w u u q u a t 0 a w q u u q t G q q u q ",
"q w $ w 0 i u q G t q t e 7 0 t $ q w w q $ i t G t q w w q t u u t H u q u q i G q q G 7 6 x x f f f a q H u q w q t H u u H u ",
"w G G $ H u u G w w u 7 d d 7 t w u w q K $ u H L t G w q i H i u H u t G w w 0 H q 0 L f c C B m c n 8 I G u H w q H K u H G u ",
"0 w G q i w 4 t q 3 r f O k 8 q 0 w 3 q w u q H w q t w 4 q u t t u 0 3 u 0 w w G w w w e m m S C c n h u t e u w 0 t K t u u 4 ",
"u t K $ 0 G u 4 G w q 9 c f t G u q w $ 4 J u 4 K i u H u q H u t q i $ 4 $ q w w q u L 8 m m b C c n p u i G 4 H w t K i t i H ",
"w H G $ H G w u L t i G i G H u w G u t K G i H I u G L w u H H i G u w L u w 3 w q q G 6 m B C Q Q m e I H w G G u I K H i H u ",
"4 $ $ u G u q a G 0 u H t u H t 4 u q q H $ u u t 8 t L 4 q H u u L w 0 L w u u L a u K p M b c B V b 9 H H t [ } } } } { E Y q ",
"q q G G 4 L u 7 H i 4 H G q q w 0 4 i u 2 K $ 1 8 1 e G i q G K G L $ 4 r H u L L G H K 8 m c c n m c 8 G u : X.X.@.&.#.o.` & u ",
"J u G L G L L H G u u u $ w u w u H i w i G u H G 4 w J G q H H u u I t u H 0 r w 0 w w t x x p 6 x x i L L t * % = ..  ] +.- q ",
"u w w p u a L I u q u w q q w w q u w q u w 4 u G w w w w w L t f p p 6 h p e 4 J $ q u w w u i G a H q L t y ( =.< + ( ;.-.N q ",
"J q q h x x L L G q 0 u q q u u q q w q 0 u u 4 H u $ G w w u 4 c b c c B c 9 u J H G J u u J w u G G u 0 u > #.%.) 2 ..*.+.: q ",
"J $ t k k f u K w q i G u G G $ u G w w H i u H G t $ w w q G 4 m b B D V m 6 H G $ J J u G G 0 q G $ u H G ( %.@.% * > &.O.: u ",
"w G G x j h t H q t u H $ i u w q u q t H G i $ u w w w q $ U G l M S b b n e i U J $ w w w w w w G J u G u < $.! / $., _ o.; q ",
"u w t 4 t t L t u 4 t H q t u w q w q q q G t t u w w G 0 w J G x L a t a a a w U w J J w $ J q w G H q $ w 4 ~ ' |  ._ * ^ - 0 ",
"G H H G w J J G G w u J $ w i u $ w w w i H i q H u u J u u K K w G G u q L q H U $ $ J G G G w q J H $ w H $ q # @ # - & @ $ u ",
"q G $ J H G G w G q u u u i H q q u w 4 H u u i G q w J q w J u H I J q u G 0 u J G G U w 0 J w 0 G J $ u u w w G q u $ w t i q "
};
