/* XPM */
static char *out[] = {
/* columns rows colors chars-per-pixel */
"64 64 33 1 ",
"  c #5A5A5A",
". c #8E8E8E",
"X c gray59",
"o c #979797",
"O c #989898",
"+ c gray60",
"@ c #9A9A9A",
"# c #9B9B9B",
"$ c gray61",
"% c #9D9D9D",
"& c gray62",
"* c #9F9F9F",
"= c #A0A0A0",
"- c gray63",
"; c #A2A2A2",
": c gray64",
"> c #A4A4A4",
", c #A5A5A5",
"< c gray65",
"1 c #A7A7A7",
"2 c gray66",
"3 c #A9A9A9",
"4 c #AAAAAA",
"5 c gray67",
"6 c #ACACAC",
"7 c gray68",
"8 c #AEAEAE",
"9 c #AFAFAF",
"0 c gray69",
"q c #B1B1B1",
"w c #B2B2B2",
"e c gray70",
"r c #B4B4B4",
/* pixels */
".6.......@.........+..6.9.................5....1.......>. ......",
"..................@......................@........+..... .o.....",
"..00+00000000000.w0000000q000000..0000000000w000..000070 000<000",
"..00000000000000..00000000000000..000000000000e0.6000+000 000000",
"..000>$&00&00000..0000000=000000..00000000000007..000000*0000000",
"..00000 00000000..0001000000000,..000000000000q0..000000+0000000",
"..0  0 000000000..00000000000000..0000000000000#..00000000w00003",
";.300  0000*0300..00200000000000..000o0300000000..05&00000000000",
"..0000*600002000..00000000000000..00000000000>00..000*0000000X00",
"..00000000000400..00700000000000..-0000000000000..00000000000000",
"..00000000000000..00000000097000..00000<00000000..00000000000000",
"6.%0000000000000..00000000000000..00000000000#00..00009000000000",
".<0000000000;000..000000000#0000..000000000#0007..-0000000300000",
"..0000000000o000..0000000000o00,..r0000000000000..0000000000-w00",
"..00000000000000..00000000000000..00000000000000..00880000000000",
"7.00060000000000..0000%0000>0000..000@00000<0000..00000000000000",
".............o..........4......................4.  .............",
".....2..9........................................  ........&.#@.",
"..0%000000000000..00000000000000..00000000000000  00000000000000",
".r00000000000000..00000000000000..00000000000000..0000000w000000",
"..0#000000000000..000000000000+0..00000000000@00..00000000000000",
"..00000000000000..0060000000+23w..000:00000r-000..00000000000000",
"..00000000000000..000000w0000000..00000007000000..00000020000402",
"..0X000000:00000..00089400000000..0000000 000000..09000000000000",
"..0O000000000000..0*000000000000..e0000  0000000..00000000000000",
"..30000700000010..00000000000000..0000    60000o..00000000000000",
"..00000000000000..0000000000@000..0      0000:00q.00000000000000",
"..-00%0000000000..0000000000000O..000  00 060000..*0000000000000",
"..00000000000e00..00000000000000<>0000000 0000009.00000000000000",
"..00000000000000..00000000000000..0000000 000000..00000000000000",
"..00-00000000000..00000000000000..000000 0000000..00000000000090",
"..0000000 0&0000..00000000000000..  000;00000000..00000000000+00",
"........ ..........%.rw......1....  .......&e............6.....=",
".<......   ........................ ....................,.......",
"..800000000w0000..000000000900w0.>00000000020000.+00000090000000",
"..00000w0000 000..00000000000000..000000=0000000..00000000000000",
"..00000000000 00..>0000000000000..00000000000000..000030000000#0",
"..00000000000 00..00>00000000000..00w40<00000000..00000000000000",
"..00+000000= 0000.%000000O0000r0..00+0+000000000..00000+00000000",
".e0000000000 000.:00000000000@00..00000000000000..0,00000&000000",
"..0000000900000r..00080000500000..00000000020%0;..07000000000000",
"..00000007000000..00000000X%0000..00000003000000..0000000000e000",
"..00000000000000..00000000000000..00;000000000O0..00000080000000",
"..0;800000000000..w0000000050000..00%00000000050..0000000000@000",
"..0;000000000000..00000000000000&.000000009000@0..00000030000050",
"..00000000000000..00000000000000..000000000000;0..00000000060000",
"..00000000000000..00000000000000..00000000000000..00000000000000",
"..00000000200000..0000000000e0:0..%0000000000000..000%0000000000",
".....0....:............................e................:.......",
"............................ ..............;........@...........",
"..00000030000000..00#000$   0000=.00000000000000..40000000000000",
"r.00$00000000000..0,000000 00000=.r0%000:0000000..00000000000000",
"..00000000000000..00000000020000..00000000100000..00000000000005",
"..000000000000rX..000000O0000000..00000000000000..0000000000000-",
"..0000000$000000..00&O0000000000..00000000000000..00000000000060",
"+.00000000000050..000+0000000000..000000q000000@..000000000000=$",
"..00000000000000..00002000000000..00000000007e00..00000000000000",
"..00000000000000..00000000O05000..00000000O00000..00000000000000",
"2.00*00000000000..0005e00000000e..000000000-000+..000000q0000000",
"..00O00000000000..00000000000000..0r000000000000..00w00000000000",
"..00000000000000..00=000000<0000..00000000000000..00000000000090",
"..000000000w0000..00000000000000.207000000000000..00000000000000",
".*00000000000000..00,00000000000..00000000000000..O0000000000000",
".>00000040000000..O0000000000000..00000030000000..00000000000000"
};
