/* XPM */
static char *out[] = {
/* columns rows colors chars-per-pixel */
"64 64 88 1 ",
"  c #1973CF",
". c #176DD1",
"X c #1C7CD5",
"o c #1F76DB",
"O c #1C7DDA",
"+ c #227BDD",
"@ c #1887D7",
"# c #1B85DB",
"$ c #158BDC",
"% c #1C8CDD",
"& c #1B93DE",
"* c #179ADE",
"= c #1A9ADF",
"- c #2483DD",
"; c #228BDE",
": c #2091DE",
"> c #15A3DE",
", c #10ABDE",
"< c #1F87E0",
"1 c #1E8CE1",
"2 c #1796E0",
"3 c #1D94E2",
"4 c #169CE1",
"5 c #1C9CE3",
"6 c #1B9FE8",
"7 c #2286E1",
"8 c #2886E2",
"9 c #228CE2",
"0 c #2294E3",
"q c #219BE4",
"w c #2496E9",
"e c #249CE9",
"r c #0FAAE1",
"t c #16A3E3",
"y c #1BA3E5",
"u c #15ACE5",
"i c #1AABE6",
"p c #1CA4E8",
"a c #17ADE8",
"s c #1BACE9",
"d c #0FB6E3",
"f c #0EBCE5",
"g c #0EBBE8",
"h c #15B4E5",
"j c #19B4E6",
"k c #13BBE6",
"l c #19BAE7",
"z c #16B4E9",
"x c #19B4EA",
"c c #14BCEA",
"v c #19BBEA",
"b c #21A3E7",
"n c #23A2E9",
"m c #20ACEA",
"M c #21BDED",
"N c #0EC4E6",
"B c #0ECBE6",
"V c #0EC5E9",
"C c #0ECCEB",
"Z c #12C3E7",
"A c #18C1E7",
"S c #12CAE7",
"D c #13C4EA",
"F c #19C2EB",
"G c #12CBEC",
"H c #19CCED",
"J c #0ED6E7",
"K c #0ED4EC",
"L c #0DDCEE",
"P c #11D3ED",
"I c #18D2EF",
"U c #11DAEE",
"Y c #0FCDF0",
"T c #17C6F0",
"R c #12CDF0",
"E c #19C8F0",
"W c #0ED5F0",
"Q c #0EDDF0",
"! c #13D3F0",
"~ c #11DBF0",
"^ c #07E4EE",
"/ c #0CE2EE",
"( c #0BE8EF",
") c #11E3EF",
"_ c #07E3F0",
"` c #0CE3F1",
"' c #0CE9F1",
"] c #11E3F1",
/* pixels */
"KPCP!!PWGCPUPLULL`LLLLJCKPGDcclxxshzccFFADcccgffzzvxvzxzzclvzhu,",
"UPCGHGGVHPCCJKKLKKQLKKKKCWSZcvvvzzzzFFFDDZSAADcfllxvxxxxxvcxaaut",
"CKCCPRGGGPGPUUKKLLLLLKWKPCGDDkcvxzzhFFDGDCVVDDggkxxlhzzzhxahhtju",
"C!!!HDDSCDPU~UULLLKKJCJCCVCCNDckccgZHE!RSCHDDAcAchlhzhuzxlzzzajh",
"NCCGRHGDfVVCPPLLLKU~LKWKCCGPHGGGSDGDGGGGG!GGDDDFchcccxzhzzizaihh",
"NCVCGGDDDDSSPUUULLKWKCCJKKPPCCGGGGGDGCVVCG!GYRDDZAFvcccchzzxxlcc",
"NHHSDVDDSGGGCKULU~WWKCKKKKCPPP!PHDGGHCGCCCGPCDcgFDDTFcccvAcczccv",
"fZHHDDDDHERSCGPPPUKKPKKSKKKUP!E!!RRKGGVSGCCVDVDcgccTEFDcZccvccAD",
"ffkfcDNDGVSRKGKPKPPCCJBP~UULKPGPHGKRCNCVCNCVVDDDcZDDDDDADDcccgDV",
"hhdhccADGHRCGW!KGCGKCCPULUKKLKPCCGGBBBJWPU!GGVDDDDVGGGTDGDDG!RPP",
"hlhdhhkFDGPRGKCCD!!!!PKKULL~UKK!HGCKPUPUPPCGSDDDVDDGGGDGGHRRCCSR",
",auhhhccDDVDRGGDGGGCCPKWUL~~LKKWPUPPUKUULUUPWCDDDDDCDDGGGGHGGSCH",
"uuhzahxzcccFEHDZVVGGCCKKJWKLLWKKU!WWWLL))ULPCPPDVDDGCDVVVCHGSCPG",
"tuuiuuizxcccvDDGDGGCGCKKWKJKLLLLWLLLL)//ULKKGG!TDVVDDcDDDCDDVDVG",
"tppuptuiajhzccDDGGKBPGCKKLQ`LLJLLQQKLLL/L/LKWKRGDTDVDVZccfcVDDDD",
"y6ppyiiyiisxzcDSSVCBCCKCUWLQLLQQ/])LKL///LLUUUPGDDDADFDFfcDDSTGE",
"56y5yybyyysjxvkDSHPPHPKUUUKLJL/UL//QQLL/``QLLPPPCDDDTFDccADDDDVc",
"&ebebb6yyt>uxvZZAGGGCJKWULLLL/LLQ/L/_L^//])/PKPGRDDDDDDVVDDIHHHG",
"355655=534taahhkVHGGCJKLU/`//`/LL//``````LLLJLKPGDVDDFHGRCDGGGDD",
"$qq3&355y5ysMvckkDGCWKCKL`]`^Q]L`L/^`^//`WKKLKKP!!GGDGDRGRRGCGGG",
"@&&0&0qe5qyyazcvcADSGKKLL``L//LLLL__^`''``LU!KKPKPPHGPGCCPPGCRGG",
"&q:5q03&=5yytuhFTFDPPPLL//``]]`L``''''``]]/ULLLPUU!HGCDCPSGC!RHG",
"@:3q&&3&*4tpizhcccZGPUKPLL`/)QLL//''''(`/`ULLLKKKGGGRRGCCCCUPCNF",
"%=5qqq=55psahhzhcFDDKPKLKLLLW``Q``````^`QLULLLQLKKCCCGWGPPUKGGDV",
"*56y>==yymxjjahhhDDRPGKUKLULLQQL)`/////LLLU`~LUQUUPGKKKJKKCKCCCD",
"*ttymmi>ijxjhahvccDCGGPKKK~KKKLLL``````^/L/LLLLLULKUWKKKJKKCWCVA",
"ssspsi>iaihzhdzzkDDGGCKPCUWQLKLL````/`/`//L/Q/LLLQQQWLLLKKWKKCRR",
"sssxjattzazhhczzkkVSGKGPPKKKKKLL/LL``/////`_^///L``~`QLLJJKJKCVT",
"uuzuu>tuijlzcccFDDTVSCPCKJKKWLL/L/LL````^/^''^///]```QLLLLLKKPGC",
"hlcvhhaazzxcccDADFSSGGCPCKKULLLLLLL/``^/^^'('(^'/`/`^LLQL~LLKCGS",
"dkAFcchzuhDcvcfTHSGHHH!!WKKUQL)LLLL^/LL/(`(('`^//``L`LL```LLKKP!",
"ddDTDDccckcccccDDDDTGGGKK!UWLKLKLLQQ///L_((('''''(//L////LLKKGCG",
"NDDGRTTFEHDDccADDgNDDVCGPKKUULLLLLLLLL/LL^`/^``'(]///L`/L^LKLJCC",
"fDDCGGDCcSDDcDFDDDGDSGRP!PCKLJLJQ``)L//^///)/))`///`//_Q`LLLKLWK",
"NSDGGCSDSDTVDDAFGHDDDGCCGP!LUULL/`Q```^`//LL//LLL`////```LL``WQQ",
"fCGVDCCCCDDDVVZDDDSDDDDDCKKJJLLJ~]L`]`L'))/L)L/```)//)``^/L]`/QQ",
"DCCZCSCPPGPIRHGGHHGGGDDSCCKUULJLLLLLLL/LLKLULLL`L``//`]`/^`/`L//",
"VVCKPKCWPYGHGGGGGPHHHPGHGKCPUUUKQ~U~LLU/UULULLQQ`]``^/``/L`/^/^L",
"dZSHPCKKKKPPKKGCCCGHFTGSCPPKKPUKUKUULLLKKKUKKLL/`]````'``^'^^`/L",
"cGDDPLL~!UU!KKKKGKGGGSDDVBHPJKKCK!UP~KKK!PWKLLLKLLLLLL^_^_`''```",
"zdcNCKL~WKKK!WWKPPPHRHRCVSGCPKCCKPPKCWKCC!W~LULLLLLUU)`//((^`/'`",
"zhkDCCGPUWLLLJKCKPKGCCCCGSCCY!UPBUPPUK!!!GCG~~UUWLUUU/^/')/(````",
"azhDSHGPCWKLKLLPKKP!!!CYSPGCPPGCGKWKWKGDGVCCCCCLUKKKL///(``/`'']",
">rrfDGSJJKKKLW]LPUPWKCGPPPPGGKKPPKGPGCVDcNDVSGKKKLLL~/L/)/]``//)",
">ilzvDSSCKLU~LW~KGPKKUPCCBNCYCGCUPCGDVDccDcDDSGHHPJKUL`/`LL/`LL/",
">iazvcFDSPKPUUKKKPKKWKCKPGGKCCPKCDVSDkkZAkkkEDHGSCCJWLLLL//``LQ`",
">uihuccDGGGPPPPKUPPUWWPKCPPPRYGGSDZAcchhcxcccADGGDCYKKKL/L/QQLLK",
"tmzuzzccSGSCGKGPUULKKK!KPPPPCGCDDAAczhhaalzzhcDDDVVCPUKKLLLQUPUL",
"iiaaiuhcDVCNNCCCKKKUWLUUURPGGGDAclljluutizvxxccccgDVGWKKCKKUUCKC",
"*tyaslhkfDSDCVVCCKLLLJ~UUKKPPDDcz,i,umiiazsxzzchzFDDGGGGCGGSGCGS",
"=4y5ijhlhcDDGVSVKKK!LLU]ULKRRTFvjimiymimpixvcxkkzkDDTGDZDGEDDDDD",
"@ypspasxvvhkDDDRCKW~LKL~~~UCYDczzyyibnb6yixxxvvcfkcDFZckcccvkcch",
"$55ybmijxzccFDSGCSPPK~~LKKCCDDDcaiypibb55yyiilxlzchklAlvvzzhzxzx",
"$&5t=>biyahhhccVZDGUKKKKKGYGTTFvhhipyp5=5y6tiiuuhahhjxmxzaiixsii",
"X:q55=*yttiuuhzfcDPGKGKGHGGADFDFvziy55&&35=5iytaiiaaxsiyypytty6p",
" ;;ebq6yiiit>azacFGHUPPRCGFDFcvvcktt65q3505&455tt>>ipiy>555*&5q6",
".713&yy5tppyuiuuugDDGCGDDFvvczcxlzu>4==3&035356=5*=bppp5y5353354",
"+O#135y5>pyaiiutzcVRGSGAckhzxxczhai>4=q600%33556555qq3553333353%",
"OX#135t65yppiyilccAAcFDDckhjczajazsiaa5qnbeq5eeq&&;;%%%33e05003%",
"X9w0355t5t5aiiajzccccFczhxvxxxxjzaaipppb:0030&&;09%#%;00311wq00;",
"O;0wq25=5py*>tuhzccvxvzxzzkzljhaxhssmsbeeq09#1391%79799%#$11%1;1",
"#00q535yyyibthhhkvkxvxzvhcczzhllvxsiyy6q33-11<7787<99199;3:30q03",
"%%%=5y656yp>uvxvlhlxxhvvhhhkzzczxxzuiyqq0%;788--1889999ewe9%%%$%",
"&35&5mby5=yyuihzzvxkljFvcchcchzhzitt5=b6%;+++oo-<9911%;;w0%00031"
};
