/* XPM */
static char *out[] = {
/* columns rows colors chars-per-pixel */
"64 64 35 1 ",
"  c #323232",
". c gray20",
"X c #343434",
"o c #353535",
"O c gray21",
"+ c #373737",
"@ c gray22",
"# c #393939",
"$ c #3A3A3A",
"% c gray23",
"& c #3C3C3C",
"* c gray24",
"= c #3E3E3E",
"- c #3F3F3F",
"; c gray25",
": c #414141",
"> c gray26",
", c #434343",
"< c #444444",
"1 c gray27",
"2 c #464646",
"3 c gray28",
"4 c #484848",
"5 c #494949",
"6 c gray29",
"7 c #4B4B4B",
"8 c #4C4C4C",
"9 c gray30",
"0 c #4E4E4E",
"q c gray31",
"w c #505050",
"e c #8B1A1A",
"r c #912020",
"t c brown",
"y c LightGray",
/* pixels */
"yyyyyyyyyyyyyyyyyyyyyyy<yyyyyyyyyyyyyyyyyyyyyy<yyyyyyyyyyy3yyyyy",
"yrrrrrrrrrrrrrrrytttttttttttttttytttttttttttttttyttttttttttttttt",
"yrrrrrrrrrrrrrrryttttttttt8tttttytttttttttttttttyttttttttttttttt",
"yrrrrrrrrrrrrrrrytttttttttOtttttytttttttttttttttyttttttttttttttt",
"yrrrr*rrrrrrrrrrytttttttttttttttytttttttttttttttyttwtttttttttttX",
"yrqrrrrrrrrrrrrrytttttttttttttttyttttttttttttttqyttttttttttttttt",
"yrrrrrrrrrrrrrr-ytt5ttqtttttttttytttttttttttttttywttttttt9tttttt",
"yrrrrXrrrr9rrrrryttttttt%tttttttyt@tttttttttttttytttttttttttqttt",
"yyyyyyyyyyyyyyyy.yyyyyyyyyyyyyyyyyyyyyyyyyyyyyyyyyyy%yyyyyyyyyyy",
"eeeeeeeeyeeeeeeeeeeeeeeeyrrrrrrrrrr2rroryrrrrrrrrrrrrrrryrrrrrrr",
"eeeeeeeeyeeeeeeeeeeeeee;yrrrrrrrrrrrrrrryrrrrrrrrrrrrrrryrrrrrrr",
"eeeeeeeeyeeeeeeeeeeeeeeeyrrrrrrrrrrqrrrrywrrrrrrrrrrrr@ryr*rrrrr",
"eeeeeeeeyeeeeeeoeeeeeeeeyrrrrrrrrrrrrrrryrrrrrrrrrrrrrrryrrrrrrr",
"eeee<eeeyeeeeeweeeeeeeeeyrrr6rrrrrrrrrrryXrrrrrrrrrrrrrryrrrrrrr",
"e7e#eeeeyeeeeeeeeeeeeeeeyrrrrrrrrr4rrr6ryrrrrrrrrrrr@rrryrrrrrrr",
"eeeeeeeeyeeeeeeeee=eee6ey#rrrrrrrrrrrrrryrrrrrrrrrr5rrrryrrrrrrr",
"yyyyyyyyyyyyyyy;yyy2yyyyyyyyyyyyyyyyyyyyyyy>yy<yyyyyyyyyyyyyyyyy",
"yrrrrrrrrrr:rrqrytttttttt=ttttttyeeeeeeeeeeeeeee8tttttttttttt5tt",
"y;rrrrrrrr5rrrrrytttttttttttttttyeeeeeeeeeeeeeeeytttttt0tttttttt",
"yrr2rrrrrrrrrrrrytttttttttttttttye:eeeeeeee>eeeeyttttttttttttttt",
"y6rrorrrrr$rrrrr7tttttt&ttttttttyeeee.eeeeeeee7eyttttttttttttttt",
"y.rrrrrrrrrrrrrryttttttttttttt#tyeeeeeeeeee-eew9yttttttttttttttt",
"yrr2rrrrrrrrrrrrytttttttttttttttyeeeeeeeeeeeeeeeytttttttttttttXt",
"yrrrrrrrrrrrrrrrytttttttttttttttyeeeee1eeeeeeeeeyttttttttttttttt",
"yyyyyyyyyy8yyyyyyyyyyyyyy9yyyyyyyyyyyyyyyyyyyyyyyyyyy>Oyyyyyyyyy",
"eee*eeeeytttttttttttttttytttttttttttttttyeeeeeeeee1weeeeyrrrrXrr",
"eeeeeeeeytttttttttttttttytttttttttttttttyeeeeeeeeeeee4eeyrrrrrrr",
"eeeee5eeytttttttttttttttytttttttttttttttye eeeee0e&9eeeeyrr8rrr0",
"eeeeeeeeytttttttttttttttytttttttttttttt9yeeeeeeeeeeeeeeeyrrrrrrr",
"eeeeeeeeytt$ttttttttttttytttttttttttttttyeeeeeeOeeeeeeeeyrrrrrrr",
"eeeeeeeeytttttttttt%ttttyttttttttttttttty-eeeeeeeeeeeeeeyr-rrrrr",
"eeeeeeeeytttttttttttttttyttttttttttttttty2eee7eeeeeeeeeeyrrrrr4r",
"yyyyyyyyyyyyyyyyyyyy,yyyy$yyyyyyyyyyyyyyyyyyyyyyyyyyyyyyyyyyyyy>",
"yeeeeeeeeeeeeee$ytttttttttttttt=ytttttttttttttttyee4eeeeeeeee>ee",
"yeeeqeeeee+eeeeeytttttttttttttttytttttttt2 wttttyee,eeeeee#e,;ee",
"yeeeeeeeeeeeeeeeytttttttttttttttytttttttttttttttyeeeeeeeeeeeeeee",
"yeeeeeeeeeeeeeeeytttttttttttttttytttttttttttttt1yeeeeeeeeeeeeee9",
"yeeeeeeeeeeeeeeeytttttttttttttttytttttttttttttttyeeeeeeeeeeeeeee",
"yeeeeeeeee@eeeeeytttttttttttttttyttttttttt@tttttyeeeeeeeeeeeeeee",
"yeeee&eeeeeeeeeeytttttttt5ttttttytttttttttttttttyeeeeeeeeeeeeeee",
"yyyyyyyyqyyyyyyyyyyyyyyyyyyyyyyyyyyyyyyyyyyyyyyyyyyyyyyyyyyyyyyy",
"ttttt<ttyeeeeeeeeeeeeeeeyeeeeeeeeeeeeeee;rrrrrrrrrr6rrrryrrrrrrr",
"ttttttttyeeeeeeeeeeeeeewyeeeee+eeeeeee>eyrrrrrrrrrrrrrrryrrrrrrr",
"ttttttttyeeeeeeeeeeeeeeeyeeeeeeeee1eeeeeyrrrrrrrrrrrrrrryrrrrrrr",
"ttttttttyXeeeeeeeee@eeeeyeee#eeeeeeeeeee+rrrrrrrrrrrrrrryrrrrrrr",
"tt7ttttty0eeeeeeeeeeeeeey%eeeeeeeeeeeeeeyrrrrrrrrrrrrrrryrrrrrrr",
"ttttttttyeeeeeeeeeeeeeeeyeeeeeeeeeeeeeeeyrrrrrrrrrrrrrrryrrrrrrr",
"ttttttttyeee<e*eeeeeeeeeyeeeeeeeeeeee.eeyrrrrrrrrrrrr rryrrrrrrr",
"yyyyyyyyyyyyyyyyyyyyyyyyyyyyyyyyyyy3yyyyyy>yyyyyyyyyyyyyyyy6yyyy",
"yeee$eeeOeeeeeeeytttttttttttttttytttwtttttttttttyeeeeeeeeeeeeeee",
"yeeeee6eeeeeeeeeytttttttotttttttyttttttt@tttttttyeeeeeeeeeeeeeee",
"yeeeeeeeeeeeeeeeytttttt;ttttttttytttttttttttttt9yeeeeee#eeeeeeee",
"y=eeeeeee>eeeeeeytttttttttttttttytttttttttttttttyeeeeeee5eeeeeee",
"y-oqeeeeeeeeeeeeytttttttttttttttytttttttttt4ttt:yeeeeeeeeeeeeeee",
"@eeeeeee7eeeeeeeytttttttttttttttyttttt4=ttttttttyeeeeeeeeeeeqeee",
"yeeeeeeeeeeeeeeeytttttttttttttttytttttt5tttwttttyeeoeeeeeeOeeeee",
"1yyyyyyyyyyy.yyyyyyyyyyyy9yyyyyyyyyyyyyyyyyyyyyyyyyyyyyyyyyyyyyy",
"eeeeeeeeytwtttttttttttttye2eeeeeeeeeeeeeytttttttttttttttyeeeeeee",
"eeeeeeeeytttOtttttttttttyeeeeeeeeeeee1qeytttttttttttttttyeeeeeee",
"eeeeeeeeytttttttttttttttyeeeee#eeeeeeeeeytttttttttttttt4yeeeee5e",
"ee5eeeeeytttt ttttttttttye0eeeeeeeeee9eeyttt#tttttttttttyeeeeeee",
"eeeeeeeey;tttttttt5tt$ttyeeeeee<eeeeeeeeyttttttttttt5tttyeeeeeee",
"eeeeeeeeytttttttttttttttyeeeeeeeeeeeeeeeytttttttttt6ttttyeeeeeee",
"eeeeeeeey ttttttttttttttyeeeeeeeeeeeeeeeytttttttttt+tttty%<eeeee"
};
