/* XPM */
static char *out[] = {
/* columns rows colors chars-per-pixel */
"64 64 127 2 ",
"   c None",
".  c #1A2432",
"X  c #1B2835",
"o  c #1E2C3C",
"O  c #222E3D",
"+  c #253037",
"@  c #24313F",
"#  c #222F41",
"$  c #243143",
"%  c #2A3645",
"&  c #2B3847",
"*  c #29354B",
"=  c #2D3A4B",
"-  c #333D4C",
";  c #384453",
":  c #3D4A59",
">  c #3C4964",
",  c #424E5D",
"<  c #475463",
"1  c #4B5766",
"2  c #4C5869",
"3  c #505C6C",
"4  c #475471",
"5  c #505E7B",
"6  c #57626D",
"7  c #576270",
"8  c #596574",
"9  c #5B6778",
"0  c #5E6A7A",
"q  c #B13B6A",
"w  c #BD396E",
"e  c #9C4575",
"r  c #9A5179",
"t  c #5C6A89",
"y  c #626E84",
"u  c #667283",
"i  c #6A7685",
"p  c #62708C",
"a  c #69758C",
"s  c #6B7889",
"d  c #637191",
"f  c #6A7592",
"g  c #65759A",
"h  c #697899",
"j  c #727E90",
"k  c #5D7EA5",
"l  c #597EA8",
"z  c #7D72AB",
"x  c #737AB0",
"c  c #8474AF",
"v  c #8476B2",
"b  c #8C76B1",
"n  c #857AB2",
"m  c #8D76B9",
"M  c #9174B3",
"N  c #C16A93",
"B  c #1E8493",
"V  c #238390",
"C  c #2E8996",
"Z  c #2C869C",
"A  c #258C9C",
"S  c #28889D",
"D  c #258DA1",
"F  c #2A8CA1",
"G  c #3786A5",
"H  c #338AA5",
"J  c #3B8CA8",
"K  c #768393",
"L  c #798797",
"P  c #75839C",
"I  c #7C879A",
"U  c #4485A4",
"Y  c #4984A5",
"T  c #5189A2",
"R  c #5B8EB3",
"E  c #7E8DA6",
"W  c #7584AC",
"Q  c #7887AC",
"!  c #7788AB",
"~  c #7B8AAD",
"^  c #638CB6",
"/  c #7283B0",
"(  c #7789B3",
")  c #7C8BB4",
"_  c #7D8DBA",
"`  c #7D90BD",
"'  c #7D8EC1",
"]  c #8088AD",
"[  c #8997AA",
"{  c #8F9CAE",
"}  c #9892AE",
"|  c #8384B5",
" . c #818CB6",
".. c #8484B9",
"X. c #818DBA",
"o. c #8395B7",
"O. c #8E9CB6",
"+. c #8393BC",
"@. c #9497B4",
"#. c #9C97B5",
"$. c #9898BA",
"%. c #9AA5B7",
"&. c #9AA6BD",
"*. c #9BAABC",
"=. c #808FC1",
"-. c #8293C0",
";. c #8E9EC4",
":. c #93A2C1",
">. c #9AA7C1",
",. c #9DABC1",
"<. c #92A3CA",
"1. c #A4B2C7",
"2. c #A6B6CD",
"3. c #ABB9CD",
"4. c #A2B2D6",
"5. c #A8B7D6",
"6. c #AEBED4",
"7. c #ADBCDB",
"8. c #B2BFDB",
"9. c #AEBBE4",
"0. c #B1BDE2",
"q. c #AFC2DD",
"w. c #B5C4DE",
"e. c #B8C6DE",
"r. c #B9C8DE",
"t. c #B5C4E1",
"y. c #B8C5E1",
/* pixels */
"                                                                                                                                ",
"                                                                                                                                ",
"                                                                                                                                ",
"                                                                                                                                ",
"                                                                                                                                ",
"                                                                                                                                ",
"                                                                                                                                ",
"                                                                                                                                ",
"                                                                                                                                ",
"                                                                                                                                ",
"                                                                                                                                ",
"                                                                                                                                ",
"                                                                                                                                ",
"                                                                                                                                ",
"                                                                                                                                ",
"                                                                                                                                ",
"                                                                                                                                ",
"                                                                                              ) _ _ /                           ",
"                                                                                            ) ( $.} (                           ",
"                                                                                          _ _ ` $.#.+.                          ",
"                                                                                        C ^ ` ) X. .Q                           ",
"                                                                                        S G R `  .                              ",
"                                                                                      S A D F J T                               ",
"                                                                                    V F D D D D                                 ",
"                                                                                    D D D D D D                                 ",
"                                                                                  G H D D D D D                                 ",
"                                                                                v m x Y D D F D                                 ",
"                                                                              ....v n v l D A A                                 ",
"                                                                            +.<.<._ | b v Y A S B                               ",
"                          . O o                                         t.t.y.e.t.7.+.X.M n Y S B                               ",
"                        O # $ 5 ) ~                                 8.w.t.y.e.e.t.q.7.` n b v T Z                               ",
"                        X $ $ 4 ` X.) ~                         e.e.y.y.t.y.e.t.t.w.q.<.| b M b z                               ",
"                        . # $ d _ ` ' ' _ ) ) W (         - 6 t.e.e.y.y.y.e.y.y.y.e.w.9._ n b b c                               ",
"                      + $ $ d ) _ ` _ ` ' ' ( g p j %.% 8 : 1 r.w.t.t.y.e.e.y.y.e.e.w.0.o...| b c                               ",
"                        O $ g _ ` W h t > * * = I 8.*.& s < % e.w.y.y.y.y.y.y.y.y.y.y.0.+.X.X. .                                ",
"                              f % * % $ O $ $ - 2.e.,.& 0 u $ *.w.t.y.y.y.y.y.y.y.y.t.7.X.X._ _                                 ",
"                              % @ # # $ # $ # = *.e.2.= , 3.- 9 w.t.t.t.y.y.y.y.t.t.8.o._ _ _ W                                 ",
"                                  o O # O # # $ y q.6.i & *.K $ [ w.e.w.t.t.y.y.t.t.:.) _ ` )                                   ",
"                                          O O @ & s 6.3., 3 3.L ; K q.w.w.e.t.t.9.;.) _ ` _                                     ",
"                                                  % 7 %.,.2 u 3.{ 9 2 L 1.7.8.4.O.) ` _ _                                       ",
"                                                      f ] %.y y >.5.:.P a j -._ _ _ X.)                                         ",
"                                                          ! _ ( _ +.' +.` _ X.X._ _ _                                           ",
"                                                            ( ) _ ` ' ' +._ _ _ _                                               ",
"                                                              ]  ._ X.X.) Q  . .                                                ",
"                                                                @.!           (                                                 ",
"                                                                e r                                                             ",
"                                                                  q                                                             ",
"                                                                  N                                                             ",
"                                                                                w                                               ",
"                                                                                                                                ",
"                                                                                                                                ",
"                                                                                                                                ",
"                                                                                                                                ",
"                                                                                                                                ",
"                                                                                                                                ",
"                                                                                                                                ",
"                                                                                                                                ",
"                                                                                                                                ",
"                                                                                                                                ",
"                                                                                                                                ",
"                                                                                                                                ",
"                                                                                                                                ",
"                                                                                                                                ",
"                                                                                                                                "
};
