/* XPM */
static char *out[] = {
/* columns rows colors chars-per-pixel */
"64 64 245 2 ",
"   c None",
".  c #040304",
"X  c #0C0303",
"o  c #060609",
"O  c #0C0A0C",
"+  c #090809",
"@  c #130D0C",
"#  c #1B0E0B",
"$  c #160502",
"%  c #17110F",
"&  c #140D12",
"*  c #1C1413",
"=  c #1B1519",
"-  c #1C1A1B",
";  c #171716",
":  c #27110D",
">  c #241412",
",  c #241A14",
"<  c #241C1B",
"1  c #2D1C1A",
"2  c #2B1A14",
"3  c #341E1B",
"4  c #391A17",
"5  c #1C261D",
"6  c #2A221D",
"7  c #24261E",
"8  c #33231D",
"9  c #39281C",
"0  c #3E361B",
"q  c #1C1D21",
"w  c #241F23",
"e  c #242423",
"r  c #242A23",
"t  c #2B2828",
"y  c #3B2422",
"u  c #352B23",
"i  c #332C2C",
"p  c #392927",
"a  c #2C3C2C",
"s  c #2A3428",
"d  c #373528",
"f  c #382E33",
"g  c #333336",
"h  c #3A3233",
"j  c #383837",
"k  c #2E2C33",
"l  c #49140D",
"z  c #49281E",
"x  c #45381B",
"c  c #59381A",
"v  c #5D2E1C",
"b  c #69341A",
"n  c #692E16",
"m  c #432A24",
"M  c #442D2B",
"N  c #492A26",
"B  c #522D2A",
"V  c #532C24",
"C  c #43332B",
"Z  c #4C332B",
"A  c #463627",
"S  c #563629",
"D  c #433332",
"F  c #4C3A34",
"G  c #453A38",
"H  c #563733",
"J  c #6A3A28",
"K  c #653C39",
"L  c #683B36",
"P  c #72342F",
"I  c #7A0809",
"U  c #394433",
"Y  c #30402B",
"T  c #464B05",
"R  c #4C5709",
"E  c #4C561B",
"W  c #535C1C",
"Q  c #525E0C",
"!  c #7E4F1D",
"~  c #55640B",
"^  c #5A6B18",
"/  c #4C6009",
"(  c #594528",
")  c #474539",
"_  c #594339",
"`  c #4F5424",
"'  c #74552A",
"]  c #674537",
"[  c #74453A",
"{  c #7A4837",
"}  c #68513B",
"|  c #785738",
" . c #6E4A26",
".. c #586627",
"X. c #5E6B36",
"o. c #5F7331",
"O. c #7F643B",
"+. c #667632",
"@. c #383745",
"#. c #37354A",
"$. c #483D42",
"%. c #563E41",
"&. c #484549",
"*. c #514B4B",
"=. c #564845",
"-. c #58534A",
";. c #555453",
":. c #595756",
">. c #4D4E53",
",. c #694A45",
"<. c #724A47",
"1. c #62544C",
"2. c #6B564B",
"3. c #795447",
"4. c #675955",
"5. c #7B5C53",
"6. c #775A56",
"7. c #674F56",
"8. c #6C635D",
"9. c #77665B",
"0. c #7E715A",
"q. c #77674A",
"w. c #6D5F66",
"e. c #6A686B",
"r. c #786964",
"t. c #777575",
"y. c #707075",
"u. c #555861",
"i. c #960B0D",
"p. c #AD1F1D",
"a. c #D51110",
"s. c #C61E20",
"d. c #F63A33",
"f. c #E80405",
"g. c #8B4B16",
"h. c #A35317",
"j. c #854C2D",
"k. c #824B3A",
"l. c #84533A",
"z. c #895538",
"x. c #935133",
"c. c #866338",
"v. c #986D3A",
"b. c #A4673F",
"n. c #AC7831",
"m. c #A56B1A",
"M. c #EF4A3C",
"N. c #845443",
"B. c #8E5F43",
"V. c #86594A",
"C. c #935E48",
"Z. c #845A52",
"A. c #8C6648",
"S. c #95634B",
"D. c #9C6549",
"F. c #9A7647",
"G. c #87655B",
"H. c #936253",
"J. c #976A58",
"K. c #8B7254",
"L. c #987757",
"P. c #A66B4D",
"I. c #A56A54",
"U. c #AC735B",
"Y. c #A67357",
"T. c #B67657",
"R. c #AE754B",
"E. c #896860",
"W. c #8B7869",
"Q. c #997467",
"!. c #857D77",
"~. c #987C74",
"^. c #946B65",
"/. c #A77967",
"(. c #B47B65",
"). c #B64C49",
"_. c #FC534D",
"`. c #6F8142",
"'. c #B98534",
"]. c #BF825B",
"[. c #AB8857",
"{. c #998368",
"}. c #978977",
"|. c #8F836A",
" X c #A88C6D",
".X c #BE846A",
"XX c #B88466",
"oX c #A78878",
"OX c #B28473",
"+X c #B78A77",
"@X c #B7967C",
"#X c #B39672",
"$X c #C1894F",
"%X c #C18768",
"&X c #C38D76",
"*X c #CB937B",
"=X c #C49679",
"-X c #D19A7C",
";X c #C6A262",
":X c #758192",
">X c #9A8788",
",X c #9C9088",
"<X c #959293",
"1X c #AA8E89",
"2X c #A79689",
"3X c #B9988A",
"4X c #A89995",
"5X c #B49E98",
"6X c #BAA386",
"7X c #BAA797",
"8X c #B2A799",
"9X c #B6AFAE",
"0X c #CD9E8B",
"qX c #C69782",
"wX c #D29B84",
"eX c #C19E91",
"rX c #D6A28E",
"tX c #C5A997",
"yX c #D4AC97",
"uX c #D3AB8E",
"iX c #E5B59C",
"pX c #DABAA5",
"aX c #D4BAB2",
"sX c #C9B6AB",
"dX c #E6BBA5",
"fX c #E3BBB1",
"gX c #F0BEA0",
"hX c #F19386",
"jX c #D3C2B7",
"kX c #E8C1AD",
"lX c #E9C6B8",
"zX c #F2CCBB",
"xX c #F1C5B4",
"cX c #F4D1BF",
"vX c #F2C6A9",
"bX c #E8D4C6",
"nX c #F6D8C9",
"mX c #F4DDD1",
"MX c #E1DAD5",
"NX c #FAE7DA",
"BX c #F2E2D7",
"VX c #F9EEE3",
"CX c #F9F1E9",
"ZX c #E9E3E0",
"AX c #D8D5CD",
/* pixels */
"                                                                                                                                ",
"                                                                                                                                ",
"                                                                                                                                ",
"                                                                                                                                ",
"                                                                                                                                ",
"                                                                                                                                ",
"                                                                                                                                ",
"                                                                                                                                ",
"                                                                                                                                ",
"                                                                                                  Q ^ ^ ~ ~                     ",
"                                                                                                R ....o.o.^ ^                   ",
"                                                                                              T ~ ^ +.`.+.+.^ Q Q               ",
"                                                                                              R ....q.o.X...W R / ~             ",
"                                                                                            T T E ....W ` W W E T               ",
"                                                                                            T T R W E ` 9 N y < w               ",
"                                                                                              x 9 - + o : P v 2 &               ",
"                                                                        ;.4.}.                _ ) u 2 9 9 m m 3 2.yX            ",
"                                                                    1.g g &.1. X            Z C ) d 9 9 C C Z f 1 t t           ",
"                                                                |.$.p h g *.;.0.[.          0 j U d r u u C F M     <           ",
"                                                              j G k i h @.:.:.-.F.$Xn.      C r r r - 6 , t p                   ",
"                                                          e.>.i i & e f h -.=.=.-.F.'.m.!   6 s a e o ; ; 5 < 6                 ",
"                                                        *.      ) t &.&.h G *.;.t.{.L.F.g.6 6 r s 5 ; 5 5 ; * 1                 ",
"                                                      !.&.g       U _ F ) h U 0.oX9X9Xy.A 9 7 ; 5 r a a s r 7 2 1               ",
"                                                      0.e.$.      j ' F =.U 8.}.7X7X9X:X8.,.d r e s a Y a s 6 6 >               ",
"                                                        |.y.#.      j j ) 8.2X8X X6X8X:X<X8.1.) U Y U U Y d 6 , #               ",
"                                                        {.e.&.#.      >.t.jXMX2X|.6X}.t.t.t.#XG.X.-.U U Y 7 7 * @               ",
"                                                          W.*.@.@.  :.4XZXZXMX9X}.2XK.&.e.e.aXzX5X2._ ) U d 1 , #               ",
"                                                            0.*.*.;.9XCXVXVXVXcX|.|.2Xq.g y.2XnXmX5X1._ ) d 9 > #               ",
"                                                            } 4.&.AXCXmXVXVXBXnXjX#X_ ,X;.&.y.tXzXlX4XG.H Z p 8 #               ",
"                                                              q.K.bXVXVXNXnXnXjX7X7X@XO.;.u.g e.eXkXcXkXJ.J H N 4               ",
"                                                          :.    K.7XmXmXnXnXcXzXkX X}.q.F.e e.>.9.yXiXxXfX/.[ V N               ",
"                                                      >X9X>X    W {.#XlXcXcXvXvXdXyXoX} u }.j g u.9.+XiXdXqXL.N.L               ",
"                                                  :.r.!.>X7.f =.7.| c.F.0XyXiXiXkXpXoX#XL.( :.4.5 >.1.3XiXyX(./.V.              ",
"                                                4.r.4X4X$.&.D %.%.8XO.! v.v.[.=XuXgXpX@XL.0.F.9 >.i t ) 3XrXqX/.S.              ",
"                                              6.1.t.,XF @.f $.G D 4.5Xc.m.n.m.'.[.[.L.=X#Xc.d L.A t &.; *.W.=XOXQ.              ",
"                                            r.=.!.5X7.h k w $.r.i i k ~.K.[.'.'.;X#XR.x. .Q.L.( A 4.e #.q &.4.oX/.              ",
"                                          y h !.5XE.F t q q f M q O ; = 4XyX3X{.XX#Xn.h.h.c. .W.c.9 q.r @.q g e.W.              ",
"                                        N G <X4X~.7.F i - = 4.1Xi o O O ; d 5.+XqXOX| j.h.g.n | ( | c } t g k g k               ",
"                                    B H ,.1X>XaXaX5XD w q = 6.qX+Xr.6 o o o w oX@XU.Y.U.b.x.g.n ' c S x ( 9 d k ;               ",
"                                  m B H ~.6.6.aXfXfXeXB = - *.0XrXwXE.* . . o & M J.(.%X(.P.B.j.b c c ( x (  .x                 ",
"                              y N Z H [ [ B H Q.fXxXzXfX,.= - 6.0XqX&XJ.Z * . o O F J.Y.U.D.H.B.S.| c ( ( ( (                   ",
"                          * 2 y M ,.L P K K B 7.3XfXfXfX~.& o & 6.&X&X%XY.F % . . o 1 ) | V.l.D.P.J.S.V._ }                     ",
"                        @ @ y %.<.<.L K K L K L 7.~.1X3X(.H o . < ,.(.U.T.Y.V.M , O . . @ C | S.P.+XT.I.H.                      ",
"                    + + - F S ] ,.<.N.Z.Z.{ [ N.N.B N y p w o . * m H.U.P.D.Y.J.] 8 , , , H | (.wX.XT.P.                        ",
"                  + i H B N <.E.^.Q.J.V.H.H.Z.3.V.N.{ P J > . # : 4 z J N.B.z.C.z.j.j.x.B.J.*XwX*X%XR.                          ",
"                w M B K K <.V.C.I.I.(.Q.J.H.H.Z.N.N.k.k.3.3.S 8 3 l z ] V J z.z.J [ B./.qXqXwX*XT.T.                            ",
"              y N y N B B L { N.H.H.H.H.H.^.^.Z.Z.5.V.5.3.] } L V b J ] { j.| z.S./. X&XwX-X%X$X$X                              ",
"              : : : > 1 4 V L L <.P H H H <.6.Z.Z._ C M C N v J J P l.B.S.S.P.D.P..X&X&X*X&X%XT.T.                              ",
"            4 # O + o = y ,.^.~.~.7.                            b b J { N.l.z.z.l.&X&X&X%XXXP.D.&X                              ",
"          H 3 ; O > > % w y                                       l       b b   +XyXwX%Xb.(.OXA.OX                              ",
"          F D M 8 * ; &                                           i.            dXiXvXgXiXgXvXD.U.wX                            ",
"            D 6 * <                                       . . X I i.X . . X $                   x.T.hX                          ",
"                                                            . X i.i.: $ X                           _._.                        ",
"                                                                f.s.).p.                              d._.                      ",
"                                                                  a.a.p.                              a.a.d._.                  ",
"                                                                                                                                ",
"                                                                                                                                ",
"                                                                                                                                ",
"                                                                                                                                ",
"                                                                                                                                ",
"                                                                                                                                ",
"                                                                                                                                ",
"                                                                                                                                ",
"                                                                                                                                "
};
