/* XPM */
static char *out[] = {
/* columns rows colors chars-per-pixel */
"64 64 151 2 ",
"   c None",
".  c #1A2534",
"X  c #1F2933",
"o  c #1E2C3A",
"O  c #212A36",
"+  c #232E3C",
"@  c #23303F",
"#  c #29323E",
"$  c #222F41",
"%  c #243143",
"&  c #2C3542",
"*  c #2D3A47",
"=  c #2A3749",
"-  c #2D3A4D",
";  c #323D4F",
":  c #2D3950",
">  c #343F50",
",  c #38454F",
"<  c #374253",
"1  c #394455",
"2  c #37465E",
"3  c #3E4A5A",
"4  c #3E4B63",
"5  c #454E62",
"6  c #465163",
"7  c #41516E",
"8  c #4C5768",
"9  c #4C586A",
"0  c #576475",
"q  c #5A6576",
"w  c #566378",
"e  c #5A6578",
"r  c #5F6B7D",
"t  c #95355C",
"y  c #B53D6F",
"u  c #C23C66",
"i  c #AE5374",
"p  c #257788",
"a  c #297F8C",
"s  c #556383",
"d  c #656F80",
"f  c #6B7587",
"g  c #687589",
"h  c #727E92",
"j  c #5A7DA5",
"k  c #6C7BA1",
"l  c #737EA4",
"z  c #717FAF",
"x  c #747CB0",
"c  c #897D8E",
"v  c #976A97",
"b  c #A06090",
"n  c #8577AC",
"m  c #8279AA",
"M  c #8B76B3",
"N  c #8579B1",
"B  c #897AB3",
"V  c #9174B4",
"C  c #188999",
"Z  c #26818A",
"A  c #218896",
"S  c #22879B",
"D  c #2D849E",
"F  c #258D9E",
"G  c #2D899E",
"H  c #1F8DA1",
"J  c #268DA2",
"K  c #2A8CA3",
"L  c #3B86A4",
"P  c #358AA2",
"I  c #3A8BA7",
"U  c #768397",
"Y  c #778299",
"T  c #798698",
"R  c #4089A7",
"E  c #4C86A8",
"W  c #5182A6",
"Q  c #5A80A3",
"!  c #5A82AB",
"~  c #5189AE",
"^  c #5C8CAE",
"/  c #6D81A4",
"(  c #6280AD",
")  c #6E81AA",
"_  c #7180A7",
"`  c #7C8DA6",
"'  c #7585AD",
"]  c #7A87AB",
"[  c #768AAE",
"{  c #7C8AAC",
"}  c #6B89B7",
"|  c #6E8CBB",
" . c #7387B4",
".. c #7B84B2",
"X. c #768BB2",
"o. c #7B8CB4",
"O. c #748FBA",
"+. c #7C8DBB",
"@. c #7790B3",
"#. c #7D90B6",
"$. c #7C90BB",
"%. c #7E8EC1",
"&. c #7B90C2",
"*. c #818C9E",
"=. c #8385A5",
"-. c #818CAC",
";. c #8491A4",
":. c #8694AC",
">. c #8C9AAF",
",. c #9391A4",
"<. c #8C83B7",
"1. c #838BB3",
"2. c #8582B9",
"3. c #8E82B8",
"4. c #818EBC",
"5. c #8492B4",
"6. c #8B99B3",
"7. c #8494BB",
"8. c #8C96B8",
"9. c #8D9FBB",
"0. c #9A9CB7",
"q. c #929CBB",
"w. c #9AA7B6",
"e. c #9DA7B8",
"r. c #9AA9BD",
"t. c #808DC1",
"y. c #8B97C2",
"u. c #8C9CC4",
"i. c #93A2C6",
"p. c #9DABC3",
"a. c #93A4C9",
"s. c #99A4CB",
"d. c #9FAECC",
"f. c #9EACD0",
"g. c #A2AFC3",
"h. c #A0AEC9",
"j. c #A5B4CC",
"k. c #A8B7CD",
"l. c #ABB9CD",
"z. c #A2B2D5",
"x. c #ACBBD4",
"c. c #AAB7DB",
"v. c #AFBED8",
"b. c #B3BFD3",
"n. c #B2BFE2",
"m. c #B5C3D4",
"M. c #B3C2DC",
"N. c #B8C5DE",
"B. c #B5C4E2",
"V. c #B8C5E1",
"C. c #B7C1EC",
/* pixels */
"                                                                                                                                ",
"                                                                                                                                ",
"                                                                                                                                ",
"                                                                                                                                ",
"                                                                                                                                ",
"                                                                                                                                ",
"                                                                                                                                ",
"                                                                                                                                ",
"                                                                                                                                ",
"                                                                                                                                ",
"                                                                                                                                ",
"                                                                                                                                ",
"                                                                                                                                ",
"                                                                                                                                ",
"                                                                                                                                ",
"                                                                                                                                ",
"                                                  1.8.o.7.                                                                      ",
"                                                -.1.7.1.7.                                                                      ",
"                                                b.8.1.c 0. .                                                                    ",
"                                              & 6 l 1.,.` +.                                                                    ",
"                                              Y ] +.t.O.+.}                                                                     ",
"                                              ^ O.$.&.| ~ D                                                                     ",
"                                            Z G P R I K J C                                                                     ",
"                                            A J F G J F J J                                                                     ",
"                                          p J J J J J J J J                                                                     ",
"                                          S J K J J J J K J                                                                     ",
"                                          J K J J K K L E ! j                                                                   ",
"                                        Z K K K I W x ..3.<.<.                                                                  ",
"                                        Q ! ( x N B <.s.z.z.d.a.                                                                ",
"                                        V V M M B y.n.n.B.V.M.C.M.m.                                                            ",
"                                        B M M m q.B.V.V.V.V.V.V.N.V.N.N.m.                                                      ",
"                                        m M 2.o.z.B.V.V.V.V.V.V.V.V.N.N.N.w.* <                                                 ",
"                                        -.%.%.7.c.V.V.V.V.V.V.V.V.V.V.V.V.T = e 0 @                                             ",
"                                          %.%.4.c.V.V.V.V.V.V.V.V.N.B.B.B.9 % T r @ r M.d               . .                     ",
"                                          +.+.+.z.M.N.N.V.V.V.V.V.V.M.M.g.- > p.w % g M.x.= % % $ $ % % % +                     ",
"                                          ) +.+.y.B.V.V.V.V.V.V.V.V.M.x.< = h k.6 < r.B.v.3 % $ $ + % O                         ",
"                                            o.%.$.a.B.V.V.M.M.B.M.M.k.3 = 0 x.k.1 9 M.B.x.1 $ % @ X                             ",
"                                              4.$.#.s.B.V.N.B.M.x.h < - U x.M.>.1 r.M.m.h % % O                                 ",
"                                                +.%.7.u.d.e.;.r 6 6 U p.v.M.x.f *.x.p.e 4 s k '                                 ",
"                                                k O.4.+.1.] ` 6.d.x.n.B.B.n.w.:.9.5.k l ] +.4.$.+.o.                            ",
"                                                  v o.+.+.4.o.7.u.a.a.a.u.y.#.[ X.X.+.+.+.+.+.+.+.t.t.t.+.                      ",
"                                                i y b =.X.+.4.4.$.+.+.+.+.o.{       [ o.#.+.+.#.#.+.$.&.%.+.4                   ",
"                                                          @.t.+.+.+.%.+.7.              o.1.7.o.+.$.O.X.[ / = o                 ",
"                                                            1.X.                          +.+.+.+.#.l 7 2 = %                   ",
"                                                            o.                              { +.+.[ : % + + O                   ",
"                                                                                              o.-.5 & #                         ",
"                                                          t u                                   O + +                           ",
"                                                                                                                                ",
"                                                                                                                                ",
"                                                                                                                                ",
"                                                                                                                                ",
"                                                                                                                                ",
"                                                                                                                                ",
"                                                                                                                                ",
"                                                                                                                                ",
"                                                                                                                                ",
"                                                                                                                                ",
"                                                                                                                                ",
"                                                                                                                                ",
"                                                                                                                                ",
"                                                                                                                                ",
"                                                                                                                                ",
"                                                                                                                                ",
"                                                                                                                                "
};
