/* XPM */
static char *out[] = {
/* columns rows colors chars-per-pixel */
"64 64 234 2 ",
"   c #004100",
".  c #064B04",
"X  c #045504",
"o  c #075B06",
"O  c #036403",
"+  c #096705",
"@  c #046D04",
"#  c #056409",
"$  c #0A620A",
"%  c #086E0A",
"&  c #106C0E",
"*  c #047404",
"=  c #0A7406",
"-  c #037C02",
";  c #0C7A04",
":  c #157D05",
">  c #547611",
",  c #477D2D",
"<  c #477B30",
"1  c #497E31",
"2  c #F85705",
"3  c #D47408",
"4  c #E87B07",
"5  c #FD7505",
"6  c #FC7E05",
"7  c #F87709",
"8  c #FB7A10",
"9  c #038403",
"0  c #098303",
"q  c #038C02",
"w  c #0A8C04",
"e  c #198A05",
"r  c #039402",
"t  c #0C9502",
"y  c #029B01",
"u  c #099B03",
"i  c #0C980B",
"p  c #159304",
"a  c #268705",
"s  c #348D03",
"d  c #2A9606",
"f  c #369306",
"g  c #02A401",
"h  c #0CA304",
"j  c #02AB00",
"k  c #0FAC06",
"l  c #1AA203",
"z  c #02B400",
"x  c #02BC00",
"c  c #0EB508",
"v  c #1AB705",
"b  c #2CB604",
"n  c #4C8C07",
"m  c #479808",
"M  c #5C970A",
"N  c #498B10",
"B  c #59881C",
"V  c #54921F",
"C  c #688C07",
"Z  c #729C0A",
"A  c #63891C",
"S  c #698819",
"D  c #738F1C",
"F  c #69971E",
"G  c #779A1C",
"H  c #4DAF01",
"J  c #67A308",
"K  c #71AB10",
"L  c #468526",
"P  c #498625",
"I  c #478B25",
"U  c #4B8D25",
"Y  c #46832A",
"T  c #4A852D",
"R  c #478928",
"E  c #4C8B2B",
"W  c #518C2E",
"Q  c #479124",
"!  c #4D9425",
"~  c #4E9925",
"^  c #4E9329",
"/  c #4F9928",
"(  c #519525",
")  c #5A9222",
"_  c #539C25",
"`  c #599E25",
"'  c #52932B",
"]  c #539B29",
"[  c #599C2B",
"{  c #4D8532",
"}  c #4E8A32",
"|  c #528C34",
" . c #508638",
".. c #568B38",
"X. c #538C3A",
"o. c #549133",
"O. c #5B9335",
"+. c #5B9836",
"@. c #5D9934",
"#. c #56903B",
"$. c #5A933A",
"%. c #6B9C21",
"&. c #619636",
"*. c #639A37",
"=. c #699B37",
"-. c #639639",
";. c #6B9B39",
":. c #769E39",
">. c #55A225",
",. c #59A425",
"<. c #56A824",
"1. c #5CAA25",
"2. c #56A129",
"3. c #5AA428",
"4. c #5BAA28",
"5. c #5FB126",
"6. c #63A924",
"7. c #60AC29",
"8. c #75A322",
"9. c #64B526",
"0. c #75A239",
"q. c #01C200",
"w. c #02CB00",
"e. c #09C904",
"r. c #01D300",
"t. c #06DC02",
"y. c #17D506",
"u. c #04E000",
"i. c #2EE500",
"p. c #3BE602",
"a. c #40D000",
"s. c #67C404",
"d. c #6DEE01",
"f. c #8B950E",
"g. c #969C19",
"h. c #B3950D",
"j. c #8AA80A",
"k. c #8DA51E",
"l. c #94AE12",
"z. c #AFAF0D",
"x. c #B4B00B",
"c. c #A4A519",
"v. c #B4AC19",
"b. c #8DB122",
"n. c #96B221",
"m. c #9BB320",
"M. c #B7B429",
"N. c #D3970E",
"B. c #FC8303",
"V. c #FB8C04",
"C. c #F8870A",
"Z. c #FA8C09",
"A. c #FB9405",
"S. c #FC9D04",
"D. c #F6950D",
"F. c #FA940B",
"G. c #FA9D0B",
"H. c #E78D11",
"J. c #FC8413",
"K. c #F99311",
"L. c #F69C12",
"P. c #C6A30D",
"I. c #CCB907",
"U. c #CFAB12",
"Y. c #C8B718",
"T. c #D5BE19",
"R. c #FCA403",
"E. c #FCAB03",
"W. c #F6A60F",
"Q. c #FBA30A",
"!. c #FBAC0A",
"~. c #E6B70C",
"^. c #FCB305",
"/. c #FDBC04",
"(. c #F5B30B",
"). c #FBB50B",
"_. c #FCBC0C",
"`. c #FBA515",
"'. c #FBAC12",
"]. c #F8A219",
"[. c #FCB513",
"{. c #F9BA10",
"}. c #FCB31A",
"|. c #FABB1C",
" X c #FBA525",
".X c #EBB129",
"XX c #F9B723",
"oX c #FAB937",
"OX c #98EB04",
"+X c #C7C50F",
"@X c #E5C509",
"#X c #FEC404",
"$X c #FBCA04",
"%X c #FCC40A",
"&X c #FCCB0C",
"*X c #FBD707",
"=X c #FCD30A",
"-X c #E5C719",
";X c #EBCC1A",
":X c #FCC412",
">X c #FCCC13",
",X c #F9C518",
"<X c #FCCC1B",
"1X c #EAD71F",
"2X c #FDD115",
"3X c #F6D21A",
"4X c #FBD31B",
"5X c #FCDB1D",
"6X c #FEE507",
"7X c #FEE718",
"8X c #D5C921",
"9X c #D4D12A",
"0X c #EFCC21",
"qX c #FBC726",
"wX c #FCCC2A",
"eX c #FCD927",
"rX c #FDD32A",
"tX c #FDCC33",
"yX c #F9C538",
"uX c #FCD936",
"iX c #FCD539",
"pX c #FCE624",
"aX c #FEE83C",
"sX c #FEF53C",
"dX c #FACD47",
"fX c #FBD446",
"gX c #FDDB44",
"hX c #FDDC4A",
"jX c #FDD058",
"kX c #F9E446",
"lX c #FCE14A",
"zX c #F9E55C",
"xX c #F9EC72",
"cX c #FDF48A",
/* pixels */
"( ( _ ] [ _ ! ( _ ( ] 3.! ( ( ( ! ` ] ! ] ! P ! _ ! ( _ ! ( ( ! U ( ( ( ` _ ! ` ,.! ( 3.( ( 2.! ( 3.` ! ~ ~ _ >.~ ~ _ _ ~ ~ ~ ! ",
"( ( >._ ( >._ ( 2.( ( ,._ _ _ _ _ ( ] _ ! ` _ ! ,.` ( ~ ~ ! >._ _ ( _ >.] 2./ ( ,._ ( 3.` ] _ 2._ 2.,.>.` >.>._ <.! ` 1.V >.>._ ",
"_ ,._ _ ,._ ( ,.~ ~ ,.>._ _ _ _ ! _ ! ` ,.` _ ` ) ( ` ~ R ' ' ^ _ ,._ ] 3./ ~ 3.,.` ,.>._ 3._ ( >.,.,.>.>.>.2.<.Q ~ 1.1.<.1.>.~ ",
"U _ ( ( ` ~ Q ( ~ U ] ,.U _ _ U / ] Q ! 2.>.U ` ~ I ! ~ Y |  .X.T ` ! U _ ( ^ 2.3.( _ ,.^ ( ] ! _ ! ` Q ` Q ! ( U ~ >.V 2.>.V Q ",
"_ ( ` V U ,._ U >.~ ! ` ( P ( ` ( ! _ _ U ,._ U <.>.U >.' h X.X.( rX3XxXcX2.] ! 7._ U ,.` ! _ ~ <._ ! , Y E 4.` <.~ ` 1.` V ,.,.",
"_ ,.` _ >.>._ >._ ( ,.' &.O._ ( 2.>._ _ 6.` _ _ <._ 2._ U u -.| uX=X>XkXuXgX~ ,.,.` ` ,.! _ >.( _ ,.! } | } / 2.>._ 1.>.1.<.,._ ",
"( ` ! ( _ _ Q ! _ ! _ @.=.&.( ( ( _ ( ( ,._ ( ] ,.! ~ >.u | &.zX>XeX&XkX5XeXgX,.,.( ( ,.! ! >.( ~ >.! O.| | ^ ~ _ ( >.` >.4.,.~ ",
"( U ,._ P _ ! P ` _ U ` +.| ( ( Q U ` _ ! _ _ U >.! U _ g ! ^ kX&X&X4X3X%XpXfXL 1.,.Q ~ ~ U ( ` <.>.( E ] ' ~ 2.>.` ! 4.,._ _ ~ ",
">.~ ` _ >.V ! _ _ _ >.>.` E ( ( ~ _ _ _ = - * * 2.! >.y u _ uX&X7X&X7X7X*X*X4X<.>._ 2.~ _ _ _ >.4.2.1.1.4.1.2._ 2.<.>.~ <.<.2.~ ",
"! ~ ! Q _ ~ U _ ! ! ( >.~ ^ _ ! U _ r y r u - @ q Q _ j p sX&X&X#X*XpX4X{.aX>XpX( ! _ ~ ! ! ~ ! ~ >.( ~ 2.2.2.4.~ _ >._ ~ ~ >.! ",
"! ! _ ! Q _ ( U >.~ Q >.! ( _ ( ! ! _ ~ ( ,.( U y 9 q h l.7X$X7X$X*XsXpX&X#X$XpX` ! ! _ ! ( ~ ~ ! _ _ _ _ ,.3.2.>.~ ~ V _ _ ~ V ",
"~ ,.V _ ,.>._ >.~ ~ ` ,._ _ ,.,._ _ ~ 2.,._ _ 4.r 9 9 l @X%X=X=X/.5X5X$X*X*X=X6X) _ ,.,.` >._ U _ 1.,.1.1.2.3.,._ ~ 2.,._ <.>._ ",
"( ` V ~ >.! ! ` ! ! _ ,._ ` _ ~ ! _ ! ( ,.` ( ,.r q = J *X^.=X#XE.%X<X#X#X%X&XeX2.* ] / / ~ _ 2.( >._ ( 1._ ( >._ ! [ ,.` _ >.! ",
"( _ _ ( _ ` ( ( _ ! ( ,.( ( _ ! ! ! ! ! ' ,.( ( u q e +X/./.wXE.*XaX:XE.eXuX#X=X} @ ^ R R _ ~ ! _ 2.` _ ,._ ] ( U E ( 7._ _ ` ! ",
"~ >.,._ ( >._ ( 2.` >.1.V ( >._ _ _ _ ` _ ,.` ( u q m pX&XE././.#X_.E.R.%X/.#X;Xm @ X. .} & _ 2.<.1.1.<.>.,.( T | T _ ,.,.>.>.V ",
"Q ` V ` >.` ! _ >._ _ >._ ` ,.( Q _ _ I ` O @ 9 y t j.[.E.&X#XE.5XuX/.R.2X&X/.;XM # X.X.X.( <.2.! 5.V ,.4.,.] | :.} >._ ` 1.<.~ ",
"! _ ~ ( Q ~ ! E | | E ` U ^ _ Q U ( _ ! q * @ * r f ~.2XR./.E.A.)._.R.R.).E.#X1XN } o./ o ! 2._ 5.,.2.>.~ _ ] o.o.| ! ,.! _ ~ Q ",
"! ( >._ U _ ( O.0.*.' _ >.! ~ _ ~ ( 2.( 9 9 @ * 9 J eXQ.<XgXE.^.uX4XE.R.&X/./.@XC ^ R ! # ~ ~ } / _ 2.4.~ >.~ / ( _ _ 2.,.2.~ _ ",
"! ~ ~ ! ` _ ( | =.O.o.! ( ( 2.~ ! ] _ ( - 9 @ * ; I.!.E.Q._.A.>XqX!.R.}.hX!.&X@XM ^ E % $ / / } } ^ >.! <.~ ! ~ ] _ 2.2._ _ _ ! ",
"( ` ( U ` _ _ o.O.$.' ~ ! ( _ ! ! ` ~ + * * O * n -X).R.&X$XS.&XrX/.R.%X<X).).@Xn ' ] # % 2.` U X.! ~ Q 2.( ~ <.] ( 2._ ! Q _ Q ",
"! ( ` ,.U ,.! ( U ] ` 2.` ( _ ` _ ! _ # @ O o * Z 3X/.E.:XR.R.&X:XR.R.wX&XR.qXI.s ` - * <.>._ I { ! >.>.Q <.V ! >._ ! <.( ! _ V ",
"( ,._ ` 7.,.] ,./ ( 2.>.` ` ,._ ( >.~ # @ ` _ : M.dXS./.tXQ.E.4XrX/.Q.&X#X^.(.I.d 9 = % 2.2.~ I { ! >.>.1.>.>.>.! ~ <.,.V <.>.~ ",
"! _ _ ( ,.( Q ] ~ Q ] ,./ ( _ ! ( >.! * % ` ( a N.D.Q.`.}.B./.|.).S.^.iX!.!.tXj.p q = = _ ! ! I { ! >.( <._ ! _ ! ! ~ V ! _ >.Q ",
"( ( _ ` U ,._ U 3.! ( 1.( ( ` ,.[ ( ` * $ ,._ n .X XS.qXjX6 /.>XE.B.&XqX%X'.{.j.u q * o.} ( >.R Y ! >.>.V 1._ ( >.~ ! ,._ _ >.V ",
"~ ,.) >.>.>._ >.2.` 2.1.` _ ,.( 2.>.( * 1.,.= C G.F.!.yXF.Z.iXwXV.V.qXeX).wXfXJ y r = ! >.1._ U { ( 1.>.>.,.>.>.~ ~ >.,.1.>.1._ ",
"! ` ! _ 2.>.! ] >.! ` ,.~ ' ] ' U E o ~ _ ( ; z.iX_.).rX&XG.2X<X^.S.`.#X^.K.(.J u r T W ^ ] ,.! } ,.,._ >.>.Q 2.V Q _ >._ ` ,._ ",
"! ( ` _ ^ _ ( ^ >._ ^ ,.! |  .Y T } . ' Q >.: x.Q.Z.:XfX).^.wXiXA./.gXqXS.tX-Xm r i | T { ' ^ T { E 2.~ I ~ Q U <.V Q ,.( ] _ _ ",
"_ _ ,.2.,.>.] _ ` _ ~ 2.( T  .{ | { U R , ` n 3XwXG.).>XS.V.%X>X^.S.G.^.D.).P.a - 9 z h 1 Y { | | W E Q ~ V ! ! >.~ _ 2.,._ ,.[ ",
"_ >.( ~ _ ~ U ~ Q ! _ ! Q T  .| X.{ < Y  .@ M @XS.Q.rXoXZ.*XgX}.V.2XlX%X>XuXz.: * q 9   | { ^ ' W | } I _ ~ Q 3.~ ( ( ~ ! ~ _ ] ",
"] ( _ ( ! _ ( ( ~ ! ! _ E | | | | { E T } = l.4XE.F.'.>XF._.Q.).A./.).A.`.|.Z ; - 9     [ ^ / ! { W T T ! _ ( ( >.! ! >.( ! ( ! ",
">._ ` _ ` ,.( _ ~ ~ _ ,.( | | | } T U E R ; z.`.C.%XrX^.Q.eXlXR.F.lXhX(.rXrXM - q o   . X ] ^ ! T ( _ _ ( ,.( _ ~ ~ ( ,._ _ >._ ",
"! ,._ _ ` _ ( >.~ ~ E E E T $.$.X...( ~ + ; x.!.Z.!.%XV.A.`._.B.S. X(.Q.yXN.a q ' '   X O ~ ( / ` ! >._ >._ ( >./ ( ,._ ( ` _ _ ",
"U _ ` ( ` ~ ! ( ~ R W O.$.O.-.O.#.E ( Q O e 9X,XE.3XhX_.).gX[.A.Q.2X#XD.XX~.a y R ( . O O w ^ L Q ! _ ! ` ~ ^ ] } {  .{ E ' _ U ",
"( ` ` _ ( ,._ U _ R | @.;.*.O.| O.T ] } * d @X).D.D.).F.&X].B.7 <XoXD.XXfXl.p } ' ( ! - 9 q / ! ! ( _ _ ( ,._ ( W $.-.$.} ( ` _ ",
"! ,._ ( _ _ ! 2._ ^ | $.O.;.O.X.{ } W * * 6.0X!.%XfX:XZ.>XfXS.V.%X<X!.`.,XJ i } < T E / 9 9 ~ ! / ~ _ _ >.,.] 2.} | $.X.} ( ,._ ",
"! ` ! ( ~ _ U ~ ,.R E O.| O.&.| , { O.0 * j.W.G._.}.8 !.>X_.5 A.rXqXD.4XyXf i | { } } } ~ % Q I ! ( ( U / _ ! ] } X.X.#.| ! _ U ",
"Q ! >.( R ` ~ P 1._ U ` ,.O.| $.X.X.O.9 - Y.[.B._.yXZ.Z.&XE.B.Z.<X_.Q.].~.d  .< } O.O.o.| + . U U ( 2.! I 2.~ L U ^ o.W / ( ~ ( ",
"( _ _ _ 1._ _ _ 2.( _ 2._ E E ( o.} E - w P.Z.S.|.}.F.#XtXF.5 [.fX!.L.hX+Xl X. . .} T ] _ 2.o ! ! _ >.! >._ ~ >.] ( _ >._ _ _ ~ ",
"! ( ! Q >.( ! _ ~ ! ~ ~ Q U ( ~ _ ( q 9 w P.A.A.:X`.Z.).|.F.B.`.qX/.L.[.K v  .X.|  .{ E ^ ( _ ` ] ] / / 2._ Q _ ~ ! _ >.Q ! _ ! ",
"Q U ` ` R >.( I >.! U _ _ ! ~ ` _ Q q q r P.C.!.XX8 Z.<XqX5 7 iXdXZ.=XoXd <  .X.X.X.O.| { } E T { T / 2.U 2._ P _ ~ R >.>._ ~ _ ",
">.,.>.<.6.,.<.1.~ ! ,.>.~ >.,.` _ ,.q r r M.J.!.oXJ.A.:X}.B.B.,X}.K.XXh.l X.| | X. .| | { T | W | } R ! ,.>._ ,.~ ~ ,.2.,.,.1.` ",
"~ _ ,._ <.,.~ >.~ ! ( >.V _ ,.! ] _ r j j f.B.qX`.5 /.iX}.6 R.zX0XL.kXN h X.| { {  .| | | { | | } X.| L ,.! ! _ Q ! _ 4.,.>.>.~ ",
"<.V _ E I ! _ ~ >.Q ! ,._ ( ` ~ ! ( r j j H 4 %X`.7 N.P.(.V.F.`./.`.Y.p k X.| E ' ( U Y E E ! ! E } X.R U ` ! ! 2.~ ! 9.2.V ~ _ ",
">.,._ O.| E ~ _ >.! ,.7.V >.>._ _ _ y z x v I.0XH.C p 0 > 2 >XgXS.W.K u ;.O.W ,.1.( ] ! I / ! I I E R Q _ V ~ >.<.2.1.9.5.~ ,.>.",
"! ` ( X.| O.! ] >.~ _ ,.( ` 1._ / g y x q.w.a.s.b g q q e 3 (.G.B.U.e g O.$.^ ` 1.` ` >.~ Q ~ Q Q ! ~ ! >.>.~ >.,.! >.>.>.,.1.>.",
"_ _ ( ^ O.' 2.~ 2.! _ ,.~ ! 2.( Q r y x e.r.r.w.x j y r u j.eXqXC.N r z O.#.E _ 1._ ~ <.2.~ _ ~ _ 2._ ( Q V ! I _ ! _ 4._ _ ~ ! ",
">.~ <.>.,.<.2.<.,._ ~ 2.` _ 2._ ] u y x q.r.r.w.x j r g j k f.h.m q j x $.X.| ] 1._ >.>._ ~ >._ ~ >.>._ ! ~ ! ! >._ _ 1.<.~ V <.",
"~ ~ ~ ( >.2.] >._ ( >._ ~ ~ 2.~ ! q g z q.r.r.w.x z j g j z x c j q g ( ' X.Y ( 1._ _ 1.>.! >.>.~ _ >.! >.~ ! _ ! ( _ 2.>.~ 2.~ ",
"~ ~ ) I ( _ ! _ _ ! ` 2.! ^ ! ! ! q j z x w.r.w.q.z j j z x x z y r z ( 2./ >.2.1._ ~ >.~ _ _ ! _ ] ( Q ] ~ ! _ _ ! ( >.! ! _ ! ",
"! ~ V ~ Q ` _ ! >.( ! ( ^ R Q ( ( 9 g z q.w.r.w.x z j z x x q.z y j e._ ! _ ! ` >.! ! >.R T o.o.} } } ] ! ,._ ! ~ ! ( ,._ _ ,._ ",
"~ >.>.V ,._ _ >.~ ~ _ R { { R ( ~ 9 y z x q.w.q.q.z j x x x q.j j x _ ( >.~ ~ Q ,.! Q 2.} O.=.&.$.O.X.E 4.>._ >.~ ! ,.1._ ,.>._ ",
"Q ~ >.! ` ~ U ( ! I / } 1 X.E ! Q ~ r g z x q.x z j z q.q.x x j j e.Q I _ Q ~ ~ >.~ ~ ~ ^ $.$.;.=.O.#..._ ( ^ _ ~ Q ( 1.( _ _ U ",
"_ ! 1.V Q >._ U >.~ ! W O.} ( >._ ! w y y g j j j z z z z x z j w.y.` ) U V ! ~ ~ ! _ 2.E $.$.@.=.O.#.' _ ,.>.U ,.~ _ 1.` ( ` ,.",
"~ ,.>.V ,.>.~ _ 2.( ` >.` >.,._ _ >._ w y y g z q.q.x z j z z w.t.>._ ~ 2._ ~ I ~ ! ! >.T $.&.=.0.0.$.! 4.,.~ >.>._ 4.1.,.` ,._ ",
"U V V _ >._ ! ] >.Q _ ,.( _ ,.( U _ ! ! ,.y z w.t.r.q.j j z w.t._ 2.~ Q 2.~ _ _ 2.] _ 1.' +.@.O.&.*.@.W ,.,.( b.n.m.m.m.n.8.6.! ",
"! ! >.>.U 2._ R ,.` U ,.>.! ! ~ Q U ` _ P y z w.u.t.x j u x t.1.>.2.V U ] ,._ 2.2.>.,.1.E $.O.O.#.$.O.E >._ F T.Y.-X4X-XT.c.A _ ",
"<._ >.2.>.2.2.,.>._ _ _ V ~ _ ~ _ ,.` ~ ` h q.r.u.r.x i >.! ,.,._ _ 4.( _ ,.Q ] ~ Q ~ ~ ( o.o.' T o.o.` 2.2.' A S D Y.> v.8XF ( ",
"_ ~ ~ ' _ ] 2.4._ ! _ ~ ! ! ~ ~ ! _ ~ ! _ ~ t.i.p.y.c ~ ~ ~ 2.! } ' ' P ..' ^ U <.V ! _ ~ ~ _ ` >.] ,.! 2.( ) k.8XG P k.eX8X%.! ",
"<.! ! | o.o.2.2.>.! Q _ ! ! _ _ ! ! ~ ! Q _ _ p.d.OXV >.~ ~ _ U O.@.O.O.&.O.W _ <.,.>.<._ _ <.~ _ >.>._ Q _ G -X3Xk.P Y.5XT.%.( ",
"<.V ( X.X.} _ 1.~ ! ` >._ >.>.V _ >.~ ~ ,.` _ ,.>.( V ~ ~ ! >.U $.@.O.0.&.$.T ,.>.V <.<._ >.>.Q ! >.V _ ,.>.k.3X-XA S G 4XT.%._ ",
"~ >.>.o. .| ( ,.! ( _ ,.V ` _ ~ ! _ ! ( ,.>.` V _ ~ ~ ~ ! ) 5.>.#.+.=.@.@.#.^ ` 5.<.V ~ ~ ~ ~ ~ ~ >.<._ >._ G ;XD g.-XG c.T.D ! ",
"_ ~ ( U ( ( 2.( _ U ( ,.! ( _ ~ ! ~ ! ! ! >.( ( _ ~ ~ >.Q ~ <.>.O.2.] ( ] ] ] ~ 5.~ <.<.~ V <.! ~ >.,.! V ~ U f.v.Y.Y.c.S g.F Q ",
">.,.,.>.~ <.<.>.>.~ _ <.V ~ ` _ V ~ ~ ~ ` ,.` ! ,._ _ <._ _ 1.1.! >.>._ ! 2.! ,.5.V V <.>.>.>.~ ! <.,.V ~ ,.V ! B B B F A B ( ( ",
"! >.V <.,.>.>.~ >.! _ _ _ ` ,.! ! _ ~ U ,._ _ ` >.! ~ <.! ~ <._ ,.1.<.! _ >.Q _ <.>.>.5.~ Q <.~ Q >.<.V _ _ ~ ~ >.V _ V ~ ( ` ! "
};
