/* XPM */
static char *out[] = {
/* columns rows colors chars-per-pixel */
"64 64 219 2 ",
"   c None",
".  c #013E01",
"X  c #004100",
"o  c #014C00",
"O  c #0A4908",
"+  c #045504",
"@  c #075B06",
"#  c #036403",
"$  c #096705",
"%  c #046D04",
"&  c #056409",
"*  c #0A620A",
"=  c #086E0A",
"-  c #106C0E",
";  c #047404",
":  c #0A7406",
">  c #037C02",
",  c #0C7A04",
"<  c #137D04",
"1  c #197C06",
"2  c #597809",
"3  c #F85705",
"4  c #D47408",
"5  c #FD7505",
"6  c #FC7E05",
"7  c #F87709",
"8  c #FB7A10",
"9  c #E87B07",
"0  c #038403",
"q  c #098303",
"w  c #038C02",
"e  c #0A8C04",
"r  c #1B8D06",
"t  c #168703",
"y  c #039402",
"u  c #0C9502",
"i  c #029B01",
"p  c #099B03",
"a  c #0C980B",
"s  c #139203",
"d  c #1B9607",
"f  c #248506",
"g  c #278903",
"h  c #348D03",
"j  c #2A9606",
"k  c #369306",
"l  c #02A401",
"z  c #0CA304",
"x  c #02AB00",
"c  c #0FAC06",
"v  c #1DA303",
"b  c #15A104",
"n  c #02B400",
"m  c #02BC00",
"M  c #0EB508",
"N  c #1AB705",
"B  c #2CB604",
"V  c #4E8B07",
"C  c #458F07",
"Z  c #449D02",
"A  c #499809",
"S  c #47920C",
"D  c #5B960B",
"F  c #5E9807",
"G  c #498B10",
"H  c #50900E",
"J  c #688C07",
"K  c #729C0A",
"L  c #4DAF01",
"P  c #63A10C",
"I  c #69A505",
"U  c #7CB30A",
"Y  c #61A814",
"T  c #75A713",
"R  c #01C200",
"E  c #02CB00",
"W  c #09C904",
"Q  c #01D300",
"!  c #0BDC03",
"~  c #01DC00",
"^  c #17D506",
"/  c #04E000",
"(  c #2EE500",
")  c #3BE602",
"_  c #40D000",
"`  c #67C404",
"'  c #6DEE01",
"]  c #8B9606",
"[  c #959C0C",
"{  c #AA8F05",
"}  c #BC9B15",
"|  c #8EA20A",
" . c #85AD09",
".. c #97A90F",
"X. c #9CB108",
"o. c #8BBD12",
"O. c #AFAF0D",
"+. c #BDAE06",
"@. c #ACB30C",
"#. c #B4B00E",
"$. c #B8B422",
"%. c #B5B330",
"&. c #DE950D",
"*. c #DE8F14",
"=. c #CB9F12",
"-. c #C39906",
";. c #FC8303",
":. c #FB8C04",
">. c #FB8209",
",. c #F78D0C",
"<. c #FA8C09",
"1. c #F58606",
"2. c #FB9405",
"3. c #FC9D04",
"4. c #F6950D",
"5. c #FA940B",
"6. c #FA9D0B",
"7. c #FC8413",
"8. c #E2911E",
"9. c #F69C12",
"0. c #F99311",
"q. c #EC8804",
"w. c #C6A30D",
"e. c #C9B905",
"r. c #CFB909",
"t. c #D9B90A",
"y. c #C0A711",
"u. c #D5A11A",
"i. c #C8B312",
"p. c #FCA403",
"a. c #FCAB03",
"s. c #FBA30A",
"d. c #F6A90E",
"f. c #FBAC0A",
"g. c #F6A40F",
"h. c #E8BA08",
"j. c #FCB305",
"k. c #FDBC04",
"l. c #FBB50B",
"z. c #FCBC0C",
"x. c #F5B30B",
"c. c #FBA515",
"v. c #FBAC12",
"b. c #F8A219",
"n. c #E4B410",
"m. c #FCB513",
"M. c #F9BA10",
"N. c #FCB31A",
"B. c #FABB1C",
"V. c #FBA525",
"C. c #EEB72E",
"Z. c #F9B723",
"A. c #FCBB33",
"S. c #F6B43E",
"D. c #E7AB24",
"F. c #98EB04",
"G. c #C7C50F",
"H. c #E5C509",
"J. c #FEC404",
"K. c #FBCA04",
"L. c #FCC40A",
"P. c #FCCB0C",
"I. c #FCD204",
"U. c #FCD30A",
"Y. c #FCDA0B",
"T. c #FAD906",
"R. c #EACA15",
"E. c #ECCD1A",
"W. c #E8C719",
"Q. c #FCC412",
"!. c #FCCC13",
"~. c #FDC419",
"^. c #FCCC1B",
"/. c #F7C617",
"(. c #EAD71F",
"). c #FDD115",
"_. c #FBD21B",
"`. c #FCDB1D",
"'. c #F6D119",
"]. c #FEE507",
"[. c #FDE41A",
"{. c #FEE916",
"}. c #D4D12A",
"|. c #EFCC21",
" X c #FBC422",
".X c #FDCB23",
"XX c #FDC42D",
"oX c #FCCC2A",
"OX c #F2C82B",
"+X c #FDD224",
"@X c #FDD32A",
"#X c #FDDB2A",
"$X c #F9D924",
"%X c #FDCC33",
"&X c #F9C538",
"*X c #FBD332",
"=X c #FBDB33",
"-X c #FCD539",
";X c #FDDC3C",
":X c #F9E623",
">X c #FDE923",
",X c #FBE42A",
"<X c #FEE83C",
"1X c #FEF53C",
"2X c #FACD47",
"3X c #FDD442",
"4X c #FDDB44",
"5X c #FBD44B",
"6X c #FDDC4A",
"7X c #F6D143",
"8X c #FDC456",
"9X c #FDDC50",
"0X c #FDDC59",
"qX c #FCE246",
"wX c #FCE14A",
"eX c #F8E546",
"rX c #F9E55C",
"tX c #F9EC72",
"yX c #FDF48A",
/* pixels */
"                                                                                                                                ",
"                                                                                                                                ",
"                                                                                                                                ",
"                                                                                                                                ",
"                                                                                                                                ",
"                                                                                                                                ",
"                                                          z       +X'.tXyX                                                      ",
"                                                          p     =XU.!.eX;X4X                                                    ",
"                                                        p     rX^.#XP.eX`.`.4X                                                  ",
"                                                        l     eXP.P._.'.L.,X5X                                                  ",
"                                        : > ; ;       i p   *XP.[.K.{.{.T.Y._.                                                  ",
"                                    y i y p > % w     l d 1XP.P.J.Y.>X_.M.<X!.>X                                                ",
"                                                i 0 w z o.[.K.{.K.T.1X>XP.J.K.:X                                                ",
"                                                y 0 0 v H.k.U.U.k.`.`.J.I.T.U.].                                                ",
"                                                y w : I Y.j.U.J.a.L.^.J.J.L.P.#X  ;                                             ",
"                                                p w t G.k.k.oXa.I.<XQ.a.$X;XJ.U.  %                                             ",
"                                                i w A :XP.a.k.k.J.z.a.p.z.k.J.E.S %       -                                     ",
"                                          # % 0 i u | m.a.P.J.a.`.;Xk.p.).P.k.E.D $                                             ",
"                                        w ; % ; y k h.).p.k.a.2.l.z.p.p.l.a.J.(.G       @                                       ",
"                                        0 0 % ; 0 P $Xs.^.4Xa.j.;X_.a.p.P.k.k.H.J       &                                       ",
"                                        > 0 % ; < r.f.a.6.z.2.!. Xf.p.N.6Xf.P.H.D     = *                                       ",
"                                      $ ; ; # ; C W.l.p.P.K.3.P.@Xk.p.L.^.l.l.H.V     & =                                       ",
"                                      & % # @ ; K '.k.f.Q.p.p.P.Q.p.p.oXP.p..Xr.h   > ;                                         ",
"                                      & %     < $.2X3.k.%Xs.a._.@Xk.s.P.J.j.x.e.j 0 : =                                         ",
"                                      ; =     f =.0.s.v.N.;.k.B.l.3.j.-Xf.f.%X .s w : :                                         ",
"                                      ; *     V D.V.3.oX8X6 k.!.a.;.L..XL.v.M.| p w ;                                           ",
"                                      ;     : J 9.5.f.&X5.<.-XoX:.:..X*Xj.oX7XP i y :                                           ",
"                                    @       , @.-Xz.l.@XP.6.).^.j.3.c.J.j.0.x.I p y                                             ",
"                                    O       1 #.s.<.Q.5Xl.j.oX-X2.k.6X.X3.-XW.Z y a                                             ",
"                                            V E.XX6.l.!.3.:.L.!.j.3.6.j.4.m.-.f > 0 n z                                         ",
"                                          % D H.3.s.@XA.<.I.4XN.:.).qXL.!.=XO.< ; w 0 .                                         ",
"                                          : X._.a.5.v.!.5.z.s.l.2.k.l.2.c.B.K , > 0 X X                                         ",
"                                          , O.c.,.L.@Xj.s.#XwXp.5.qX6Xx.@X@XF > w @ X o +                                       ",
"                                        $ , +.f.:.f.L.:.2.c.z.;.6.V.x.s.&X*.g w     X + #                                       ",
"                                        # r }./.a.'.6Xz.l.4Xm.2.s.).J.4.Z.t.g p     o # # e                                     ",
"                                        ; j H.l.4.4.l.5.P.b.;.7 ^.S.4.Z.5X..s         > 0 w                                     ",
"                                      ; ; Y |.f.L.3XQ.,.!.3X3.:.L.^.f.c./.I a           0 0                                     ",
"                                      0 ; [ d.6.z.N.8 f.!.M.5 2.@X X4.`.&Xk a             =                                     ",
"                                      0 > i.m.;.M.&X<.<.P.a.;.<.^.z.s.b.n.j               $ O                                   ",
"                                      > e w.5.3.B.N.5.J.%X5.5 m.3Xf.9.6XG.v                 @                                   ",
"                                    w 0 e w.2.2.Q.c.<.l.B.2.;.v. Xk.9.m.U N                                                     ",
"                                    w w y y.>.f.Z.8 <.^.XX5 7 *X2X,.!.C.j                                                       ",
"                                    w y i %.7.f.A.7.<.Q.N.;.>.~.N.4.Z.} b                                                       ",
"                                    y l l ] 1. Xv.5 k.-XN.6 f.0XOX9.eXS z                                                       ",
"                                    y x n L 9 L.s.7 &.w.x.:.4.b.k.g.i.s c                                                       ",
"                                    i n m N e.OX8.J s q 2 3 !.4X3.g.T p                                                         ",
"                                  l i m R E _ ` B l w w t 4 l.6.>.u.r l                                                         ",
"                                  y i m W Q Q E m x i y p  .=XXXq.A y n                                                         ",
"                                  y i m R Q Q E m x i l l c ] { Z e l m                                                         ",
"                                  w l n R Q Q E R n l l x n m M l w l                                                           ",
"                                  w l n R E Q E R n x x n m m n i y n                                                           ",
"                                  0 l n R E Q E m n x n m m R n i x W                                                           ",
"                                  0 i n m R E R R n x m m m R x x m                                                             ",
"                                    y l n m R m n x n R R m m x x W                                                             ",
"                                    e i i l x x x n n n n m n x E ^                                                             ",
"                                      e i i l n R R m n x n n E !                                                               ",
"                                          i n E ~ Q R x x n E /                                                                 ",
"                                          i n E / ~ m l p m /                                                                   ",
"                                          z R Q / Q m a                                                                         ",
"                                            ! ( ) ^ M                                                                           ",
"                                              ) ' F.                                                                            ",
"                                                                                                                                ",
"                                                                                                                                ",
"                                                                                                                                "
};
