/* XPM */
static char *out[] = {
/* columns rows colors chars-per-pixel */
"64 64 126 2 ",
"   c #5A5A5A",
".  c #685D58",
"X  c #B37110",
"o  c #AB7631",
"O  c #BF7C3A",
"+  c #CB7700",
"@  c #CA780B",
"#  c #DE7E00",
"$  c #C5791A",
"%  c #C9781A",
"&  c #E87F06",
"*  c #B27C45",
"=  c #EC8501",
"-  c #EE8A00",
";  c #F38D00",
":  c #F49400",
">  c #F49B00",
",  c #F3920A",
"<  c #EC9319",
"1  c #F49D13",
"2  c #F3A401",
"3  c #F3AC03",
"4  c #F3AC0B",
"5  c #F3B203",
"6  c #F4B70E",
"7  c #F3BC0E",
"8  c #F4A413",
"9  c #F4AD14",
"0  c #F4A11C",
"q  c #F4B915",
"w  c #F4B41D",
"e  c #EA8F29",
"r  c #E39B26",
"t  c #F5B424",
"y  c #F4BA21",
"u  c #F4B62E",
"i  c #F5B82A",
"p  c #F5BC32",
"a  c #F6BC3B",
"s  c #F4C41C",
"d  c #F3D61D",
"f  c #F4D222",
"g  c #F4D32E",
"h  c #F3DE2D",
"j  c #F5C633",
"k  c #F5C835",
"l  c #F6C33A",
"z  c #F4DB37",
"x  c #F5D33A",
"c  c #F3E03D",
"v  c #B98C6C",
"b  c #A18C74",
"n  c #A98F79",
"m  c #B99F7E",
"M  c #D58647",
"N  c #D49046",
"B  c #D8914E",
"V  c #C18650",
"C  c #D48C53",
"Z  c #DC8A50",
"A  c #F6BC41",
"S  c #F7BD4B",
"D  c #EFBC5E",
"F  c #CF8F67",
"G  c #C68E69",
"H  c #CF9263",
"J  c #C79369",
"K  c #C99A7E",
"L  c #DFAC6B",
"P  c #DBAA78",
"I  c #DAB176",
"U  c #E2A561",
"Y  c #F6C543",
"T  c #F6C64E",
"R  c #F6CE4C",
"E  c #F4DB44",
"W  c #F5D44B",
"Q  c #F4DA4B",
"!  c #EFCE54",
"~  c #F7C554",
"^  c #F6CE55",
"/  c #F4C959",
"(  c #F5D651",
")  c #F4DC54",
"_  c #F6D559",
"`  c #F3E154",
"'  c #F3E159",
"]  c #F4CB65",
"[  c #F4D467",
"{  c #F4DD60",
"}  c #F3D56C",
"|  c #E2C37D",
" . c #F1C67A",
".. c #E9D775",
"X. c #F6D574",
"o. c #F5D870",
"O. c #F3D47B",
"+. c #F2DB7B",
"@. c #EFE46E",
"#. c #EDE274",
"$. c #EDE27A",
"%. c #8E8E8E",
"&. c #928A84",
"*. c #918E8C",
"=. c #979797",
"-. c #9B9B9B",
";. c #B19E8F",
":. c #A09F9F",
">. c #B7A499",
",. c #A3A3A3",
"<. c #ADA8A4",
"1. c #ACACAB",
"2. c #B3A9A4",
"3. c #B9ACA6",
"4. c #B2AFAE",
"5. c #BDB2A4",
"6. c #B2B0AF",
"7. c #B8B2A9",
"8. c #B0B0B0",
"9. c #D4B384",
"0. c #C8B29A",
"q. c #DAC386",
"w. c #DCCA88",
"e. c #EDDD82",
"r. c #EBDC8B",
"t. c #E4DF97",
/* pixels */
"%.1.%.%.%.%.%.%.%.-.%.%.%.%.%.%.%.%.%.=.%.%.1.%.8.%.%.%.%.%.%.%.%.%.%.%.%.%.%.%.%.%.1.%.%.%.%.1.%.%.%.%.%.%.%.,.%.  %.%.%.%.%.%.",
"%.%.%.%.%.%.%.%.%.%.%.%.%.%.%.%.%.%.-.%.%.%.%.%.%.%.%.%.%.%.%.%.%.%.%.%.%.%.%.%.%.-.%.%.%.%.%.%.%.%.=.%.%.%.%.%.  %.=.%.%.%.%.%.",
"%.%.8.8.-.8.8.8.8.8.8.8.8.8.8.8.%.8.8.8.8.8.8.8.8.8.8.8.8.8.8.8.%.%.8.8.8.8.8.8.8.8.8.8.8.8.8.8.%.%.8.8.8.8.1.8.  8.8.8.,.8.8.8.",
"%.%.8.8.8.8.8.8.8.8.8.8.8.8.8.8.%.%.8.8.8.8.8.8.8.8.8.8.8.8.8.8.%.%.8.8.8.8.8.8.8.8.8.8.8.8.8.8.%.8.8.8.8.-.8.8.8.  8.8.8.8.8.8.",
"%.%.8.8.8.,.-.-.8.8.:.8.8.8.8.8.%.%.8.8.8.8.8.8.8.:.8.8.8.8.8.8.%.%.8.8.8.8.8.8.8.8.8.8.8.8.8.1.%.%.8.8.8.8.8.8.-.8.8.8.8.8.8.8.",
"%.%.8.8.8.8.8.  8.8.8.8.8.8.8.8.%.%.8.8.8.1.8.8.8.8.8.8.8.8.8.,.%.%.8.8.8.8.8.8.8.8.8.8.8.8.8.8.%.%.8.8.8.8.8.8.-.8.8.8.8.8.8.8.",
"%.%.8.    8.  8.8.8.8.8.8.1.8.8.%.%.8.8.8.8.8.8.8.8.8.8.8.8.8.8.%.%.8.8.8.8.8.8.8.8.8.8.8.8.8.-.%.%.8.8.8.8.8.8.8.8.8.8.8.8.8.1.",
",.%.1.1.8.    8.8.8.1.,.8.1.8.8.%.%.8.8.<.8.8.8.8.8.8.8.8.8.8.8.%.%.8.8.8.=.8.1.8.8.8.8.8.8.8.8.%.%.8.1.-.8.8.8.8.8.8.8.8.8.8.8.",
"%.%.8.8.8.8.:.1.8.8.8.8.1.8.8.8.%.%.8.8.8.8.8.8.8.8.8.8.8.8.8.8.%.%.8.8.8.8.8.8.8.8.8.8.8.,.8.8.%.%.8.8.8.-.8.8.8.8.8.8.8.=.8.8.",
"%.%.8.8.8.8.8.8.8.8.8.8.1.1.8.8.%.%.8.8.1.8.8.8.8.8.8.8.8.8.8.8.%.%.,.8.8.8.8.8.8.8.8.8.8.8.8.8.%.%.8.8.8.8.8.8.8.8.8.8.8.8.8.8.",
"%.%.8.8.8.8.8.8.8.8.8.8.8.8.8.8.%.%.8.8.8.8.8.8.8.8.8.8.1.8.8.8.%.%.8.8.8.8.8.,.8.8.8.8.8.8.8.8.%.%.8.8.8.8.8.8.8.8.8.8.8.8.8.8.",
"1.%.-.8.8.8.8.8.8.8.8.8.8.8.8.8.%.%.8.8.8.8.8.8.8.8.8.8.8.8.8.8.%.%.8.8.8.8.8.8.8.8.8.8.8.-.8.8.%.%.8.8.8.8.8.8.8.8.8.8.8.8.8.8.",
"%.1.8.8.8.8.8.8.8.8.8.8.,.8.8.8.%.%.8.8.8.8.8.8.8.8.8.-.8.8.8.8.%.%.8.8.8.8.8.8.8.8.8.-.8.8.8.8.%.%.,.8.8.8.8.8.8.8.<.8.8.8.8.8.",
"%.%.8.8.8.8.8.8.8.8.8.8.=.8.8.8.%.%.8.8.8.8.8.8.8.8.8.8.=.8.8.,.%.%.8.8.8.8.8.8.8.8.8.8.8.8.8.8.%.%.8.8.8.8.8.8.8.8.8.8.,.8.8.8.",
"%.%.8.8.8.8.8.8.8.8.8.8.8.8.8.8.%.%.8.8.8.8.8.8.8.8.8.8.8.8.8.8.%.%.8.8.8.8.8.8.8.8.8.8.8.8.8.8.%.%.8.8.1.8.8.8.8.8.8.8.8.8.8.8.",
"1.%.8.8.8.1.8.8.8.1.8.8.8.8.8.8.%.%.8.8.8.8.-.8.8.8.8.,.8.8.8.8.%.%.8.8.8.-.8.8.8.8.8.,.8.8.8.8.%.%.8.8.8.8.8.8.8.8.8.8.8.8.8.8.",
"%.%.%.%.%.%.%.%.%.%.%.%.%.=.%.%.%.%.%.%.%.%.%.%.1.%.%.%.%.%.%.%.%.%.%.%.%.%.%.%.%.%.%.%.%.%.%.1.%.    %.%.%.%.%.%.%.%.%.%.%.%.%.",
"%.%.%.%.%.1.%.%.1.%.%.%.%.%.%.%.%.%.%.%.%.%.%.%.%.*.%.%.%.%.%.%.%.%.%.%.%.%.%.%.%.%.%.%.%.%.%.%.%.    %.%.%.%.%.%.%.%.:.%.-.-.%.",
"%.%.8.:.8.8.8.8.8.8.8.8.8.8.8.8.%.%.8.8.8.8.8.8.8.8.8.8.8.8.8.8.%.%.8.8.8.8.8.8.8.8.8.8.8.8.8.8.    8.8.1.8.8.8.8.8.8.8.8.8.8.8.",
"%.8.8.8.8.8.8.8.8.8.8.8.8.8.8.8.%.%.8.8.8.8.8.8.8.8.8.8.8.8.8.8.%.%.8.8.8.8.8.8.8.8.8.8.8.8.8.8.%.%.8.8.8.8.8.8.8.8.8.8.8.8.8.8.",
"%.%.8.-.8.8.8.8.8.8.8.8.8.8.8.8.%.%.8.8.8.8.8.8.8.8.8.8.8.1.=.6.%.%.8.8.8.8.8.8.8.8.8.8.8.=.8.8.%.%.8.8.8.8.8.8.8.8.8.8.8.8.8.8.",
"%.%.8.8.8.8.8.8.8.8.8.8.8.8.8.8.%.%.8.8.1.8.8.8.8.8.8.8.=.1.1.8.%.%.8.8.8.,.8.8.8.8.8.8.,.8.8.8.%.%.8.8.8.8.8.8.8.8.8.8.8.8.8.8.",
"%.%.8.8.8.8.8.8.8.8.8.8.8.8.8.8.%.%.8.8.8.8.8.8.8.8.6.8.8.8.4.7.%.%.8.8.8.8.8.8.8.8.8.8.8.8.8.8.%.%.8.8.8.8.8.8.1.8.8.8.8.1.8.,.",
"%.%.1.=.8.8.8.8.8.8.,.8.8.8.8.8.%.%.8.8.8.1.8.1.8.8.8.8.5.I D  .I m 4.8.8.8.8.8.8.  8.8.8.8.8.8.%.%.8.8.8.8.8.8.8.8.8.8.8.8.8.8.",
"%.%.8.=.8.8.8.8.8.8.8.8.8.8.8.8.%.%.8.:.8.8.8.8.8.8.8.q...#.$.r.+.} ] | 0.6.8.    8.8.8.8.8.8.8.%.%.8.8.8.8.8.8.8.8.8.8.8.8.8.8.",
"%.%.1.8.8.8.8.8.8.8.8.8.8.8.1.8.%.%.8.8.8.8.8.8.8.7.w.$.#.@.$.t.r.[ R _ / P .       1.8.8.8.8.=.%.%.8.8.8.8.8.8.8.8.8.8.8.8.8.8.",
"%.%.8.8.8.8.8.8.8.8.8.8.8.8.8.8.%.%.8.8.8.1.8.8.8.9.@.' ` c ` e.r.+.j k Y u *     8.8.8.8.,.8.8.8.%.8.8.8.8.8.8.8.8.8.8.8.8.1.8.",
"%.%.:.8.8.-.8.8.8.8.8.8.8.8.8.8.%.%.8.8.8.8.8.8.5.! E g c h z { +.O.Y q i t r 7.8.  8.1.8.8.8.8.%.%.:.8.8.8.8.8.8.8.8.8.8.8.8.8.",
"%.%.8.8.8.8.8.8.8.8.8.8.8.8.8.8.%.%.8.8.8.8.8.8.9.g g d E z z W o.X./ q y p 0 >.8.  8.8.8.8.8.8.8.%.8.8.8.8.8.8.8.8.8.8.8.8.8.8.",
"%.%.8.8.8.8.8.8.8.8.8.8.8.8.8.8.%.%.8.8.8.8.8.8.I s s f Q E E ) X.O.~ q q a 0 K 8.  8.8.8.8.8.8.%.%.8.8.8.8.8.8.8.8.8.8.8.8.8.8.",
"%.%.8.8.:.8.8.8.8.8.8.8.8.8.8.8.%.%.8.8.8.8.8.8.L s s s Q ( x ^ X.O.a 5 3 t 1 H   8.8.8.8.8.8.8.%.%.8.8.8.8.8.8.8.8.8.8.8.8.8.8.",
"%.%.8.8.8.8.8.8.8.  8.-.8.8.8.8.%.%.8.8.8.8.8.8.U 5 6 7 l W k T ] ] i 3 3 4 > C 8.8.8.8.8.8.8.8.%.%.8.8.8.8.8.8.8.8.8.8.8.=.8.8.",
"%.%.%.%.%.%.%.%.  %.%.%.%.%.%.%.%.%.%.-.=.8.8.*.N 3 5 3 w l w p S A 4 2 2 2 > M %.%.%.-.8.%.%.%.%.%.%.%.%.%.%.%.%.1.%.%.%.%.%.,.",
"%.,.%.%.%.%.%.%.      %.%.%.%.%.%.%.%.%.%.%.%.%.V > 2 2 2 u 4 4 9 8 2 > > > ; M %.%.%.%.%.%.%.%.%.%.%.%.%.%.%.%.,.%.%.%.%.%.%.%.",
"%.%.8.8.8.8.8.8.8.8.8.8.8.8.8.8.%.%.8.8.1.8.8.8.;.< > 2 : 8 2 2 2 > > > > : = F 8.8.1.1.8.8.8.8.=.=.8.8.8.8.8.8.8.8.8.8.8.8.8.6.",
"%.%.8.8.8.8.8.8.8.8.8.8.  8.8.8.%.%.8.8.8.8.8.8.4.C > : ; : 2 > > > > > : ; = G :.8.8.8.8.8.8.8.%.%.8.8.8.8.8.8.8.8.8.8.8.8.8.8.",
"%.%.8.8.8.8.8.8.8.8.8.8.8.  8.8.%.%.,.8.8.8.8.8.6.>.e ; : : > : > : > : : - # v 8.8.8.8.8.8.8.8.%.%.8.8.8.8.1.8.8.8.8.8.8.8.=.8.",
"%.%.8.8.8.8.8.8.8.8.8.8.8.  8.8.%.%.8.8.,.8.8.8.1.6.J , : : : : : : : : ; & @ n 8.8.8.8.8.8.8.8.%.%.8.8.8.8.8.8.8.8.8.8.8.8.8.8.",
"%.%.8.8.-.8.8.8.8.8.8.,.  8.8.8.8.%.:.8.8.8.8.8.8.=.<.B , ; ; ; : : ; - # + o 2.8.8.8.8.8.8.8.8.%.%.1.8.8.8.8.=.8.8.8.8.8.8.8.8.",
"%.8.8.8.8.8.8.8.8.8.8.8.  8.8.8.%.,.8.8.8.8.8.8.8.4.6.2.Z = = ; ; ; = & + X ;.8.8.8.8.8.8.8.8.8.%.%.8.,.8.8.8.8.8.:.8.8.8.8.8.8.",
"%.%.8.8.8.8.8.8.8.8.8.8.8.8.8.8.%.%.8.8.8.8.8.8.8.8.1.8.2.Z = = & & # @ o b 1.8.8.8.8.<.8.:.8.,.%.%.8.1.8.8.8.8.8.8.8.8.8.8.8.8.",
"%.%.8.8.8.8.8.8.8.1.8.8.8.8.8.8.%.%.8.8.8.8.8.8.8.8.=.-.8.3.H M $ % O n <.6.8.8.8.1.8.8.8.8.8.8.%.%.8.8.8.8.8.8.8.8.8.8.8.8.8.8.",
"%.%.8.8.8.8.8.8.8.8.8.8.8.8.8.8.%.%.8.8.8.8.8.8.8.8.8.8.8.8.8.2.&.&.1.4.,.8.8.8.8.8.8.8.8.8.=.8.%.%.8.8.8.8.8.8.8.8.8.8.8.8.8.8.",
"%.%.8.,.8.8.8.8.8.8.8.8.8.8.8.8.%.%.8.8.8.8.8.8.8.8.8.8.8.8.8.8.%.%.8.6.-.8.8.8.8.8.8.8.8.8.1.8.%.%.8.8.8.8.8.8.8.8.8.8.-.8.8.8.",
"%.%.8.:.8.8.8.8.8.8.8.8.8.8.8.8.%.%.8.8.8.8.8.8.8.8.8.8.8.8.8.8.-.%.8.8.8.8.8.8.8.8.1.8.8.8.=.8.%.%.8.8.8.8.8.8.1.8.8.8.8.8.1.8.",
"%.%.8.8.8.8.8.8.8.8.8.8.8.8.8.8.%.%.8.8.8.8.8.8.8.8.8.8.8.8.8.8.%.%.8.8.8.8.8.8.8.8.8.8.8.8.,.8.%.%.8.8.8.8.8.8.1.8.8.1.8.8.8.8.",
"%.%.8.8.8.8.8.8.8.8.8.8.8.8.8.8.%.%.8.8.8.8.8.8.8.8.8.8.8.8.8.8.%.%.8.8.8.8.8.8.8.8.8.8.8.8.8.8.%.%.8.8.8.8.8.8.8.8.8.8.8.8.8.8.",
"%.%.8.8.8.8.8.8.8.8.<.8.8.8.8.8.%.%.8.8.8.8.8.8.8.8.8.8.8.8.,.8.%.%.-.8.8.8.8.8.8.8.8.8.8.8.8.8.%.%.8.8.8.-.8.8.8.8.8.8.8.8.8.8.",
"%.%.%.%.%.8.%.%.%.%.,.%.%.%.%.%.%.%.%.%.%.%.%.%.%.%.%.%.%.%.%.%.%.%.%.%.%.%.%.8.%.%.%.%.%.%.%.%.%.%.%.%.%.%.%.%.,.%.%.%.%.%.%.%.",
"%.%.%.%.%.%.%.%.%.%.%.%.%.%.%.%.%.%.%.%.%.%.%.%.%.%.%.%.  %.%.%.%.%.%.%.%.%.%.%.%.%.%.:.%.%.%.%.%.%.%.%.=.%.%.%.%.%.%.%.%.%.%.%.",
"%.%.8.8.8.8.8.8.1.8.8.8.8.8.8.8.%.%.8.8.-.8.8.8.-.      8.8.8.8.,.%.8.8.8.8.8.8.8.8.8.8.8.8.8.8.%.%.1.8.8.8.8.8.8.8.8.8.8.8.8.8.",
"8.%.8.8.-.8.8.8.8.8.8.8.8.8.8.8.%.%.8.,.8.8.8.8.8.8.  8.8.8.8.8.:.%.8.8.-.8.8.8.,.8.8.8.8.8.8.8.%.%.8.8.8.8.8.8.8.8.8.8.8.8.8.8.",
"%.%.8.8.8.8.8.8.8.8.8.8.8.8.8.8.%.%.8.8.8.8.8.8.8.8.8.,.8.8.8.8.%.%.8.8.8.8.8.8.8.8.1.8.8.8.8.8.%.%.8.8.8.8.8.8.8.8.8.8.8.8.8.1.",
"%.%.8.8.8.8.8.8.8.8.8.8.8.8.8.=.%.%.8.8.8.8.8.8.-.8.8.8.8.8.8.8.%.%.8.8.8.8.8.8.8.8.8.8.8.8.8.8.%.%.8.8.8.8.8.8.8.8.8.8.8.8.8.,.",
"%.%.8.8.8.8.8.8.8.-.8.8.8.8.8.8.%.%.8.8.-.=.8.8.8.8.8.8.8.8.8.8.%.%.8.8.8.8.8.8.8.8.8.8.8.8.8.8.%.%.8.8.8.8.8.8.8.8.8.8.8.8.1.8.",
"-.%.8.8.8.8.8.8.8.8.8.8.8.8.1.8.%.%.8.8.8.-.8.8.8.8.8.8.8.8.8.8.%.%.8.8.8.8.8.8.8.8.8.8.8.8.8.-.%.%.8.8.8.8.8.8.8.8.8.8.8.8.:.-.",
"%.%.8.8.8.8.8.8.8.8.8.8.8.8.8.8.%.%.8.8.8.8.1.8.8.8.8.8.8.8.8.8.%.%.8.8.8.8.8.8.8.8.8.8.1.8.8.8.%.%.8.8.8.8.8.8.8.8.8.8.8.8.8.8.",
"%.%.8.8.8.8.8.8.8.8.8.8.8.8.8.8.%.%.8.8.8.8.8.8.8.8.=.8.1.8.8.8.%.%.8.8.8.8.8.8.8.8.=.8.8.8.8.8.%.%.8.8.8.8.8.8.8.8.8.8.8.8.8.8.",
",.%.8.8.-.8.8.8.8.8.8.8.8.8.8.8.%.%.8.8.8.1.8.8.8.8.8.8.8.8.8.8.%.%.8.8.8.8.8.8.8.8.8.:.8.8.8.-.%.%.8.8.8.8.8.8.8.8.8.8.8.8.8.8.",
"%.%.8.8.-.8.8.8.8.8.8.8.8.8.8.8.%.%.8.8.8.8.8.8.8.8.8.8.8.8.8.8.%.%.8.8.8.8.8.8.8.8.8.8.8.8.8.8.%.%.8.8.8.8.8.8.8.8.8.8.8.8.8.8.",
"%.%.8.8.8.8.8.8.8.8.8.8.8.8.8.8.%.%.8.8.:.8.8.8.8.8.8.,.8.8.8.8.%.%.8.8.8.8.8.8.8.8.8.8.8.8.8.8.%.%.8.8.8.8.8.8.8.8.8.8.8.8.8.8.",
"%.%.8.8.8.8.8.8.8.8.8.8.8.8.8.8.%.%.8.8.8.8.8.8.8.8.8.8.8.8.8.8.%.1.8.8.8.8.8.8.8.8.8.8.8.8.8.8.%.%.8.8.8.8.8.8.8.8.8.8.8.8.8.8.",
"%.,.8.8.8.8.8.8.8.8.8.8.8.8.8.8.%.%.8.8.,.8.8.8.8.8.8.8.8.8.8.8.%.%.8.8.8.8.8.8.8.8.8.8.8.8.8.8.%.%.=.8.8.8.8.8.8.8.8.8.8.8.8.8.",
"%.,.8.8.8.8.8.8.1.8.8.8.8.8.8.8.%.%.-.8.8.8.8.8.8.8.8.8.8.8.8.8.%.%.8.8.8.8.8.8.1.8.8.8.8.8.8.8.%.%.8.8.8.8.8.8.8.8.8.8.8.8.8.8."
};
