/* XPM */
static char *out[] = {
/* columns rows colors chars-per-pixel */
"64 64 245 2 ",
"   c None",
".  c #040304",
"X  c #0C0303",
"o  c #060609",
"O  c #0C0A0C",
"+  c #090809",
"@  c #130D0C",
"#  c #1B0E0B",
"$  c #160502",
"%  c #17110F",
"&  c #140D12",
"*  c #1C1413",
"=  c #1B1519",
"-  c #1C1A1B",
";  c #171716",
":  c #27110D",
">  c #241412",
",  c #241A14",
"<  c #241C1B",
"1  c #2D1C1A",
"2  c #2B1A14",
"3  c #341E1B",
"4  c #391A17",
"5  c #1C261D",
"6  c #2A221D",
"7  c #24261E",
"8  c #33231D",
"9  c #39281C",
"0  c #3E361B",
"q  c #1C1D21",
"w  c #241F23",
"e  c #242423",
"r  c #242A23",
"t  c #2B2828",
"y  c #3B2422",
"u  c #352B23",
"i  c #332C2C",
"p  c #392927",
"a  c #2C3C2C",
"s  c #2A3428",
"d  c #373528",
"f  c #382E33",
"g  c #333336",
"h  c #3A3233",
"j  c #383837",
"k  c #2E2C33",
"l  c #49140D",
"z  c #49281E",
"x  c #45381B",
"c  c #59381A",
"v  c #5D2E1C",
"b  c #69341A",
"n  c #692E16",
"m  c #432A24",
"M  c #442D2B",
"N  c #492A26",
"B  c #522D2A",
"V  c #532C24",
"C  c #43332B",
"Z  c #4C332B",
"A  c #463627",
"S  c #563629",
"D  c #433332",
"F  c #4C3A34",
"G  c #453A38",
"H  c #563733",
"J  c #6A3A28",
"K  c #653C39",
"L  c #683B36",
"P  c #72342F",
"I  c #7A0809",
"U  c #394433",
"Y  c #30402B",
"T  c #464B05",
"R  c #4C5709",
"E  c #4C561B",
"W  c #535C1C",
"Q  c #525E0C",
"!  c #7E4F1D",
"~  c #55640B",
"^  c #5A6B18",
"/  c #4C6009",
"(  c #594528",
")  c #474539",
"_  c #594339",
"`  c #4F5424",
"'  c #74552A",
"]  c #674537",
"[  c #74453A",
"{  c #7A4837",
"}  c #68513B",
"|  c #785738",
" . c #6E4A26",
".. c #586627",
"X. c #5E6B36",
"o. c #5F7331",
"O. c #7F643B",
"+. c #667632",
"@. c #383845",
"#. c #37354A",
"$. c #483D42",
"%. c #563E41",
"&. c #484549",
"*. c #514B4B",
"=. c #564845",
"-. c #58534A",
";. c #555453",
":. c #595756",
">. c #4D4E53",
",. c #694A45",
"<. c #724A47",
"1. c #62544C",
"2. c #6B564B",
"3. c #795447",
"4. c #675955",
"5. c #7B5C53",
"6. c #775A56",
"7. c #674F56",
"8. c #6C635D",
"9. c #77665B",
"0. c #7E715A",
"q. c #77674A",
"w. c #6D5F66",
"e. c #6A686B",
"r. c #786964",
"t. c #777575",
"y. c #707075",
"u. c #555962",
"i. c #960B0D",
"p. c #AD1F1D",
"a. c #D51110",
"s. c #C61E20",
"d. c #F63A33",
"f. c #E80405",
"g. c #8B4B16",
"h. c #A35317",
"j. c #854C2D",
"k. c #824B3A",
"l. c #84533A",
"z. c #895538",
"x. c #935133",
"c. c #866338",
"v. c #986D3A",
"b. c #A4673F",
"n. c #AC7831",
"m. c #A56B1A",
"M. c #EF4A3C",
"N. c #845443",
"B. c #8E5F43",
"V. c #86594A",
"C. c #935E48",
"Z. c #845A52",
"A. c #8C6648",
"S. c #95634B",
"D. c #9C6549",
"F. c #9A7647",
"G. c #87655B",
"H. c #936253",
"J. c #976A58",
"K. c #8B7254",
"L. c #987757",
"P. c #A66B4D",
"I. c #A56A54",
"U. c #AC735B",
"Y. c #A67357",
"T. c #B67657",
"R. c #AE754B",
"E. c #896860",
"W. c #8B7869",
"Q. c #997467",
"!. c #857D77",
"~. c #987C74",
"^. c #946B65",
"/. c #A77967",
"(. c #B47B65",
"). c #B64C49",
"_. c #FC534D",
"`. c #6F8142",
"'. c #B98534",
"]. c #BF825B",
"[. c #AB8857",
"{. c #998368",
"}. c #978977",
"|. c #8F836A",
" X c #A88C6D",
".X c #BE846A",
"XX c #B88466",
"oX c #A78878",
"OX c #B28473",
"+X c #B78A77",
"@X c #B7967C",
"#X c #B39672",
"$X c #C1894F",
"%X c #C18768",
"&X c #C38D76",
"*X c #CB937B",
"=X c #C49679",
"-X c #D19A7C",
";X c #C6A262",
":X c #758192",
">X c #988788",
",X c #9C9088",
"<X c #99989A",
"1X c #AA8E89",
"2X c #A79689",
"3X c #B9988A",
"4X c #A89995",
"5X c #B49E98",
"6X c #BAA386",
"7X c #BAA797",
"8X c #B2A799",
"9X c #B6AFAE",
"0X c #CD9E8B",
"qX c #C69782",
"wX c #D29B84",
"eX c #C19E91",
"rX c #D6A28E",
"tX c #C5A997",
"yX c #D4AC97",
"uX c #D3AB8E",
"iX c #E5B59C",
"pX c #DABAA5",
"aX c #D4BAB2",
"sX c #C9B6AB",
"dX c #E6BBA5",
"fX c #E3BBB1",
"gX c #F0BEA0",
"hX c #F19386",
"jX c #D3C2B7",
"kX c #E8C1AD",
"lX c #E9C6B8",
"zX c #F2CCBB",
"xX c #F1C5B4",
"cX c #F4D1BF",
"vX c #F2C6A9",
"bX c #E8D4C6",
"nX c #F6D8C9",
"mX c #F4DDD1",
"MX c #E1DAD5",
"NX c #FAE7DA",
"BX c #F2E2D7",
"VX c #F9EEE3",
"CX c #F9F1E9",
"ZX c #E9E3E0",
"AX c #D8D5CD",
/* pixels */
"                                                                                                                                ",
"                                                                                                                                ",
"                                                                                                                                ",
"                                                                                                                                ",
"                                                                                                                                ",
"                                                                                                                                ",
"                                                                                                                                ",
"                                                                                                                                ",
"                                                                                                                                ",
"                    ~ ~ ^ ^ Q                                                                                                   ",
"                  ^ ^ +.o.....R                                                                                                 ",
"              / / ^ +.+.`.X.^ ~ T                                                                                               ",
"            ~ / Q W ..X.X.+.X...R                                                                                               ",
"              x E W ` ` ......E R T                                                                                             ",
"              3 < 8 B d ` W W R T T                                                                                             ",
"              & : v n > o X * 9 x                                                                                               ",
"            iX2.t m m m 4 2 d ) H                 {.:.;.                                                                        ",
"          t t < p Z M C p 8 d ) A Z              X1.&.j g 1.                                                                    ",
"          <     M F A u u r d U U d           [.0.;.>.g h p $.W.                                                                ",
"                  u t < 1 - r e r h       n.$XF.;.:.:.G f i k G j                                                               ",
"                6 < < * O o 5 a u 6   ! m.'.v.-.-.=.;.h f e & g i >.e.                                                          ",
"                2 ; ; 5 r ; 5 a 7 6 6 g.F.L. Xt.;.*.D f &.&.t )       *.                                                        ",
"              1 , 7 r s Y a r 5 ; 7 d A t.9XsX}.r.U D ) F _ j       g $.!.                                                      ",
"              : 7 r Y a a a s r r d 1.8.:X9X7X7X|.8.G _ ) ' j       $.e.0.                                                      ",
"              # , 6 s Y U U Y U ) 1.q.<X:X8X8X#X8X2X8.) j U       #.y.|.                                                        ",
"              @ * 7 r Y U U } -.K.+Xr.y.y.>X#X|.2XMXAX`.*.      #.>.8.}.                                                        ",
"              # , 6 0 U ) =.2.5XbXaXe.e.>.K.oX}.sXMXZXZX<Xu.  @.#.*.W.                                                          ",
"              # > 8 A ) _ -.5XmXnX1Xy.g q.4X|.{.bXZXCXCXCX9X;.>.&.r.                                                            ",
"              # 8 z C H G.4XlXzXtXt.&.;.,XS #XjXbXmXNXVXBXCXAX) 4.}                                                             ",
"              4 N H L J.kXcXdXtXe.g u.;.O.@X7X8XaXmXnXNXVXNXbXW.q.                                                              ",
"              N V [ /.fXxXiXyX9.>.e.t F.8.{. XkXzXnXnXnXmXmX7XA.    4.                                                          ",
"              L N.L.=XdXiX+X9.u.k j }.u } #XyXkXvXxXzXzXzX#X{.(     >X9X>X                                                      ",
"              C./.(.yXiX@X-.>.7 4.-.( L. XoXpXkXiXiXyX-XF.c.3.7.=.D 7.>Xt.r.7.                                                  ",
"              H./.&X0X3X_ k i >.u v.K.W.6XiXpXtX;X[.v.v.' O.8X%.=.f >.$.4X<Xr.4.                                                ",
"              J.1XqXW.>.; &.t x L.d z.#X=XL.[.[.n.n.n.m.c.7X7.D H $.f f F 1Xt.1.6.                                              ",
"              /.OX7.>.e #.q 2.A c {. X .z.R.;X;X'.'.[.A.~.i t f r.$.q k j 7.5X!.>.E.                                            ",
"              W.8.@.q @.6 q.p c.W. .v.h.h.b.=XXX|.3XyX5X= = O - D g q w t F Z.8X!.f y                                           ",
"              k g t g r } c | ( ' b g.h.j.|  X-X+X5.f ; O O o p oX7.= q p G 7.>X4X<XF z                                         ",
"              ; s i u ( ( A c ' n g.j.b.U.Y.U.+XoXw o o o w E.+XqX6.= = w F eXaXaX>X4X,.S B                                     ",
"                x  .( x S c c b ! C.I.(..XXXJ.d & o . . = E.0XwX0X*.w = N eXfXfXaX6.7.Q.H B m                                   ",
"                  ( ( ( S b | B.B.S.S.U.Y.J.F + o . * Z J.&X*X0X6.q = 1.pXzXzXdX/.H B [ <.H B B y                               ",
"                    } ( 3.L.J.P.D.l.V.3.) 6 X . . % F Y.%X&X&X9.& o & ~.fXfXfX1X,.H K K P L %.D y 2 *                           ",
"                      J.P.T.+XI.C.| Z @ . . O < d C.Y.(.U.(.,.w . o H OX3X1XoX7.L L L K K [ <.<._ u @ @                         ",
"                        P.T..XwX(.<.H 2 , , 8 ] J.P.D.P.U.S.y * . o < 3 3 m H N.N.k.[ Z.N.N.<.<.] B F = @ +                     ",
"                          R.%X-XwX*XY.A.z.j.j.z.C.z.B.N.( z 4 : $ + 2 ( { { { Z.<.Z.H.H.V.^.Q.^.E.<.N B H i +                   ",
"                            T.(.&XwXqX=X/.B.{ J z.z.J V ] z l 4 3 S 3.3.k.k.N.V.Z.H.H.^.^./.I.I.C.Z.<.K K N M <                 ",
"                              $X$X%X-XwX+X(.Y.C.z.| j.{ [ J b S ] ] ] <.Z.Z.Z.Z.H.^.H.H.H.H.I.H.N.{ H V B M y N y               ",
"                              T.T.%X=X*X*X&X%XJ.D.P.S.S.B.k.P J J v B M M M H Z.6.6.<.H H H L L [ L V 4 3 : > : :               ",
"                              =XD.P.T..X%X&X&Xl.l.z.l.N.{ J J n                             7.~./.^.<.p = + o @ # 4             ",
"                              OXA.OXXXP.%XwXyX+X  b b       l                                       y w & * > @ ; 1 H           ",
"                            0XU.D.vXgXiXgXvXdXgX            i.                                          & ; = 8 M D F           ",
"                          hXI.x.                  $ X . . . i.i.X X .                                       < = < D             ",
"                        _._.                          X @ # i.i.X .                                                             ",
"                      _.d.                              p.).s.f.                                                                ",
"                  M.d.a.a.                              p.a.a.                                                                  ",
"                                                                                                                                ",
"                                                                                                                                ",
"                                                                                                                                ",
"                                                                                                                                ",
"                                                                                                                                ",
"                                                                                                                                ",
"                                                                                                                                ",
"                                                                                                                                ",
"                                                                                                                                "
};
