/* XPM */
static char *out[] = {
/* columns rows colors chars-per-pixel */
"64 64 242 2 ",
"   c #020204",
".  c #060509",
"X  c #0B0A0C",
"o  c #150B0B",
"O  c #0E110F",
"+  c #1C110C",
"@  c #0D0D14",
"#  c #140E14",
"$  c #191314",
"%  c #1D1A1D",
"&  c #21150E",
"*  c #291816",
"=  c #251B1C",
"-  c #361C19",
";  c #2A251B",
":  c #35241C",
">  c #1B1921",
",  c #241E22",
"<  c #1D2924",
"1  c #2C2323",
"2  c #292928",
"3  c #3A2622",
"4  c #312A2C",
"5  c #3B2D29",
"6  c #2B332B",
"7  c #36372B",
"8  c #3C322C",
"9  c #2F2E30",
"0  c #362C33",
"q  c #2D3B30",
"w  c #393735",
"e  c #48351C",
"r  c #6B3311",
"t  c #462C29",
"y  c #532B29",
"u  c #49362D",
"i  c #56362B",
"p  c #412C30",
"a  c #483A35",
"s  c #443C3D",
"d  c #553A34",
"f  c #563937",
"g  c #663A2A",
"h  c #713E2A",
"j  c #663C38",
"k  c #394738",
"l  c #4D540C",
"z  c #525E19",
"x  c #4F630E",
"c  c #566514",
"v  c #63711F",
"b  c #4F562C",
"n  c #48483B",
"m  c #55443B",
"M  c #5A4638",
"N  c #6A4629",
"B  c #77482B",
"V  c #63423B",
"C  c #6B453A",
"Z  c #764738",
"A  c #65523B",
"S  c #785535",
"D  c #5C692B",
"F  c #5A6237",
"G  c #646D29",
"H  c #667625",
"J  c #626A3B",
"K  c #6C7939",
"L  c #3B3843",
"P  c #483D40",
"I  c #3D5041",
"U  c #4B4544",
"Y  c #484647",
"T  c #4B4B4C",
"R  c #524542",
"E  c #5A4946",
"W  c #544D4C",
"Q  c #51534B",
"!  c #56564B",
"~  c #4A4853",
"^  c #555353",
"/  c #5A5454",
"(  c #54535B",
")  c #5A5A5A",
"_  c #694946",
"`  c #764B46",
"'  c #695447",
"]  c #79574A",
"[  c #614E51",
"{  c #615A54",
"}  c #695857",
"|  c #785A54",
" . c #706D4F",
".. c #6C7948",
"X. c #6A6359",
"o. c #766655",
"O. c #575863",
"+. c #635C61",
"@. c #5E6068",
"#. c #696665",
"$. c #6C6A6A",
"%. c #796564",
"&. c #716C6C",
"*. c #7A6D6A",
"=. c #7C736C",
"-. c #6A6A75",
";. c #777777",
":. c #7B7574",
">. c #B6151A",
",. c #8C2F2C",
"<. c #B4272A",
"1. c #DC1A1A",
"2. c #ED1E1F",
"3. c #8D4D16",
"4. c #A65019",
"5. c #845130",
"6. c #86553A",
"7. c #95593A",
"8. c #8A6335",
"9. c #B0782E",
"0. c #CD3D41",
"q. c #864E44",
"w. c #855647",
"e. c #8A5B42",
"r. c #8C5C4A",
"t. c #8A5B54",
"y. c #8D6348",
"u. c #98654C",
"i. c #9A7242",
"p. c #8A6758",
"a. c #956854",
"s. c #93635A",
"d. c #9D6D5B",
"f. c #8A7659",
"g. c #987658",
"h. c #A4694B",
"j. c #A86B53",
"k. c #A77658",
"l. c #B17955",
"z. c #8D6762",
"x. c #956B63",
"c. c #8A766C",
"v. c #977667",
"b. c #857875",
"n. c #847D7C",
"m. c #987A75",
"M. c #A87765",
"N. c #AB7D6B",
"B. c #B47C64",
"V. c #B1726E",
"C. c #C85F5D",
"Z. c #FA595A",
"A. c #CF7976",
"S. c #EF7774",
"D. c #728449",
"F. c #7B8659",
"G. c #C18229",
"H. c #B1854D",
"J. c #98826B",
"K. c #87847C",
"L. c #998679",
"P. c #A58B69",
"I. c #B98768",
"U. c #B69368",
"Y. c #A68676",
"T. c #B78875",
"R. c #B19374",
"E. c #C8964D",
"W. c #C1845E",
"Q. c #C3896C",
"!. c #C28B74",
"~. c #C48F7A",
"^. c #C69379",
"/. c #D1987E",
"(. c #CEAE76",
"). c #7D7F80",
"_. c #8B7F80",
"`. c #898684",
"'. c #8E8E8E",
"]. c #968A86",
"[. c #99928B",
"{. c #8D8E91",
"}. c #959595",
"|. c #949597",
" X c #9A9695",
".X c #9B9995",
"XX c #9C9B9B",
"oX c #A78C84",
"OX c #B38C84",
"+X c #AC9283",
"@X c #A59589",
"#X c #BA9988",
"$X c #A79895",
"%X c #B99793",
"&X c #ABA18D",
"*X c #B8A58C",
"=X c #A5A29B",
"-X c #BAAB98",
";X c #868FA1",
":X c #A4A3A3",
">X c #ABA4A3",
",X c #ABAAA7",
"<X c #ACACAC",
"1X c #B7A9A7",
"2X c #B3ADAC",
"3X c #B7B1AE",
"4X c #ABAFB7",
"5X c #B0B0B0",
"6X c #BAB3B1",
"7X c #C98D8B",
"8X c #CA9986",
"9X c #D29C85",
"0X c #C99897",
"qX c #C9A68C",
"wX c #D7A28C",
"eX c #C5A898",
"rX c #D8A996",
"tX c #C6B299",
"yX c #D3B098",
"uX c #E7BA9F",
"iX c #C7B6AA",
"pX c #CDB1AA",
"aX c #D8B9A8",
"sX c #C4BAB4",
"dX c #E6BBA8",
"fX c #E7BCB2",
"gX c #C9C1B3",
"hX c #D5C8BB",
"jX c #EBC4AC",
"kX c #EBC6B7",
"lX c #F1C8B0",
"zX c #F4CAB8",
"xX c #F6D2BC",
"cX c #C1BFC2",
"vX c #D5CFCB",
"bX c #E9D4CB",
"nX c #F7D7C7",
"mX c #E5E1DB",
"MX c #F9E6D8",
"NX c #FAEDE4",
"BX c #F4F0EE",
"VX c #FEF4EA",
/* pixels */
"'.<X'.'.'.'.'.'.'.XX'.'.'.'.'.'.'.'.'..X'.'.<X'.<X'.'.'.'.'.'.'.'.'.'.'.'.'.'.'.'.'.<X'.'.'.'.,X'.'.'.'.'.'.'.:X{.) '.'.'.'.'.'.",
"'.'.'.'.'.'.'.'.'.'.'.'.'.'.'.'.'.'.XX'.'.'.'.'.{.'.'.'.'.'.'.'.'.'.'.'.'.'.'.'.'.XX'.'.'.'.{.{.'.'.XX'.'.'.'.'.) '.|.'.'.'.'.'.",
"'.'.5X5XXX5X5X5X5X5X5X5X5X5X5X5X'.5X5X5X5X5X5X5X5X5X5X5X5X5X5X5X'.'.5X5X5X5X5X5X5X5X5X5X5X5X5X5X'.'.<X5X5X5X<X5X) 5X5X5X,X5X5X5X",
"'.'.5X5X5X5X5X5X5X5X5X5X5X5X5X5X'.'.5X5X5X5X5X5X5X5X5X5X5X5X5X5X'.'.5X5X5X5X5X5X5X5X5X5X5X5X5X5X'.<X5X5X5XXX5X5X5X) 5X5X5X5X5X5X",
"'.'.5X5X5X:XXXXX5X5X:X5X5X5X5X5X'.'.5X5X5X5X5X5X5X:X5X5X5X5X5X5X'.'.5X5X5X5X5X5X5X5X5X5X5X5X5X<X'.'.5X5X5X5X5X5X:X5X5X5X5X5X5X5X",
"'.'.5X5X5X5X5X) 5X5X<X5X5X5X5X5X'.'.5X5X5X,X5X5X5X5X5X5X5X5X5X:X'.'.5X5X5X5X5X5X5X5X5X5X5X5X5X5X'.'.5X5X5X5X5X5X|.5X5X5X<X5X5X5X",
"'.'.5X) ) 5X) 5X5X5X5X5X<X4X5X5X'.'.5X5X5X4X5X5X5X5X5X5X5X5X5X5X'.'.5X5X5X5X5X5X5X5X5X5X5X5X5XXX'.'.5X5X5X5X5X5X5X5X5X5X5X5X5X,X",
":X'.,X5X5X) ) 5X5X5X5XXX5X,X5X5X'.'.5X5X,X5X5X5X5X5X5X5X5X5X5X5X'.'.5X5X5X|.5X,X5X5X5X5X5X5X5X5X'.'.5X<XXX5X5X5X5X5X5X5X5X5X5X5X",
"'.}.5X5X5X5XXX<X5X5X5X5X,X5X5X5X'.'.5X5X5X5X5X5X5X5X5X5X5X5X5X5X'.'.5X5X5X5X5X5X5X5X5X5X5X:X5X5X{.{.XX|.:XXX5X5X5X5X5X5X5X|.5X5X",
"'.{.5X5X5X5X5X5X5X5X5X5X5X<X5X5X'.'.5X5X<X5X5X5X5X5X5X5X5X5X5X5X'.'.:X5X5X5X5X5X5X5X5X5X5X5X5X5XF.J v v c F.=X5X5X5X5X5X5X5X5X5X",
"'.'.5X5X5X5X5X5X5X5X5X5X5X5X5X5X'.'.5X5X5X5X5X5X5X5X5X5X<X5X5X5X'.'.5X5X5X5X5X,X5X5X5X5X5X5X<X.XD J K D.K H H [.5X5X5X5X5X5X5X5X",
",X'.XX5X5X5X5X5X5X5X5X5X5X5X5X5X'.'.5X5X5X5X5X5X5X5X<X5X5X5X5X5X'.'.5X5X5X5X5X5X5X5X5X5X5XXX<X .x D F.D.J.K v x K.5X5X5X5X5X5X5X",
"'.:X5X5X5X5X5X5X5X5X5X5X:X5X<X5X'.'.5X5X5X5X5X5X5X5X5XXX5X5X5X5X'.'.5X5X5X5X5X5X5X5X5XXX5X5X}.z K D.D.D. .K z x x K.,X5X5X5X5X5X",
"'.'.5X5X5X5X5X5X5X5X5X5X|.5X5X5X'.'.5X5X5X5X5X5X5X5X5X<X.X5X5X:X'.'.5X5X5X5X5X5X5X5X5X5X5X5X .l D J F D D F D b ..5X5X5X:X5X5X5X",
"'.'.5X5X5X5X5X5X5X5X5X5X5X5X5X5X'.'.5X5X5X5X5X5X5X5X5X5X<X5X5X5X'.'.5X5X5X5X5X5X5X5X5X5X5XXXl l l G F F b _ i 1 w ,X5X5X5X5X5X5X",
"<X{.5X5X5X<X5X5X5X5X5X5X5X5X5X5X'.{.5X5X5X5XXX5X5X5X5X:X5X5X5X5X'.'.5X5X5X@X5X5X5X5X5X:X5X:X'.b b ; X . + ,.,.= # |.5X5X5X5X5X5X",
"{.'.'.'.'.{.'.'.'.'.'.'.'.XX'.'.'.'.'.'.'.'.'.'.,X'.'.'.'.'.'.'.'.'.}.'.;.:.+X{.'.'.'.'.'.'.:.M a 3 ; : 3 y m t c.jX}.'.'.'.'.'.",
"'.'.'.'.'.,X'.'.<X'.'.'.'.'.'.'.'.'.'.'.'.'.'.'.'.'.'.'.'.'.`.'.'. Xo.w w Q X.&X'.'.'.'.'.{.X.n n n t t u u a p & u +.XX'.XX X'.",
"'.{.5XXX5X5X5X5X5X5X5X5X5X5X5X5X'.'.5X5X5X5X5X5X5X5X5X5X5X5X5X5X@X/ 8 U L &.) J.*X2X5X5X5X5X{ n n 7 7 7 8 a d [ {.}.;.}.5X5X5X5X",
"'.6X5X5X5X5X5X5X5X5X5X5X5X5X5X5X'.'.5X5X5X5X5X5X5X5X5X5X5X5X,X$.} ^ 0 s Q @.#.) U.E.U.$X2X<XE 6 k 6 4 4 : 2 a |.5X6X5X5X5X5X5X5X",
"'.'.5XXX5X5X5X5X5X5X5X5X5X5X5X5X'.'.5X5X5X5X5X5X5X5X5X5X5XXX;.T ^ 9 9 W w $.{ } ( H.G.9.g.K.; 7 k ; @ % q 1 % ;.5X<X5X5X5X5X5X5X",
"'.'.5X5X5X5X5X5X5X5X5X5X5X5X5X5X'.'.5X5X<X5X5X5X5X5X5X,X#.;.,X:X^ 4 $.W P R { &._.m.J.H.8.i t 7 q q < 2 < ; % u :X4X5X5X5X5X5X5X",
"'.'.5X5X5X5X5X5X5X5X5X5X5X5X5X5X'.'.5X5X5X5X5X5X5X5X1X[.( -.<X5X;.Y { R / 3 k K.gXmXvX{.M u 6 > 6 I I k k 6 2 : &.5X5X5X5X<X5X,X",
"'.'.5X|.5X5X5X5X5X4X:X5X5X5X5X5X'.'.5X5X5X5X<X,X5X5X1X].@X~ `.4X'.#.H.+.:.U :.&XhXiXcX;XK.| 7 q 6 q k I k k ; : s <X5X5X5X5X5X5X",
"'.'.5X.X5X5X5X5X5X5X5X5X5X5X5X5X'.'.5X:X5X5X5X5X5X5X5X=X[..XY XX'.`.$.7 Y =.-XgXtXiXgX;X4X| ' n I I k n k k ; = + :X5X5X5X5X5X5X",
"'.'.,X5X5X5X5X<X5X5X5X5X5X5X,X5X'.'.5X<X5X5X5X5X5X5X5X<X=X].~ ( `.'.:X@.[.bXBX6X-XtX=X|.&.].8Xf.! ! b Q k 7 ; ; + |.5X5X5X5X<X5X",
"'.'.5X5X5X5X5X5X5X5X5X5X5X5X5X5X'.'.5X5X5X5X5X5X5X5X5X5X}.@XX.L O.`.;.5XVXmXmXvX,X-XR.;.{.:.kXMXiXo.W n n k ; * & '.5X5X5X5X5X5X",
"'.'.:X5X5XXX5X5X5X5X5X5X5X5X5X5X'.'.5X5X5X5X5X5X5X5X5X5X5XXX].^ #.$.vXBXMXVXVXvXsX@X-XK.@.|.$XnXnXeXn.M b u : = + '.5X5X5X5X5X5X",
"'.'.5X5X5X5X5X5X5X5X5X5X5X5X5X5X'.'.5X5X5X5X5X5X5X5X5X5X5X5X].K.$.mXVXMXNXNXMXMXvX+X| -X).( {.pXnXnXsX@X_ u t : & |.5X5X5X5X5X5X",
"'.'.5X5X5X4X5X5X5X5X5X5X5X5X5X5X'.'.5X5X5X5X5X5X5X5X5X5X5X<X.Xm.L.MXVXNXMXnXnXxXtXhXtXa.;.{.Y _.yXjXnXlXR.C f y -  X5X5X5X5X5X5X",
"'.'.5X5X=X5X5X5X5X5X5X5X5X5X5X5X'.{.5X5X5X5X5X5X5X5X5X<X>X X<X:XJ.-XmXMXnXxXxXxXkX*X%XL.P.Y |.#.m.rXdXfXkXM.` i y XX5X5X5X5X5X5X",
"'.'.5X5X5X5X5X5X5X) 5XXX5X5X5X5X'.'.5X5X5X5X5X5X5X5X:X$XvX2X5X5X:.P.^.bXnXnXzXlXjXaX*Xo.{ -X( ( ).c.^.dXkX8Xj.w._  X5X5X5X X5X5X",
"'.{.'.'.'.'.'.'.) '.'.'.'.'.'.'.'.'.{.$X{.6X6X{.{.:.b.<XXX*.+.b.K.f.i.g.yXjXuXjXlXhXeX8XP.S K.;.w ;.=.8XlXrXT.N.w..X'.'.'.'.'.:X",
"'.:X'.{.'.'.'.'.) ) ) '.'.'.'.'.'.{.{.{.{.{.{.{.]._.6XpXP P P [ E sXp.8.i.i.H.qXaXlXjXtXv.@XR.u -.! I =.8XwX7XM.y.L.'.'.'.'.'.'.",
"'.'.<X5X5X5X5X5X5X5X5X5X5X5X5X5X'.'.5X5X2X4X5X$X}  X1XP P L U P s b.sXa.9.9.H.H.U.P.P.8XtXf.E *XM ~ -.$ $.Y.9X#XM.$X5X5X5X5X5X5X",
"'.'.5X5X5X5X5X5X5X5X5X5X) 5X5X5X'.'.5X5X5X<X_.:.$X1X%.s 0 , [ ].p 2 / $Xf.9.G.E.(.U.U.a.y.R.R.N o.v.2 -.4 T c.OXv.>X5X5X5X5X5X5X",
"'.'.5X5X5X5X5X5X5X5X5X5X5X) 5X5X'.'.:X5X4X].} 1X1Xm.P 5 , > P W 9 O % @ iXaX0XJ.U.U.H.4.4.g.A Y.g.i J.! ) I O.:.Y.<X5X5X5X5XXX5X",
"'.'.5X5X5X5X5X5X5X5X5X5X5X) 5X5X'.'.5X:X} [ 6X>X$X_.P 0 2 % '.eXa . X # $ &.J.7X8XT.y.7.4.3.B g.] J.S f.n ( L I ~ XX5X5X5X5X5X5X",
"'.{.5X5XXX5X5X5X5X5X5X:X) 5X5X5X2X'.*.j %.1X$XvXbXaXd , 2 , L.qX8Xm.R . . . W eX/.P.B.B.u.7.5.r f.N  .B ] M n Y w :X5X5X5X5X5X5X",
"'.6X5X5X5X5X5X5X5X5X5X<X) 5X5X5X:.f y P oX%.m.bXfXdXaX_ @ % *.wXwX9XN.8         a d.A.Q.!.M.u.6.N N N A e A 8.A XXXX5X5X5X5X5X5X",
"'.'.5X5X5X5X5X5X5X5X5X5X5X5X:X&.d d j t.` y j OXnXzXnXfXm., 9 m.rX9XQ.T.] 3 . X . ' M.l.B.u.a.y.d.e.g N S  .M .X4X5X5X5X5X5X5X5X",
"'.'.5X5X5X5X5X5X5X<X5X5X<Xn.3 3 U _ j ` j _ f %.#XfXfXfXOX# . # oX8X^.A.k.' O .     m } p.y.6.h.j.g.M.a. .f..X5X5X5X5X5X5X5X5X5X",
"'.'.5X5X5X5X5X5X<X5X5X|.T o d } | ` ` ` _ ` j C z.%X-X0X7X] X   4 c.T.l.B.l.j._ E @       M y.7.k.!.B.j.N.:X5X5X5X5X5X5X5X5X5X5X",
"'.'.5X:X<X5X5X5X4X,X#.# s [ j C V ] q.t.s.` q.t.` j d M [ E + . * 3 j.B.k.u.k.d.] M t i u ' ] !.wXT.B.Y.<X5X5X5X5X5X5X5XXX5X5X5X",
"'.'.<X:X5X5X5X5X X0 R _ j y | z.x.M.M.s.x.x.x.x.s.w.Z ] V * X ; - - t h e.u.e.u.7.6.6.7.e.N./././.I.OX2X5X5X5X5X:X5X5X5X5X5X<X5X",
"'.'.5X5X5X5X5X'.a P y _ _ ` t.d.V.M.M.j.s.s.s.r.r.r.q.q.r.w.i : - - f N y C 7.5.B S r.N.8X9XwXQ.W.N.5X5X5X5X5X5X5X5X5X<X5X5X5X5X",
"'.'.5X5X5X5XXXU f t t f y j Z q.s.d.s.s.s.s.s.t.z.z.s.] ] ] | _ g g h Z 6.5.S e.u.N.I.~.9X9XQ.W.W.].5X5X5X5X5X5X5X5X5X5X5X5X5X5X",
"'.'.5X5X5X2X<X3 * * * - 3 i ` ] ] | } | | c.oX X[.| #.#.*.n.` Z h h q.r.u.u.j.h.j.T.!.~./.^.Q.I.B.'.5X5X5XXX5X5X5X5X5X5X5X5X5X5X",
"'.'.'.'.'. Xf + % . X , 5 ` x.N.Y.b.$.;.`.{.'.'.'.'.'.'.'.'.'.`.` h Z S 6.e.6.6.6.8X!.Q.Q.I.k.j.#X].'.'.{.{.{.'.:X'.'.'.'.{.'.'.",
"'.'.'.'.].V 5 % o * = $ 1 E _.{.'.'.{.'.{.'.'.'.'.'.'.'.) '.'.'.%.V `.b.b.%.c.b.-XdX9XQ.h.~.#Xy.T.$X'.'.$X{.'.'.'.'.'.'.'.'.'.'.",
"'.'.5X5X<XK.E t 8 ; 2 #. X2X4X<X'.{.5X5XXX5X5X5XXX) ) ) <X5X5X5Xm.t.2X5X5X5X5X2XdXdXlXlXuXlXxXN.M.rX2X5X5X5X5X5X5X5X5X5X5X5X5X5X",
"6X'.5X5XXX:X*.R 0 &.XX5X5X5X5X4X'.'.5X:X5X5X5X5X5X<X) <X{.^ T ^ ,.<.T ( T / $.,X:X2X3X1X1XiX1X>Xs.B.rX3X5X5X5X5X5X5X5X5X5X5X5X5X",
"{.'.5X5X5X5X5X,X,X5X5X5X5X5X5X5X'.'.5X5X5X5X5X5X5X5X5X,X5XXX;.{ <.>.+ 3 &.{.,X5X2X5X>X5X5X5X5X5X'.].S.S.1X4X5X5X5X5X5X5X5X5X5X,X",
"'.{.5X5X5X5X5X5X5X5X5X5X5X5X6X|.'.'.5X5X5X5X5X5XXX5X5X5X5X5X5X,X2.0.C.V.5X5X5X5X5X5X5X5X5X5X5X5X'.].2XA.S.pX5X6X5X5X5X5X5X5X5X:X",
"'.'.5X5X5X5X5X5X5XXX5X5X5X5X4X5X'.'.5X5XXXXX5X5X5X5X5X5X5X5X5X5XC.1.1.C.2X5X5X5X5X5X5X5X5X5X5X5X'.].7XA.1.Z.7X0X2X5X5X5X5X5X<X5X",
"XX'.5X5X5X5X5X5X5X5X5X5X5X5X<X5X'.'.5X5X4X X5X5X5X5X5X5X5X5X5X5X_.V.%X%X2X5X5X5X5X5X5X5X5X5X5XXX'.].%X4X:X7X0X0X3X5X5X5X5X5XXXXX",
"'.'.5X5X5X5X5X5X5X5X5X5X5X5X5X5X'.'.5X5X5X5X,X5X5X5X5X5X5X5X5X5X;X{.2X5X5X5X5X5X5X5X5X5X<X6X5X5X'.'.5X5X5X5X5X5X5X5X5X5X5X5X5X5X",
"'.{.5X5X5X5X5X5X5X5X5X5X5X5X5X5X'.'.5X5X5X5X5X5X5X5X|.5X<X5X5X5X{.{.4X2X5X5X5X5X5X5X|.5X5X5X5X5X'.'.5X5X5X5X5X5X5X5X5X5X5X5X5X5X",
":X{.5X5XXX5X5X5X5X5X5X5X5X5X5X5X'.'.5X5X5X<X5X5X5X5X5X5X5X5X5X5X{.'.2X4X5X5X5X5X5X5X5X:X5X5X5X|.'.'.5X5X5X5X5X5X5X2X5X5X5X5X5X5X",
"'.{.5X5XXX5X5X5X5X5X5X5X5X5X5X5X'.'.5X5X5X5X5X5X5X5X5X5X5X5X5X5X{.{.5X6X5X5X5X5X5X5X5X5X5X5X5X5X'.'.5X5X5X5X5X5X5X4X5X5X5X5X5X5X",
"'.'.5X5X5X5X5X5X5X5X5X5X5X5X5X5X'.'.5X5X:X5X5X5X5X5X5X:X5X5X5X5X'.{.5X5X5X5X5X5X5X5X5X5X5X5X5X5X'.'.5X5X5X5X5X5X5X5X5X5X5X5X5X5X",
"'.'.5X5X5X5X5X5X5X5X5X5X5X5X5X5X'.'.5X5X5X5X5X5X5X5X5X5X5X5X5X5X'.,X5X2X5X5X5X5X5X5X5X5X5X5X5X5X'.'.5X5X5X5X5X5X5X5X5X5X5X5X5X5X",
"'.:X5X5X5X5X5X5X5X5X5X5X5X5X5X5X'.'.5X5X:X5X5X5X5X5X5X5X5X5X5X5X'.'.5X5X5X5X5X5X5X5X5X5X5X5X5X5X'.'. X5X5X5X5X5X5X5X5X5X5X5X5X5X",
"'.:X5X5X5X5X5X5X,X5X5X5X5X5X5X5X{.{. X5X5X5X5X5X5X5X5X5X5X5X5X5X'.'.5X5X5X5X5X5X,X5X5X5X5X5X5X5X'.{.5X5X5X5X5X5X5X5X5X5X5X5X5X5X"
};
