/* XPM */
static char *out[] = {
/* columns rows colors chars-per-pixel */
"64 64 224 2 ",
"   c #040304",
".  c #0C0402",
"X  c #060609",
"o  c #0B090B",
"O  c #170D0A",
"+  c #16120F",
"@  c #140E12",
"#  c #171715",
"$  c #1C1614",
"%  c #1B1519",
"&  c #26110C",
"*  c #271914",
"=  c #241C1A",
"-  c #361C19",
";  c #1C261D",
":  c #27241D",
">  c #33241C",
",  c #1C1D21",
"<  c #241F23",
"1  c #242422",
"2  c #242923",
"3  c #2A2927",
"4  c #372926",
"5  c #2B392B",
"6  c #363427",
"7  c #373528",
"8  c #2D2C32",
"9  c #392E34",
"0  c #363535",
"q  c #49140E",
"w  c #50331B",
"e  c #682E16",
"r  c #6A341A",
"t  c #462B28",
"y  c #532D24",
"u  c #532D2A",
"i  c #483529",
"p  c #563629",
"a  c #483834",
"s  c #563734",
"d  c #563834",
"f  c #693A28",
"g  c #71342F",
"h  c #683B36",
"j  c #653C3A",
"k  c #31402B",
"l  c #394433",
"z  c #4B540B",
"x  c #535C1D",
"c  c #7E4E1D",
"v  c #51640C",
"b  c #596B17",
"n  c #594628",
"m  c #4E5424",
"M  c #474539",
"N  c #484439",
"B  c #594338",
"V  c #74532E",
"C  c #674637",
"Z  c #774739",
"A  c #67513A",
"S  c #586628",
"D  c #497E30",
"F  c #567332",
"G  c #6E6F35",
"H  c #373648",
"J  c #483D43",
"K  c #563F41",
"L  c #474548",
"P  c #534948",
"I  c #57534A",
"U  c #4D4E53",
"Y  c #565553",
"T  c #724A48",
"R  c #65544C",
"E  c #7A5446",
"W  c #664F55",
"Q  c #685250",
"!  c #775A55",
"~  c #6C635C",
"^  c #786954",
"/  c #555962",
"(  c #6A686B",
")  c #786964",
"_  c #706F74",
"`  c #757376",
"'  c #960B0E",
"]  c #AD1F1D",
"[  c #D4110F",
"{  c #8A4B16",
"}  c #A35318",
"|  c #A56A1A",
" . c #854C2E",
".. c #864C39",
"X. c #855439",
"o. c #885538",
"O. c #866338",
"+. c #986D3A",
"@. c #AC7731",
"#. c #F04A3C",
"$. c #875844",
"%. c #925E47",
"&. c #855A53",
"*. c #B54C49",
"=. c #99644B",
"-. c #916F4B",
";. c #89675E",
":. c #936253",
">. c #976A57",
",. c #987756",
"<. c #A66A4A",
"1. c #AF764A",
"2. c #A46A54",
"3. c #A97358",
"4. c #B77658",
"5. c #946B65",
"6. c #8B7869",
"7. c #927A72",
"8. c #A77A67",
"9. c #B47C65",
"0. c #FD534C",
"q. c #59881B",
"w. c #53921F",
"e. c #66881B",
"r. c #68951E",
"t. c #77981C",
"y. c #478626",
"u. c #478C24",
"i. c #4A8D24",
"p. c #47832B",
"a. c #4A842D",
"s. c #478928",
"d. c #4B8B2B",
"f. c #518C2E",
"g. c #479024",
"h. c #4E9424",
"j. c #4E9825",
"k. c #4E9329",
"l. c #4F9928",
"z. c #519524",
"x. c #539C26",
"c. c #599F25",
"v. c #52932B",
"b. c #529B28",
"n. c #599B29",
"m. c #4E8532",
"M. c #4E8A32",
"N. c #4E873A",
"B. c #528C35",
"V. c #548938",
"C. c #538C3B",
"Z. c #4F9130",
"A. c #549132",
"S. c #5C9335",
"D. c #5B9935",
"F. c #56903B",
"G. c #5B933A",
"H. c #719D2A",
"J. c #649837",
"K. c #56A324",
"L. c #59A425",
"P. c #56A824",
"I. c #5DAA26",
"U. c #56A12A",
"Y. c #5BAB28",
"T. c #5FB226",
"R. c #62AB26",
"E. c #6E8043",
"W. c #8E9618",
"Q. c #8EA41E",
"!. c #AAA719",
"~. c #B98434",
"^. c #8EB123",
"/. c #9AB321",
"(. c #C8B819",
"). c #D5BE19",
"_. c #D6C41C",
"`. c #E6C919",
"'. c #F9D51B",
"]. c #D5C921",
"[. c #FDE024",
"{. c #AA8858",
"}. c #8F8369",
"|. c #988368",
" X c #968978",
".X c #A98C6E",
"XX c #BA8467",
"oX c #A78777",
"OX c #B68876",
"+X c #B49774",
"@X c #C18950",
"#X c #C28769",
"$X c #C48E76",
"%X c #C6957A",
"&X c #D19A7C",
"*X c #C6A262",
"=X c #758092",
"-X c #978789",
";X c #9A9797",
":X c #AA8E8A",
">X c #AD988F",
",X c #B39F98",
"<X c #BBA387",
"1X c #B6A798",
"2X c #B7AFAD",
"3X c #CA9C88",
"4X c #D29C84",
"5X c #C39E92",
"6X c #F29488",
"7X c #C4A996",
"8X c #D5AC98",
"9X c #E5B69C",
"0X c #D3B9A6",
"qX c #D5BAB3",
"wX c #EABDA3",
"eX c #E3BBB1",
"rX c #D4C3B9",
"tX c #ECC5AE",
"yX c #F1CAB9",
"uX c #D8D5CC",
"iX c #EDD7CA",
"pX c #F4DED1",
"aX c #F3E5DB",
"sX c #F6EEE6",
/* pixels */
"z.z.x.b.n.x.z.z.x.z.b.L.h.z.z.z.h.L.b.h.x.h.y.z.n.h.h.x.h.z.h.h.i.z.z.z.c.x.h.c.L.h.z.L.z.z.U.h.h.L.c.h.h.j.x.K.h.j.x.x.h.h.j.h.",
"z.z.K.x.z.K.x.z.U.z.z.L.x.x.x.x.x.z.b.x.h.c.x.h.K.c.z.z.j.z.K.b.b.z.x.K.b.x.l.v.L.x.v.L.c.b.n.U.x.U.L.K.c.K.K.x.Y.h.L.I.w.K.K.x.",
"x.L.x.x.K.x.z.L.z.j.L.K.x.x.x.x.h.x.b.K.L.c.x.c.w.z.L.h.s.v.v.k.x.L.x.x.L.b.j.L.L.c.L.K.x.L.x.z.L.L.L.K.K.K.U.P.u.j.I.I.P.I.K.j.",
"i.x.z.z.K.j.g.z.j.i.b.L.i.x.x.i.l.b.u.h.x.L.i.c.h.u.h.j.p.B.N.C.m.K.h.i.x.z.k.U.L.z.n.L.k.h.b.h.b.h.L.u.K.u.h.z.i.j.K.w.U.K.w.g.",
"x.z.c.z.i.L.x.i.L.j.z.x.z.y.z.c.z.h.x.x.i.L.x.u.P.P.i.K.v.S.M.C.z.z.L.x.h.U.x.h.R.x.i.L.L.h.b.h.P.n.h.D y.u.Y.c.K.x.c.I.L.w.L.L.",
"x.L.c.x.K.K.x.K.x.z.L.v.J.S.x.z.x.K.x.j.R.c.x.x.K.x.U.b.i.C.J.V.h.L.K.U.K.c.h.L.L.c.L.L.h.x.K.z.x.K.h.M.V.m.l.U.K.x.I.K.I.K.L.x.",
"z.c.h.z.x.x.i.z.x.h.x.D.J.J.z.z.z.x.z.z.c.x.x.b.L.h.h.K.d.B.J.S.p.z.z.h.h.z.h.L.L.z.z.L.h.h.K.z.h.K.h.S.B.M.k.l.x.z.K.x.K.Y.L.x.",
"z.i.L.b.y.x.h.y.c.x.i.L.D.B.z.z.u.i.c.x.h.K.x.d.K.h.i.x.z.h.k.h.g.i.x.h.s.K.z.y.I.L.g.j.h.u.z.L.P.K.z.d.x.v.x.x.K.c.h.Y.L.x.x.h.",
"K.j.L.x.K.w.h.x.x.x.P.K.c.i.z.z.h.x.x.x.K.I.L.R.U.z.K.U.z.x.x.L.x.K.z.z.b.j.x.K.x.x.U.j.x.x.x.K.Y.U.I.Y.Y.R.U.x.U.K.K.j.P.K.U.j.",
"h.h.h.g.x.j.i.x.h.g.v v b b v z.i.x.h.h.K.K.z.c.j.u.x.b.z.h.b.j.h.x.h.g.h.h.h.P.z.z.x.j.h.h.j.z.h.K.z.j.U.U.U.Y.j.x.K.x.j.j.K.h.",
"g.h.x.h.g.x.h.u.K.b b G F S S z g.h.x.j.h.L.z.i.K.x.h.x.h.b.L.c.z.h.b.h.h.x.h.d.L.h.h.x.h.z.j.h.h.x.x.x.n.L.L.x.K.j.j.w.x.x.j.w.",
"j.L.w.x.L.K.K.z v b G F ^ G b v z x.j.P.L.x.x.R.L.x.L.U.z.K.L.c.L.L.x.x.L.x.z.L.w.x.L.L.x.P.x.i.x.I.L.I.I.U.L.L.x.j.U.L.x.P.K.x.",
"z.K.w.z.K.h.v v v x S F F G F S z g.g.w.L.c.z.L.x.x.z.v.b.c.L.n.L.c.l.b.U.x.v.L.x.x.n.j.l.j.x.U.z.K.x.z.I.x.z.K.x.z.x.L.c.x.K.h.",
"z.x.x.z.x.c.z.w m x m m b S S m z z w.g.v.L.z.z.K.j.j.V.p.B.b.B.V.m.d.D.y.M.v.z.M.i.k.d.s.x.j.h.x.U.c.x.L.x.b.h.i.d.z.R.x.x.c.h.",
"h.K.L.x.z.K.x.- * - u 6 m b x z z z x.c.x.L.c.z.L.x.z.B.m.M.B.B.J.J.C.C.C.G.C.B.C.C.C.N.M.l.x.U.P.I.I.P.L.L.z.a.B.a.x.L.K.K.K.w.",
"g.c.w.L.K.c.z.@ & y e $ X . & > w x.x.u.L.x.L.L.I.v.M.B.N.B.F.F.J.J.C.F.G.J.G.G.F.F.C.F.C.h.P.U.h.T.w.L.Y.L.n.B.J.V.K.x.c.Y.K.j.",
"h.x.j.z.g.j.9XR 3 t t t - * 7 M d h.x.h.x.x.z.k.U.|.Y Y k.B.B.v.k.D.z.A.F.F.G.S.S.M.A.b.j.h.U.x.T.L.x.L.j.x.x.A.A.B.h.L.h.x.j.g.",
"h.z.K.x.i.3 3 = 4 i i i 4 > 6 M i i U.z.z.L.x.i..XR L 0 0 R B.d.l.n.h.s.B.F.M.a.b.k.s.h.x.j.j.M.b.x.U.Y.j.K.j.b.z.x.x.U.L.U.j.x.",
"h.z.j.h.c.= x.B.t a i > > 2 7 l l 7 x.z.L.x.h.{.^ Y U 0 0 4 J 6.g.g.z.h.C.C.A.k.l.k.d.h.u.j.j.M.M.k.K.h.K.j.h.j.b.x.x.U.x.x.x.h.",
"z.c.z.i.c.x.x.A.S.6 3 = - % 2 2 2 9 b.h.U.@.@X-.Y Y Y a 9 8 8 a 0 j.z.i.M.C.B.M.d.v.b.U.j.U.c.i.C.h.j.u.U.z.j.K.b.x.U.b.h.g.x.g.",
"h.z.c.L.i.L.z.z.: = = $ o X ; 5 4 : K.c | ~.+.I I P Y 9 9 1 @ 0 8 U ( h.k.M.m.M.k.L.x.U.P.K.x.u.m.h.K.K.u.K.w.h.P.x.h.P.z.h.x.w.",
"z.L.x.L.R.L.n.L.* # # ; 2 # ; 5 : : : { <.,..X` Y U a 9 L L 3 N P.K.l.P m.S.B.C.p.v.b.Y.U.U.j.u.m.h.K.K.I.K.K.K.h.h.P.L.w.P.K.j.",
"h.x.x.z.L.z.u.- * : 2 5 k 5 2 ; # ; 7 i ` 2X0X X) l i M a B 0 V.Z.l.0 J  XF.G.B.D m.B.B.x.h.h.d.m.h.K.z.P.x.h.x.h.h.j.w.h.x.K.i.",
"z.z.b.c.i.P.l.& 2 2 k 5 k 5 5 2 : 6 R ~ =X2X1X1X}.~ a B M V 0 D.Z.d.J ( ^ B.G.D m.A.A.A.M.z.K.s.p.z.K.c.w.I.x.z.K.h.h.L.x.x.K.w.",
"h.L.z.c.K.K.b.O = : 5 5 l l 5 l M Y ^ ;X=X1X1X+X,X>X~ M 0 l d.d.h.H _ }.i.C.G.C.N.M.M.h.K.I.x.i.m.z.I.K.K.L.K.K.j.j.K.L.I.K.I.x.",
"h.L.z.x.x.K.h.O $ : 2 k l l A I -.+X) ` _ -X+X}.;XuXuXJ.P d.m.m.H U ~  Xv.C.S.F.B.B.D f.l.x.L.g.M.L.L.x.K.K.g.U.w.g.x.K.x.c.L.x.",
"h.z.c.x.v.x.z.& * : w l N P R ,XiXqX( ( U -.oX XqXuXaXaX;X/ a.H H U 6.d.m.B.B.M.B.F.B.a.m.v.k.m.m.d.U.j.u.h.g.i.L.w.g.L.z.b.x.x.",
"x.x.L.x.L.L.z.O * > i l B I ,XpXiX:X_ 0 ^ >X}.}.uXaXsXsXsX2XY U L ) a.m.B.V.d.k.d.M.B.M.D p.m.M.B.f.d.g.j.w.h.h.K.j.x.K.L.x.L.n.",
"x.K.z.j.x.j.i.O > t t s ;.>XyXyX7X` P Y -Xn +XrXiXpXpXsXpXsXuXM ~ A M.Z.B.F.y.p.d.p.M.B.B.m.k.v.f.V.M.u.x.x.u.L.h.z.z.j.h.k.x.b.",
"b.z.x.z.h.x.z.- t p h >.wXiX9X7X( 0 / I O.+X1X1XqXpXpXpXsXaXiX6.^ A.F.D.S.S.M.m.d.a.a.l.c.k.k.h.m.f.a.y.g.x.z.z.K.h.h.K.z.h.z.h.",
"K.x.c.x.L.L.z.t y Z 8.eXtX9X8X) U ( 3 -.( |..XwXiXpXiXpXpXpX7X-.i.K.Q M.S.F.m.a.z.v.a.u.b.b.k.h.a.z.x.x.h.L.z.x.j.j.z.L.x.x.P.n.",
"h.L.x.x.c.x.z.h $.,.+XwX9XOX) / 8 0  X> A +X8XtXwXeXyXyXyX+X|.n p.U.-X2X-XC.M.k.v.v.v.x.d.l.z.b.c.h.K.x.c.x.z.K.x.z.L.x.z.x.x.x.",
"u.x.L.z.L.j.h.%.8.9.8X9X+XI U ; Q I n ,..X.X0XtX9X9X8X&X-.-.T W P a W -X` ) W N.y.z.k.g.b.j.k.y.u.h.x.h.c.j.k.b.M.m.N.m.d.v.x.i.",
"z.c.c.x.z.L.x.:.8.$X3X>XB 8 6 U 6 +.-.6.<X9X0X7X*X{.+.+.V V 1XK P 9 U J >X;X) Q v.z.h.l.j.U.l.h.z.z.x.x.z.L.x.z.f.G.J.F.m.z.c.x.",
"z.L.x.z.x.x.z.>.:X3X6.U # L 6 w ,.7  .+X$X,.{.{.@.@.@.| O.1XW a s J 9 9 a :X` R ! a.d.z.U.U.h.h.l.j.x.x.K.L.b.U.M.B.G.F.M.z.L.x.",
"h.c.h.z.h.x.i.8.OXW U 1 H , R i w |..XV o.1.*X*X~.~.{.=.7.6 3 9 ) a , 8 0 W ,X XU ;.B.f.j.b.g.u.h.z.h.i.l.b.h.b.M.C.C.F.B.z.x.i.",
"i.h.K.z.d.c.h.6.~ H % H : ^ 4 O.6.V +.} } <.%XXX}.<X8X,X% % o = a 8 , < 3 a &.1X X9 4 f.M.z.x.i.g.z.U.h.u.U.h.y.i.k.B.f.b.z.h.z.",
"z.x.x.x.L.x.x.8 9 3 0 2 V w V n V r { } ..V .X&XOX! 9 # o o X 4 oXW % , 9 a W -X;X;Xa t x.x.x.h.z.x.K.h.K.b.j.K.x.z.x.K.x.x.x.j.",
"h.x.h.g.K.z.g.# 5 3 4 n n w w V e {  .+.3.3.3.OXoX< X X X < 5.OX3X! % % = a 1XqXqX-X>XT p u x.x.b.b.l.l.U.x.g.x.j.h.x.P.g.h.x.h.",
"g.i.c.x.u.K.h.u.w V m w p n w r { %.2.9.#XXX>.7 @       , ;.3X4X3XL < % u 5XeXeXrX! W 5.d u t D m.a.b.U.i.U.x.y.x.j.s.K.L.b.j.x.",
"K.K.K.P.R.K.L.I.j.n n n p r V =.$.=.=.3.3.>.a o X   + i >.$X%X3X! , % R 9XyXyXeX8.s u Z T s u u 4 M.s.j.L.K.x.L.h.j.L.U.L.L.Y.c.",
"x.x.L.x.K.K.x.K.h.h.A n E ,.>.2.=.X.&.E N : .     + a 3.#X$X$X^ @ X @ 7.eXeXeX:XR p j j g j K a > * $ y.L.h.h.x.g.h.K.R.L.K.K.h.",
"K.w.x.d.s.h.x.h.K.g.h.>.<.4.OX2.=.V i O     o = 6 %.3.9.3.XXT <   X s OX>X:XoXW h h h j j Z T T d 4 O O i.L.k.h.U.j.h.T.U.w.j.x.",
"K.L.x.S.B.i.j.x.K.h.L.R.<.4.XX4X9.T s * * * > C >.<.=.2.3.=.4 +   X = - - t s $.$.Z Z &.$.$.T T C u a # O X h.K.P.U.I.T.T.j.L.K.",
"h.c.z.C.B.S.h.U.K.j.x.L.w.1.#X&X4X%X2.-.o. . .X.=.o.%.$.p w - & O   * n Z ..Z &.T &.:.:.$.5.5.5.5.T t y s 8 . P.L.h.K.K.K.L.I.K.",
"x.x.z.v.S.v.U.j.U.h.x.L.x.z.4.9.$X&X3X%X8.%.Z f o.o.f y C y q - - p E E ....$.$.&.:.:.5.5.8.2.2.%.&.T j j u t = x.h.x.I.x.x.h.z.",
"K.h.P.K.L.K.U.K.L.x.x.U.c.c.U.{.@X#X&X&XOXXX3.%.o.V  .Z Z f r p C C C T &.! &.&.:.5.:.:.:.:.2.:.$.Z s y u t - t 4 x.x.I.K.j.w.P.",
"j.j.j.j.x.U.U.K.x.z.K.x.j.z.U.4.4.#X%X%X%X$XXX>.=.<.=.=.$...g f f y y t t t s &.! ! T s s s h h Z h y - - & * & & z.x.U.P.j.U.j.",
"j.j.w.u.z.x.h.x.x.h.L.U.h.k.h.%X=.<.4.XX#X$X$XX.o.o...$.Z f f e i.x.x.z.U.l.K.U.I.x.l.K.j.b.W 7.8.5.T 4 % X X O O - z.K.z.h.x.h.",
"h.j.w.j.u.c.x.h.K.z.h.h.k.s.u.OX-.XXXX<.#X4X8XOXL.r r h.h.z.q x.x.z.L.x.h.x.h.c.K.h.h.K.d.a.S.A.B.M.4 < @ $ & @ # - d L.x.x.L.x.",
"h.K.K.w.L.x.x.L.h.j.x.s.m.m.3X3.=.tXwX9XwXtXwXwXx.w.K.j.g.L.' n.x.L.x.z.L.h.j.g.L.h.g.U.M.S.J.J.S.S.F.d.@ # % > t 9 a I.x.L.K.x.",
"g.j.K.h.L.h.i.z.h.u.l.M.D 6X2.o.u.x.i.h.z.x.z.L.j.O .   X . ' ' . .   u.x.g.j.j.K.h.j.j.k.G.J.J.J.S.G.V.x.z.= % = a z.R.z.x.x.i.",
"x.z.I.w.g.K.x.i.c.z.w.a.0.0.w.K.b.z.h.z.i.P.x.i.I.x.x.. O O ' ' .   c.z.i.w.h.j.j.h.x.U.d.G.G.D.J.J.F.l.b.U.P.u.L.h.z.I.c.z.c.L.",
"j.L.P.w.K.K.j.x.U.z.c.0.#.w.L.x.l.K.b.z.I.K.c.L.I.x.K.U.] *.[ [ c.L.x.h.U.x.j.u.j.h.h.K.a.G.J.J.H.H.G.k.Y.U.h.P.K.x.Y.I.L.c.P.x.",
"i.w.w.x.K.x.h.b.K.#.#.[ [ x.L.z.i.x.h.z.L.w.x.x.z.d.z.U.] [ [ x.x.U.j.g.U.j.x.x.U.n.x.I.v.D.D.S.E.J.D.M.L.K.z.^./././././.H.R.i.",
"h.h.K.K.i.K.x.y.K.c.i.K.K.h.z.x.i.u.c.x.y.I.w.y.d.u.k.K.c.h.K.I.K.U.w.i.l.L.x.U.U.K.L.Y.d.G.S.S.G.D.D.Z.L.c.r.).(.`.'.`._.!.e.x.",
"P.x.K.U.P.U.U.L.K.x.x.x.w.j.x.j.x.L.L.j.K.K.x.L.K.i.j.P.K.h.L.L.x.x.Y.z.b.L.g.l.j.g.j.j.z.A.A.v.a.A.f.c.L.U.z.e.e.t._.b /._.r.j.",
"x.j.h.v.x.x.U.Y.x.z.x.h.h.h.j.j.h.x.h.h.x.h.i.x.K.j.j.j.h.j.U.z.M.v.k.m.V.v.k.i.P.w.h.x.j.j.x.x.K.n.L.h.c.z.w.Q.].t.b Q.[.].r.h.",
"P.h.h.B.B.A.U.U.K.h.u.c.h.h.x.x.h.h.j.h.g.x.x.u.K.x.w.K.j.j.x.i.S.D.S.J.J.S.f.x.K.K.K.P.x.x.K.j.x.K.K.x.i.b.t._.'.Q.y.(.'._.t.j.",
"P.w.z.C.B.B.x.Y.z.h.K.K.x.K.K.w.x.K.j.j.L.L.x.L.K.z.w.j.j.h.K.i.S.D.J.H.J.G.a.L.K.w.P.P.K.K.K.g.h.K.z.x.L.K.Q.'.`.q.e.t.'._.r.x.",
"h.K.K.A.m.B.z.L.h.z.x.L.w.c.x.j.h.x.h.z.L.K.w.w.x.j.j.j.h.w.T.K.F.D.J.D.S.F.k.L.T.P.w.j.j.j.j.j.h.K.P.x.P.x.t.`.W.W.`.t.!.(.r.z.",
"x.j.z.i.z.z.U.z.x.i.z.K.h.z.x.j.h.j.h.h.w.K.c.z.x.j.j.K.g.j.K.K.B.U.n.z.l.x.b.h.T.j.P.K.j.w.P.h.h.K.L.h.w.j.h.W.!.(.(.!.e.!.r.i.",
"K.L.L.K.j.K.P.K.K.j.x.K.w.j.c.x.w.j.j.h.K.L.c.g.L.x.x.K.x.x.I.I.x.K.K.x.k.x.h.L.T.w.w.P.K.K.K.j.j.P.L.w.j.K.w.h.q.q.w.r.e.q.w.j.",
"h.K.w.K.K.K.K.h.P.h.x.x.x.c.L.h.h.x.j.i.L.x.x.c.K.h.j.P.h.j.K.x.L.Y.P.h.x.P.g.x.K.K.K.T.j.u.P.j.u.K.K.w.x.j.j.h.c.w.x.w.j.w.c.h."
};
