/* XPM */
static char *out[] = {
/* columns rows colors chars-per-pixel */
"64 64 177 2 ",
"   c #1B2534",
".  c #1F2C3C",
"X  c #222E3E",
"o  c #263137",
"O  c #24323F",
"+  c #4D7417",
"@  c #477C2B",
"#  c #487F2D",
"$  c #497E30",
"%  c #222F40",
"&  c #243142",
"*  c #2A3646",
"=  c #29354B",
"-  c #2C394A",
";  c #343D4C",
":  c #3C4757",
">  c #3B4966",
",  c #424E5E",
"<  c #4A5667",
"1  c #4C5769",
"2  c #505C6C",
"3  c #465471",
"4  c #505E7B",
"5  c #58626D",
"6  c #5C6878",
"7  c #B83A6D",
"8  c #9D4474",
"9  c #995179",
"0  c #59881B",
"q  c #53921F",
"w  c #6A8719",
"e  c #63891C",
"r  c #64941E",
"t  c #6D981F",
"y  c #75921A",
"u  c #75971B",
"i  c #7A9F1E",
"p  c #458525",
"a  c #498626",
"s  c #478C24",
"d  c #4A8D24",
"f  c #47832B",
"g  c #4A842D",
"h  c #478928",
"j  c #4B8B2B",
"k  c #518C2E",
"l  c #479024",
"z  c #4E9424",
"x  c #4E9825",
"c  c #4E9329",
"v  c #4F9928",
"b  c #519524",
"n  c #599221",
"m  c #539C26",
"M  c #599F25",
"N  c #52932B",
"B  c #529B28",
"V  c #599C2A",
"C  c #4E8532",
"Z  c #4E8A32",
"A  c #4E873A",
"S  c #508734",
"D  c #528C35",
"F  c #508638",
"G  c #538C3B",
"H  c #598D3A",
"J  c #4F9130",
"K  c #549132",
"L  c #5C9335",
"P  c #569932",
"I  c #5D9935",
"U  c #56903B",
"Y  c #5B933A",
"T  c #5D9939",
"R  c #6D9C21",
"E  c #609636",
"W  c #629A35",
"Q  c #699C37",
"!  c #639639",
"~  c #639939",
"^  c #6B9B38",
"/  c #759D3A",
"(  c #56A324",
")  c #59A425",
"_  c #56A824",
"`  c #5DAA26",
"'  c #56A12A",
"]  c #5AA429",
"[  c #5CAB28",
"{  c #5FB226",
"}  c #5FB128",
"|  c #65A422",
" . c #61AD26",
".. c #60AC28",
"X. c #75A424",
"o. c #63B524",
"O. c #75A239",
"+. c #859117",
"@. c #979C19",
"#. c #8DA41E",
"$. c #A1A31A",
"%. c #A6A819",
"&. c #B4AC19",
"*. c #8EB123",
"=. c #96B221",
"-. c #9BB321",
";. c #C8B91A",
":. c #D5BE19",
">. c #D6C41C",
",. c #E5C518",
"<. c #E6CB1B",
"1. c #F9D51B",
"2. c #D5C921",
"3. c #FDE024",
"4. c #5B6A89",
"5. c #6B7787",
"6. c #61708D",
"7. c #687488",
"8. c #677595",
"9. c #7E73AB",
"0. c #737AB0",
"q. c #8476B3",
"w. c #8B76B1",
"e. c #857AB2",
"r. c #8D76BA",
"t. c #9174B4",
"y. c #C16A94",
"u. c #1E8493",
"i. c #298799",
"p. c #258C9B",
"a. c #248DA2",
"s. c #298CA1",
"d. c #368AA5",
"f. c #768393",
"g. c #76849B",
"h. c #7C8799",
"j. c #4884A3",
"k. c #5189A2",
"l. c #5A8EB3",
"z. c #7484AD",
"x. c #7989AC",
"c. c #638CB7",
"v. c #7788B3",
"b. c #7C8BB4",
"n. c #7C8DBA",
"m. c #7E90BE",
"M. c #7D8FC1",
"N. c #8088AD",
"B. c #8C9AAC",
"V. c #9892AE",
"C. c #808CB6",
"Z. c #8584B8",
"A. c #818EBB",
"S. c #8295B6",
"D. c #8493BC",
"F. c #9599B5",
"G. c #9898BA",
"H. c #9AA5B7",
"J. c #9AA6BE",
"K. c #9BAABD",
"L. c #818EC2",
"P. c #8F9EC5",
"I. c #98A7C1",
"U. c #91A3C9",
"Y. c #A4B4CA",
"T. c #AABACC",
"R. c #A8B7D6",
"E. c #AEBED5",
"W. c #A8B7D9",
"Q. c #B1BFDA",
"!. c #B2BDE3",
"~. c #AEC2DD",
"^. c #B5C4DE",
"/. c #B8C7DE",
"(. c #B9C8DF",
"). c #B6C5E1",
"_. c #B8C6E1",
/* pixels */
"b b m B V m z b m b B ] z b b b z ) B z B z a z m z n m l z m l d b b b M m z M ) b b ) b b ' z b ] ( z b z m ( x x m m z x x z ",
"b b ( m b ( m b ' b b ) m m m m m b B m b M m z ) M z x x n ( m m b m ) B m v b ) m N ) M B B V m ' ) ( M ( ) m ) z ) ` q ( ( m ",
"m ) m m ) m b ) z x ) ( m B ( m z B v ) ) M m M n b ( z j N N c m ) m B ' B x ] ) M ) ) m ) m b ( ) ) ( ( ( ' _ l x ` ` _ ` ( x ",
"d m b b ( x l b x d B ) d m m d v B s z ' ( d M z s z x f D A G g ) z d m b c ' ) b m ) c b B z m z M d ( l z b d x ( q ' ( q l ",
"m b M n s ) m d ( z b M b a b M b z m m d ) m d _ ( s ( b Y G G b b ) m b ' m z ..m d ) M z m x ) m z @ p j ` m ) z M ` M q ) ) ",
"m ) ) m ( ( m ( m b ) N E L m b m ( m x | ) m m ) v ) v d G ! D z ) ( ' ( M z ) ) ) M ) z m ( b m ) z Z D Z v ' ( m ` ) ` _ ) m ",
"b M z b m m s z m z m T Q E b b b m b b ( m b B ) z x ) j D I L f b b z z b z ) ) b z ) z l ( b x ( z L D D c x m b ( m ( ` ) x ",
"b d ) B a m z a M m d ) P D b b s d M m z ( m d ( z d m b z c z l d m z h ( b p ` ) l z m d b ) _ ( b j B N z ' ( ) z [ ( m m m ",
"( z ( m ( n z m m m ( m M j b b x m m m ( ` ) ..' b ( ' b m m ) m ( b b m x m ( ( m m m m m m ( ` ' ` ` [ [ ' m m ` ( x _ _ ' x ",
"z x n l v x s m z z b ( m c m z d m z z ' ( N M x s m B b b B B z m z l x z z ( b b B z z z z z x ( b z ' ' ' [ x m ( v x x ( z ",
"z z m z l v n s ( x l ( n b m b b z m z b ) b d ( m z B z B ) M b z m b z m z j ) z z m z b x x z m m m m ) ) ' ( x x n m m x q ",
"x ) q m _ ( m ( z x ) ) m m ) ( m m x ' ) m m [ _ m ) ' b ( ' M ) ) m B ) x b ) n m ) ) ) ( m l m ` ) `  .' ) ) m z ' ) m _ ( v ",
"z ( q x ( z z M z z m ) m M m x z m z b ) M b ] m m b b B B ) M ) M x B ' m b ] ' x B v v x v ' b ( m b [ m b m m b B ) ( m ( z ",
"z m m b m m b b m z z ) z b m z z b z z b ) b b M z v G f D B k D S j P p Z N z Z d c h h m x z m ' M m ) m B b d j b  .m m M z ",
"x ( ) m n ( m b ' M ( ` n b ( m m m m ' B ) M b ) B b D C Z D G ! ! G G H Y G G G G G A Z B m ' ) ` ` ) ( ) b g G g m ( ) ( ( q ",
"l M q M ( ( z m ( m m ( v M ) b l m m s ) m M ) ` b Z D C G U H ! ! U U Y ^ Y Y U U G U G b ) ' z { q ) [ ) b D / Z ( m ( ` ) z ",
"z m x n l x z j k D j M z.b.C.b.d b m z m m b N m d j C k D Z N c P b K U U Y L I Z K v x z ' m { ) ' ( x m m K K D z ) z m x l ",
"z z ( B s m z L O.~ N m v.V.G.v.b.b ' b b _ m d m l a g k m k j v m z h G G Z g B c h z m x z Z x m ' [ z ( x v b m m ' ) ' x B ",
"z x x z ) m b D Q L K z D.G.G.D.A.A.m b ) z z M b b j j b b k j d l b z G G K c c c j z l x v Z Z c ) z _ m z x B m m ' m m m z ",
"b M b d M m B K L Y N x x.A.A.b.n.c.i.b ' v l n m b k k D h b ) x x b d D G D Z j b B ' x ' M d G z x l ' b x ( B m ' m z l m l ",
"z b M ) d ) z b d B M ' M b A.L.l.d.s.z d m m a ) z g # D j z b z x m b c D C g c m ' ' _ ( m s C z ( ( s ( q z ( m z _ b z m q ",
"b ) m M ..) m ) v b ' ( M M k.d.s.p.p.i.` ) m ( ) d D D D f h g _ ' B x C L G G g N m [ ' ' x d C z ( ( ` ( ( ( z x _ ) q _ ( x ",
"z m m b ) b l B x l B ) B b m a.a.a.s.a.i.M b M m k j Z Z C f S K m x B N L Y D g g G G B z z s C z ( b _ m z m z z z q b m ( l ",
"b b m ) d ) B d ] z b ` b b M a.a.a.s.a.p.) m d ) b @ Z C D D I J j b ' j D L $ C K K K Z b ( h f z ( M q ` m z ( x z ) m m ( q ",
"x ) n ( ( ( m ( ' M m [ ) B ) a.a.a.a.s.s.d.) m ) d @ g g j g k z ' B x d G T G A j Z z ( ` m d C z ` ( ( ) ( ) x x ( ) ` ( ` m ",
"z M z v ' ( z m ( z M ) z b B a.s.a.a.j.0.r.q.) ] N g b m j S # c c B m N U L H G D # D z m ) z Z ) ) m ( ( l ' q l m ( m M ) m ",
"b b ( m c m b c ( m N ) l D C p.a.s.k.q.q.q.b.Z.( m c m ) N S D Z g b j C G Z Z D U D g C N c g C j ' x p x l d _ q l ) b B m m ",
"m m ) ' ) ( B m M m x ' b g u.p.p.j.q.q.Z.n.U.U.D.n z ( V b D D C C g D D D j c j Z D D $ g C D D k j l x q z z ( b m ( ' m ) V ",
"m ( b b B m d z l z B z l g i.u.j.q.w.Z.D.Q.)._.).).!.d b z j g K D Z J D G p f j f S D D C c . O   Z s m b l ] x z b z b z m B ",
"m b m b z m b b x z z m j D i.l.w.w.e.D.W.~.).).^.).)./.Q.b a C U K U L L L Z C j g f b V v.v.4 & O X g z m b b ( z n ) b z b z ",
"( m M m M ) b B x x m ) b D 9.w.w.w.e.U.^.).).).^./.).^.)././.j c ) ' Z L U C g b N g x.n.n.n.3 & &   m b ) b m x x b ( m B ( m ",
"z ( m m M m b ( x x j j j g q.t.t.e.A.!.).^.).)._.(./._._.^.^._.5 ; b v A U v.z.n.n.L.M.m.m.b.6.& X   m ) m b ( v z ) m b ) m m ",
"d m ( b ) x z b z j k L Y L q.w.e.A.A.!.^.^.).)._.)./.)._.^.^./.1 : 5 * H.f.6.8.v.n.n.n.n.m.n.n.6.& & o ' x c B Z C F C j N m d ",
"b M M m n ) m d m h D I Q E L S.A.A.M.Q.).).).)._._.^._._.^.^./.* < 5.- K.~.h.- & = > 4.8.z.A.n.8.& O B b ) m b k Y ! U Z b M m ",
"z ) m b v m z ' m z D Y L ^ L b.b.n.n.Q.!.).).)._.^.).).^.).^.K.& 7.6 - I./.Y.; % % % * - = = 8.v x m m ( ) B ' Z D Y U Z b ) m ",
"z M z z x m d x ) h j L D L ! x.v.S.n.n.~.^.^.).^._.).).).^.^.6 - T., - R.(.K.- % % % % % & & * z b b d B m z B Z H G G D z m d ",
"l z ( b h m x a [ m d M ) I D Y b.n.n.n.J.^.).)._.).).).(./.B.* f.K.* 5.~.E.7.& % % % X X . m d d b ' z s ' x p d c K j B b z b ",
"b m m m ` m m m ' b m ' m j j b K n.n.n.n.P.).).).).^.~.^.8.: f.T.2 , T.^.7.* X X X g B m ' m z z m ( z ( m x ( B b B ( m m m x ",
"z m b l ( b z m x z z x l d b z x b b.n.n.n.D.R.Q.E.Y.h.1 6 B.T.5.< K.H.5 = D G D S C j c b m M B B v B ' m s B x z B ) l z m z ",
"l d M m h ( b s ( z s m m z x M m l x b.n.n.n.C.L.g.7.g.I.R.I.6.4.F.N.8.h $ C G G G I D C Z j g C g v ' d ' m p m x s ) ) B x m ",
"( ( ( (  .) _ | x z ) ( x ( ) ( m ) x x n.n.n.n.A.n.D.D.M.D.A.x.b.x.d C S G D D G F D D D g D k Z Z h z ) ( m ) x x ) ' ) ) ` ( ",
"m m ( m _ M x ( x z z ( q m ) z m m z c m m n.n.b.n.A.M.M.n.C.b.b.j Z D D G D C S F D D D g D D Z G D p ) z z m l z m [ ) ( ( z ",
"( q m j s z m x ( l z ) m z M z z b m m d _ m b.A.v.v.A.A.n.b.x.H D L K L G D j N b d g j j l z j Z G h s ( z z ' x z o.' q x m ",
"( _ m L D j x m ( z )  .n ( ( m m m m m  .( ( b.( B j g f x.F.Z D L E I ^ L k ) ` b m z p m z s s j h s m n z ( ) ' ` o.} x ) ( ",
"z ) b G D L z ' ( x m ) b M ` m z ) m l _ q ( ) ) j Z D G 9 8 m D G ~ / L Y c ) ` M ( ( z l x l l z x z ( ( x ( ) z ( ( ( ) ` ( ",
"m B b c L N ' z ' z m ) x z ' b z b b z b M z n ' c Z C Z 7 p d C C H Q L U j B ` m x ) ' x m x m ' m b l n z s m z m [ m m x z ",
"( z _ ( ) ( ' ( ) m x ' M m ' m m m M x b ) M z ( c Z Z Z y.@ f D Z D ! Y G D B ` m M ( v x ( m x ( ( m z x z z ( m m ` _ x n ) ",
"x x x z ( ' ' ( m b ( B z x ' x x b z z m m 7 ' B d j j h s j g a N b b N G h b ` m m ` ) z ( ( x m ( z ( x z m z z m ' ( x ' x ",
"x x q s b m z m m z M ' z c z z b x z l z m l b ) z z m d z N a d m m b m B ( ' ` v x ( m B m z m B b l B z z m m z b ( z z m z ",
"z x q x s M m z ) b z b c h l b b z x x z q M b ( b z x z z b m m b ) m z m z ) ) z z ( f a K D Z Z Z B z ) m z x b b ) m m ) M ",
"x ( ( q ) m m ( x x m h C C j z x m x z ` q m _ ' b ( x z ) ) m m ) m b ( x x l ) z l ' Z L Q E Y L U j [ ( m ) x z ) [ m ( ( m ",
"l z ( z M x d b z s v Z # G j z l x s z x m z ( x z b x d z m n b m l s m l x x ( x x x c L T ^ Q L Y D m b z m x l b ` b m m d ",
"m b ` q l ( m d ( x z D L Z b ( m z x q d ) m d ` M B ) m z ) m b z M q d q z x x z m ' j Y Y T Q L U N m ' ( d ) z b ` M b ) ) ",
"x ) ( q ( ( x m ' b M ( M ( ) m x ) m b ` ( M ( ` m ( ' x m ) ) ) ( m z ' m x s x z l ( g L E Q O.O.Y c [ ) b _ ( m [  .) m ( m ",
"d b q m ( m z B ( l m ) b B ) b d m z z ) q m m b j m m d z ) m m ' z l ' z m m ' B m ` N T I L T W I j ) ) b *.-.-.=.-.=.X.| b ",
"z z ( ( d ) m a ) M d ) ( z z z s d ) m p ` n p j f z ( ) z ( ` ( ' b d B ) m ' ' ) ) ` j Y L L H Y L j ) m R ;.;.,.1.<.:.%.e m ",
"_ m ( ' ) ' ' ) ( m m m q x m x m ) ) x ( ) m ) ( d x ( ) l _ _ m m ..b m ) d v x l x x z K K N g K K m ' ' z w e y ;.+ &.>.R z ",
"m x x N v B ' [ m z m z z z x x z m z z m z d m ( x x b x x M b D N N a D N c d _ q z m x x m ( ( m _ n ' b q #.2.i a #.3.2.R z ",
"( z z D K K ' ' ( z l m z z m m z z x z l m m d _ m q ( x x v d L I L L E L D m _ ( ( _ m m _ x m ( ( m l m u <.1.@.a ;.1.>.R z ",
"_ q x G G Z m ` z z ) ( m ( ) q m ( x z ) ) m ) ( b b x x z ( s L I E / W H g _ ( q ( _ m ( ( l z ( q m ) ( #.1.,.0 w y 1.>.t B ",
"x ( ( N C D b ] z n m _ q M m x z m z b ( ( M q m x x x z q { ( H T ^ I I H c ) { _ q x x x x x z ( ) m ( m i <.+.@.<.u %.:.y z ",
"m x b d b z ' b m d b _ z b m x z x z z q ( z n m b x ( l x ) ( K ' B b m m B z { x _ _ x q _ z z ) ) z q x d +.&.;.;.$.w @.R s ",
"( ) ) ( x ) _ ( ( z m ( q z M m q x x b m _ M z _ m m ( m m ` ` z ( ( m z ' z ) { q q _ ( ( ( x z _ ) q z ( q z 0 0 0 r e 0 q x ",
"z ( q ( ( ( ( x ) z m m m M _ z z m x d ) m m M ( z x _ z x _ m ) [ ) z m ( l m ( ( ( { x s _ x l ( ( q m M x b ( d m q m b M l "
};
