/* XPM */
static char *out[] = {
/* columns rows colors chars-per-pixel */
"64 64 150 2 ",
"   c #1A2432",
".  c #1B2833",
"X  c #1E2C3C",
"o  c #222E3D",
"O  c #253037",
"+  c #24313F",
"@  c #222F41",
"#  c #243143",
"$  c #2A3645",
"%  c #2B3847",
"&  c #29354B",
"*  c #2D3A4B",
"=  c #333D4C",
"-  c #384453",
";  c #3D4A59",
":  c #3C4964",
">  c #424E5D",
",  c #5A5A5A",
"<  c #475463",
"1  c #4C5869",
"2  c #505C6C",
"3  c #475471",
"4  c #505E7B",
"5  c #57626D",
"6  c #5B6778",
"7  c #5E6A7A",
"8  c #B13B6A",
"9  c #BD396E",
"0  c #9C4575",
"q  c #9A5179",
"w  c #5C6A89",
"e  c #667283",
"r  c #6A7685",
"t  c #62708C",
"y  c #69758C",
"u  c #6B7889",
"i  c #637191",
"p  c #6A7592",
"a  c #65759A",
"s  c #697899",
"d  c #7D72AB",
"f  c #737AB0",
"g  c #8476B2",
"h  c #8C76B1",
"j  c #857AB2",
"k  c #8D76B9",
"l  c #9174B3",
"z  c #C16A93",
"x  c #1E8493",
"c  c #238390",
"v  c #2E8996",
"b  c #2C869C",
"n  c #258C9C",
"m  c #28889D",
"M  c #258DA1",
"N  c #2A8CA1",
"B  c #3786A5",
"V  c #338AA5",
"C  c #3B8CA8",
"Z  c #768393",
"A  c #798797",
"S  c #75839C",
"D  c #7C879A",
"F  c #4485A4",
"G  c #4984A5",
"H  c #5189A2",
"J  c #5B8EB3",
"K  c #7E8DA6",
"L  c #7584AC",
"P  c #7887AC",
"I  c #7788AB",
"U  c #7B8BAD",
"Y  c #638CB6",
"T  c #7283B0",
"R  c #7789B3",
"E  c #7C8BB4",
"W  c #7D8DBA",
"Q  c #7D90BD",
"!  c #7D8EC1",
"~  c #8E8E8E",
"^  c gray59",
"/  c #979797",
"(  c #989898",
")  c gray60",
"_  c #9A9A9A",
"`  c #9B9B9B",
"'  c gray61",
"]  c #9D9D9D",
"[  c gray62",
"{  c #9F9F9F",
"}  c #8088AD",
"|  c #8997AA",
" . c #8F9CAE",
".. c #9892AE",
"X. c #818CB6",
"o. c #8484B9",
"O. c #818DBA",
"+. c #8395B7",
"@. c #8E9CB6",
"#. c #8393BC",
"$. c #9497B4",
"%. c #9C97B5",
"&. c #9898BA",
"*. c #9AA5B7",
"=. c #9AA6BD",
"-. c #9BAABC",
";. c #A0A0A0",
":. c gray63",
">. c #A2A2A2",
",. c gray64",
"<. c #A4A4A4",
"1. c #A5A5A5",
"2. c gray65",
"3. c #A7A7A7",
"4. c gray66",
"5. c #A9A9A9",
"6. c #AAAAAA",
"7. c gray67",
"8. c #ACACAC",
"9. c gray68",
"0. c #AEAEAE",
"q. c #AFAFAF",
"w. c gray69",
"e. c #B1B1B1",
"r. c #B2B2B2",
"t. c gray70",
"y. c #B4B4B4",
"u. c #808FC1",
"i. c #8293C0",
"p. c #8E9EC4",
"a. c #93A2C1",
"s. c #9AA7C1",
"d. c #9DABC1",
"f. c #92A3CA",
"g. c #A4B2C7",
"h. c #A6B6CD",
"j. c #ABB9CD",
"k. c #A2B2D6",
"l. c #A8B7D6",
"z. c #AEBED4",
"x. c #ADBCDB",
"c. c #B2BFDB",
"v. c #AEBBE4",
"b. c #B1BDE2",
"n. c #AFC2DD",
"m. c #B5C4DE",
"M. c #B8C6DE",
"N. c #B9C8DE",
"B. c #B5C4E1",
"V. c #B8C5E1",
/* pixels */
"~ 8.~ ~ ~ ~ ~ ~ ~ _ ~ ~ ~ ~ ~ ~ ~ ~ ~ ) ~ ~ 8.~ q.~ ~ ~ ~ ~ ~ ~ ~ ~ ~ ~ ~ ~ ~ ~ ~ ~ 7.~ ~ ~ ~ 3.~ ~ ~ ~ ~ ~ ~ <.~ , ~ ~ ~ ~ ~ ~ ",
"~ ~ ~ ~ ~ ~ ~ ~ ~ ~ ~ ~ ~ ~ ~ ~ ~ ~ _ ~ ~ ~ ~ ~ ~ ~ ~ ~ ~ ~ ~ ~ ~ ~ ~ ~ ~ ~ ~ ~ ~ _ ~ ~ ~ ~ ~ ~ ~ ~ ) ~ ~ ~ ~ ~ , ~ / ~ ~ ~ ~ ~ ",
"~ ~ w.w.) w.w.w.w.w.w.w.w.w.w.w.~ r.w.w.w.w.w.w.w.e.w.w.w.w.w.w.~ ~ w.w.w.w.w.w.w.w.w.w.r.w.w.w.~ ~ w.w.w.w.9.w., w.w.w.2.w.w.w.",
"~ ~ w.w.w.w.w.w.w.w.w.w.w.w.w.w.~ ~ w.w.w.w.w.w.w.w.w.w.w.w.w.w.~ ~ w.w.w.w.w.w.w.w.w.w.w.w.t.w.~ 8.w.w.w.) w.w.w., w.w.w.w.w.w.",
"~ ~ w.w.w.<.' [ w.w.[ w.w.w.w.w.~ ~ w.w.w.w.w.w.w.;.w.w.w.w.w.w.~ ~ w.w.w.w.w.w.w.w.w.w.w.w.w.9.~ ~ w.w.w.w.w.w.{ w.w.w.w.w.w.w.",
"~ ~ w.w.w.w.w., w.w.w.w.w.w.w.w.~ ~ w.w.w.3.w.w.w.w.w.w.w.w.w.1.~ ~ w.w.w.w.w.w.w.w.w.w.w.w.e.w.~ ~ w.w.w.w.w.w.) w.w.w.w.w.w.w.",
"~ ~ w., , w., w.w.w.w.w.w.w.w.w.~ ~ w.w.w.w.w.w.w.w.w.w.w.w.w.w.~ ~ w.w.w.w.w.w.w.w.w.w.w.w.w.` ~ ~ w.w.w.w.w.w.w.w.r.w.w.w.w.5.",
">.~ 5.w.w., , w.w.w.w.{ w.5.w.w.~ ~ w.w.4.w.w.w.w.w.w.w.w.w.w.w.~ ~ w.w.w./ w.5.w.w.w.w.w.w.w.w.~ ~ w.7.[ w.w.w.w.w.w.w.w.w.w.w.",
"~ ~ w.w.w.w.{ 8.w.w.w.w.4.w.w.w.~ ~ w.w.w.w.w.w.w.w.w.w.w.w.w.w.~ ~ w.w.w.w.w.w.w.w.w.w.w.<.w.w.~ ~ w.w.w.{ w.w.w.w.w.w.w.^ w.w.",
"~ ~ w.w.w.w.w.w.w.w.w.w.w.6.w.w.~ ~ w.w.9.w.w.w.w.w.w.w.w.w.w.w.~ ~ :.w.w.w.w.w.w.w.w.w.w.w.w.w.~ ~ w.w.w.w.w.w.w.w.w.w.w.w.w.w.",
"~ ~ w.w.w.w.w.w.w.w.w.w.w.w.w.w.~ ~ w.w.w.w.w.w.w.w.w.q.9.w.w.w.~ ~ w.w.w.w.w.2.w.w.w.w.w.w.w.w.~ ~ w.w.w.w.w.w.w.w.w.w.w.w.w.w.",
"8.~ ] w.w.w.w.w.w.w.w.w.w.w.w.w.~ ~ w.w.w.w.w.w.w.w.w.w.w.w.w.w.~ ~ w.w.w.w.w.w.w.w.w.w.w.` w.w.~ ~ w.w.w.w.q.w.w.w.w.w.w.w.w.w.",
"~ 2.w.w.w.w.w.w.w.w.w.w.>.w.w.w.~ ~ w.w.w.w.w.w.w.w.w.` w.w.w.w.~ ~ w.w.w.w.w.w.w.w.w.` w.w.w.9.~ ~ :.w.w.w.w.w.w.w.5.w.w.w.w.w.",
"~ ~ w.w.w.w.w.w.w.w.w.w./ w.w.w.~ ~ w.w.w.w.w.w.w.w.w.w./ w.w.1.~ ~ y.w.w.w.w.w.w.w.w.w.w.w.w.w.~ ~ w.w.w.w.w.w.w.w.w.w.:.r.w.w.",
"~ ~ w.w.w.w.w.w.w.w.w.w.w.w.w.w.~ ~ w.w.w.w.w.w.w.w.w.w.w.w.w.w.~ ~ w.w.w.w.w.w.w.w.w.w.w.w.w.w.~ ~ w.w.0.0.w.w.w.w.w.w.w.w.w.w.",
"9.~ w.w.w.8.w.w.w.w.w.w.w.w.w.w.~ ~ w.w.w.w.] w.w.w.w.<.w.w.w.w.~ ~ w.w.w._ w.w.w.w.w.2.w.w.w.w.~ ~ w.w.w.w.w.w.w.w.w.w.w.w.w.w.",
"~ ~ ~ ~ ~ ~ ~ ~ ~ ~ ~ ~ ~ / ~ ~ ~ ~ ~ ~ ~ ~ ~ ~ 6.~ ~ ~ ~ ~ ~ ~ ~ ~ ~ ~ ~ ~ ~ ~ ~ ~ ~ ~ ~ ~ ~ 6.~ , , ~ ~ ~ ~ ~ ~ ~ ~ ~ ~ ~ ~ ~ ",
"~ ~ ~ ~ ~ 4.~ ~ q.~ ~ ~ ~ T E W E ~ ~ ~ ~ ~ ~ ~ ~ ~ ~ ~ ~ ~ ~ ~ ~ ~ ~ ~ ~ ~ ~ ~ ~ ~ ~ ~ ~ ~ ~ ~ ~ , , ~ ~ ~ ~ ~ ~ ~ ~ [ ~ ` _ ~ ",
"~ ~ w.] w.w.w.w.w.w.w.w.w.R ..&.R E w.w.w.w.w.w.w.w.w.w.w.w.w.w.~ ~ w.w.w.w.w.w.w.w.w.w.w.w.w.w., , w.w.w.w.w.w.w.w.w.w.w.w.w.w.",
"~ y.w.w.w.w.w.w.w.w.w.w.w.#.%.&.#.O.W w.w.w.w.w.w.w.w.w.w.w.w.w.~ ~ w.w.w.w.w.w.w.w.w.w.w.w.w.w.~ ~ w.w.w.w.w.w.w.r.w.w.w.w.w.w.",
"~ ~ w.` w.w.w.w.w.w.w.w.w.P O.O.E Q Y v w.w.w.w.w.w.w.w.w.w.) w.~ ~ w.w.w.w.w.w.w.w.w.w.w._ w.w.~ ~ w.w.w.w.w.w.w.w.w.w.w.w.w.w.",
"~ ~ w.w.w.w.w.w.w.w.w.w.w.w.w.X.! J V m 8.w.w.w.w.w.w.w.) 4.5.r.~ ~ w.w.w.,.w.w.w.w.w.y.:.w.w.w.~ ~ w.w.w.w.w.w.w.w.w.w.w.w.w.w.",
"~ ~ w.w.w.w.w.w.w.w.w.w.w.w.w.H C N n n m w.w.w.r.w.w.w.w.w.w.w.~ ~ w.w.w.w.w.w.w.9.w.w.w.w.w.w.~ ~ w.w.w.w.w.w.4.w.w.w.w.6.w.4.",
"~ ~ w.^ w.w.w.w.w.w.,.w.w.w.w.w.M M M N M c q.6.w.w.w.w.w.w.w.w.~ ~ w.w.w.w.w.w.w., w.w.w.w.w.w.~ ~ w.q.w.w.w.w.w.w.w.w.w.w.w.w.",
"~ ~ w.( w.w.w.w.w.w.w.w.w.w.w.w.M M M N M M w.w.w.w.w.w.w.w.w.w.~ ~ t.w.w.w.w., , w.w.w.w.w.w.w.~ ~ w.w.w.w.w.w.w.w.w.w.w.w.w.w.",
"~ ~ 5.w.w.w.w.9.w.w.w.w.w.w.3.w.M M M M N V B w.w.w.w.w.w.w.w.w.~ ~ w.w.w.w., , , , 8.w.w.w.w./ ~ ~ w.w.w.w.w.w.w.w.w.w.w.w.w.w.",
"~ ~ w.w.w.w.w.w.w.w.w.w.w.w.w.w.M N M M G f k g w.w.w.w._ w.w.w.~ ~ w., , , , , , w.w.w.w.,.w.w.e.~ w.w.w.w.w.w.w.w.w.w.w.w.w.w.",
"~ ~ :.w.w.] w.w.w.w.w.w.w.w.w.w.n N N H g g g E o.w.w.w.w.w.w.( ~ ~ w.w.w., , w.w., w.8.w.w.w.w.~ ~ { w.w.w.w.w.w.w.w.w.w.w.w.w.",
"~ ~ w.w.w.w.w.w.w.w.w.w.w.t.w.x n n G g g o.W f.f.#.w.w.w.w.w.w.2.<.w.w.w.w.w.w.w., w.w.w.w.w.w.q.~ w.w.w.w.w.w.w.w.w.w.w.w.w.w.",
"~ ~ w.w.w.w.w.w.w.w.w.w.w.w.w.x x F g h o.#.n.B.N.V.B.b.w.w.w.w.~ ~ w.w.w.w.w.w.w., w.w.w.w.w.w.X +   w.w.w.w.w.w.w.w.w.w.w.w.w.",
"~ ~ w.w.:.w.w.w.w.w.w.w.w.w.w.b J h l j #.x.n.B.M.M.V.B.M.c.w.w.~ ~ w.w.w.w.w.w., w.w.w.w.w.R E 4 # @ o w.w.w.w.w.w.w.w.w.w.q.w.",
"~ ~ w.w.w.w.w.w.w., w.[ w.w.w.d h h h j f.n.B.B.B.V.V.V.m.V.M.M.~ ~ , , w.w.w.>.w.w.w.w.U E W W 3 # # . w.w.w.w.w.w.w.w.w.) w.w.",
"~ ~ ~ ~ ~ ~ ~ ~ , ~ ~ ~ ~ ~ ~ g l l j O.v.m.M.V.V.V.M.M.V.V.m.m.V.5 = , ~ ~ ~ R T E W u.! ! Q E i # @   ~ ~ ~ ~ ~ 8.~ ~ ~ ~ ~ ;.",
"~ 2.~ ~ ~ ~ ~ ~ , , , ~ ~ ~ ~ g h j O.O.b.M.m.V.V.V.V.M.V.V.B.m.N.1 ; 5 $ *.Z t a R Q Q W W Q W W i # + O ~ ~ ~ 1.~ ~ ~ ~ ~ ~ ~ ",
"~ ~ 0.w.w.w.w.w.w.w.w.r.w.w.w.w.+.O.O.u.c.B.V.V.V.V.V.V.V.V.V.m.N.$ < u * =.z.D * # & : w s L Q W a # o w.w.w.w.q.w.w.w.w.w.w.w.",
"~ ~ w.w.w.w.w.r.w.w.w.w., w.w.w.E E W O.c.b.m.B.V.V.V.V.V.V.B.m.-.# e 7 % d.M.h.= @ @ @ $ $ & & p ~ w.w.w.w.w.w.w.w.w.w.w.w.w.w.",
"~ ~ w.w.w.w.w.w.w.w.w.w.w., w.w.I E #.W W n.m.M.V.V.V.V.B.B.V.m.6 * j.> * l.M.-.* @ # @ # @ # + $ ~ w.w.w.w.5.w.w.w.w.w.w.w.` w.",
"~ ~ w.w.w.w.w.w.w.w.w.w.w., w.w.~ E Q W E =.m.B.V.V.B.B.M.M.m.| $ Z -.$ r z.z.e $ @ @ @ o o X w.~ ~ w.w.w.w.w.w.w.w.w.w.w.w.w.w.",
"~ ~ w.w.) w.w.w.w.w.w.;., w.w.w.w.~ W W W Q p.B.B.B.B.M.n.n.Z - A j.2 > j.n.y % o o o w.w.w.w.w.~ ~ w.w.w.w.w.) w.w.w.w.w.w.w.w.",
"~ t.w.w.w.w.w.w.w.w.w.w., w.w.w.~ ,.w.E W W W i.k.c.z.g.D 1 6  .j.r 1 -.*.5 $ w.w.w.w.w.w.w.w.w.~ ~ w.1.w.w.w.w.w.[ w.w.w.w.w.w.",
"~ ~ w.w.w.w.w.w.w.q.w.w.w.w.w.y.~ ~ w.w.E W W W X.#.S y S a.l.s.t w @.K p w.w.w.w.w.w.4.w.] w.>.~ ~ w.9.w.w.w.w.w.w.w.w.w.w.w.w.",
"~ ~ w.w.w.w.w.w.w.9.w.w.w.w.w.w.~ ~ w.w.w.W W W W O.W #.#.! i.O.P E I w.w.w.w.w.w.5.w.w.w.w.w.w.~ ~ w.w.w.w.w.w.w.w.w.w.t.w.w.w.",
"~ ~ w.w.w.w.w.w.w.w.w.w.w.w.w.w.~ ~ w.w.w.w.w.W Q E W O.! ! W W E E w.w.>.w.w.w.w.w.w.w.w.w.( w.~ ~ w.w.w.w.w.w.0.w.w.w.w.w.w.w.",
"~ ~ w.>.0.w.w.w.w.w.w.w.w.w.w.w.~ ~ r.w.w.w.w.w.E O.R E O.O.W E } ~ w.w.] w.w.w.w.w.w.w.w.w.7.w.~ ~ w.w.w.w.w.w.w.w.w.w._ w.w.w.",
"~ ~ w.>.w.w.w.w.w.w.w.w.w.w.w.w.~ ~ w.w.w.w.w.w.E w.w.w.w.w.I $.[ ~ w.w.w.w.w.w.w.w.q.w.w.w._ w.~ ~ w.w.w.w.w.w.5.w.w.w.w.w.7.w.",
"~ ~ w.w.w.w.w.w.w.w.w.w.w.w.w.w.~ ~ w.w.w.w.w.w.w.w.w.w.w.w.q 0 ~ ~ w.w.w.w.w.w.w.w.w.w.w.w.>.w.~ ~ w.w.w.w.w.w.w.w.w.8.w.w.w.w.",
"~ ~ w.w.w.w.w.w.w.w.w.w.w.w.w.w.~ ~ w.w.w.w.w.w.w.w.w.w.w.w.8 w.~ ~ w.w.w.w.w.w.w.w.w.w.w.w.w.w.~ ~ w.w.w.w.w.w.w.w.w.w.w.w.w.w.",
"~ ~ w.w.w.w.w.w.w.w.4.w.w.w.w.w.~ ~ w.w.w.w.w.w.w.w.w.w.t.w.z w.~ ~ ] w.w.w.w.w.w.w.w.w.w.w.w.w.~ ~ w.w.w.] w.w.w.w.w.w.w.w.w.w.",
"~ ~ ~ ~ ~ w.~ ~ ~ ~ ,.~ ~ ~ ~ ~ ~ ~ ~ ~ ~ ~ ~ 9 ~ ~ ~ ~ ~ ~ ~ ~ ~ ~ ~ ~ ~ ~ ~ t.~ ~ ~ ~ ~ ~ ~ ~ ~ ~ ~ ~ ~ ~ ~ ~ ,.~ ~ ~ ~ ~ ~ ~ ",
"~ ~ ~ ~ ~ ~ ~ ~ ~ ~ ~ ~ ~ ~ ~ ~ ~ ~ ~ ~ ~ ~ ~ ~ ~ ~ ~ ~ , ~ ~ ~ ~ ~ ~ ~ ~ ~ ~ ~ ~ ~ ~ >.~ ~ ~ ~ ~ ~ ~ ~ _ ~ ~ ~ ~ ~ ~ ~ ~ ~ ~ ~ ",
"~ ~ w.w.w.w.w.w.5.w.w.w.w.w.w.w.~ ~ w.w.` w.w.w.' , , , w.w.w.w.;.~ w.w.w.w.w.w.w.w.w.w.w.w.w.w.~ ~ 6.w.w.w.w.w.w.w.w.w.w.w.w.w.",
"y.~ w.w.' w.w.w.w.w.w.w.w.w.w.w.~ ~ w.1.w.w.w.w.w.w., w.w.w.w.w.;.~ y.w.] w.w.w.,.w.w.w.w.w.w.w.~ ~ w.w.w.w.w.w.w.w.w.w.w.w.w.w.",
"~ ~ w.w.w.w.w.w.w.w.w.w.w.w.w.w.~ ~ w.w.w.w.w.w.w.w.w.4.w.w.w.w.~ ~ w.w.w.w.w.w.w.w.3.w.w.w.w.w.~ ~ w.w.w.w.w.w.w.w.w.w.w.w.w.7.",
"~ ~ w.w.w.w.w.w.w.w.w.w.w.w.y.^ ~ ~ w.w.w.w.w.w.( w.w.w.w.w.w.w.~ ~ w.w.w.w.w.w.w.w.w.w.w.w.w.w.~ ~ w.w.w.w.w.w.w.w.w.w.w.w.w.:.",
"~ ~ w.w.w.w.w.w.w.' w.w.w.w.w.w.~ ~ w.w.[ ( w.w.w.w.w.w.w.w.w.w.~ ~ w.w.w.w.w.w.w.w.w.w.w.w.w.w.~ ~ w.w.w.w.w.w.w.w.w.w.w.w.8.w.",
") ~ w.w.w.w.w.w.w.w.w.w.w.w.7.w.~ ~ w.w.w.) w.w.w.w.w.w.w.w.w.w.~ ~ w.w.w.w.w.w.e.w.w.w.w.w.w._ ~ ~ w.w.w.w.w.w.w.w.w.w.w.w.;.' ",
"~ ~ w.w.w.w.w.w.w.w.w.w.w.w.w.w.~ ~ w.w.w.w.4.w.w.w.w.w.w.w.w.w.~ ~ w.w.w.w.w.w.w.w.w.w.9.t.w.w.~ ~ w.w.w.w.w.w.w.w.w.w.w.w.w.w.",
"~ ~ w.w.w.w.w.w.w.w.w.w.w.w.w.w.~ ~ w.w.w.w.w.w.w.w.( w.7.w.w.w.~ ~ w.w.w.w.w.w.w.w.( w.w.w.w.w.~ ~ w.w.w.w.w.w.w.w.w.w.w.w.w.w.",
"4.~ w.w.{ w.w.w.w.w.w.w.w.w.w.w.~ ~ w.w.w.7.t.w.w.w.w.w.w.w.w.t.~ ~ w.w.w.w.w.w.w.w.w.:.w.w.w.) ~ ~ w.w.w.w.w.w.e.w.w.w.w.w.w.w.",
"~ ~ w.w.( w.w.w.w.w.w.w.w.w.w.w.~ ~ w.w.w.w.w.w.w.w.w.w.w.w.w.w.~ ~ w.y.w.w.w.w.w.w.w.w.w.w.w.w.~ ~ w.w.r.w.w.w.w.w.w.w.w.w.w.w.",
"~ ~ w.w.w.w.w.w.w.w.w.w.w.w.w.w.~ ~ w.w.;.w.w.w.w.w.w.2.w.w.w.w.~ ~ w.w.w.w.w.w.w.w.w.w.w.w.w.w.~ ~ w.w.w.w.w.w.w.w.w.w.w.w.q.w.",
"~ ~ w.w.w.w.w.w.w.w.w.r.w.w.w.w.~ ~ w.w.w.w.w.w.w.w.w.w.w.w.w.w.~ 4.w.9.w.w.w.w.w.w.w.w.w.w.w.w.~ ~ w.w.w.w.w.w.w.w.w.w.w.w.w.w.",
"~ { w.w.w.w.w.w.w.w.w.w.w.w.w.w.~ ~ w.w.1.w.w.w.w.w.w.w.w.w.w.w.~ ~ w.w.w.w.w.w.w.w.w.w.w.w.w.w.~ ~ ( w.w.w.w.w.w.w.w.w.w.w.w.w.",
"~ <.w.w.w.w.w.w.6.w.w.w.w.w.w.w.~ ~ ( w.w.w.w.w.w.w.w.w.w.w.w.w.~ ~ w.w.w.w.w.w.5.w.w.w.w.w.w.w.~ ~ w.w.w.w.w.w.w.w.w.w.w.w.w.w."
};
