/* XPM */
static char *out[] = {
/* columns rows colors chars-per-pixel */
"64 64 177 2 ",
"   c #142031",
".  c #192839",
"X  c #1C2A3C",
"o  c #1C2B3E",
"O  c #1F2E3D",
"+  c #212D34",
"@  c #4C7510",
"#  c #457D27",
"$  c #477F2C",
"%  c #1F2D40",
"&  c #253344",
"*  c #24324A",
"=  c #283649",
"-  c #313A4B",
";  c #394556",
":  c #384766",
">  c #404D5E",
",  c #495567",
"<  c #4B5669",
"1  c #4F5C6C",
"2  c #445372",
"3  c #4F5E7C",
"4  c #57626D",
"5  c #5C6879",
"6  c #B9376D",
"7  c #9E4275",
"8  c #9A507A",
"9  c #458D1F",
"0  c #498E1F",
"q  c #588914",
"w  c #45911F",
"e  c #4D951F",
"r  c #529319",
"t  c #50961F",
"y  c #58931B",
"u  c #638A16",
"i  c #6A8812",
"p  c #649518",
"a  c #6D9919",
"s  c #6D9D1B",
"d  c #769313",
"f  c #769814",
"g  c #55A41F",
"h  c #55AA1F",
"j  c #65A51C",
"k  c #76A51F",
"l  c #7BA018",
"z  c #63B61F",
"x  c #438620",
"c  c #478721",
"v  c #458427",
"b  c #458A23",
"n  c #4A8C27",
"m  c #468029",
"M  c #498529",
"N  c #4D862E",
"B  c #4D8B2E",
"V  c #508D2A",
"C  c #4D9424",
"Z  c #4D9920",
"A  c #4E9A23",
"S  c #4E922C",
"D  c #519427",
"F  c #529D21",
"G  c #519C23",
"H  c #589D25",
"J  c #53922E",
"K  c #559A2E",
"L  c #4F8735",
"P  c #4F8831",
"I  c #4D8837",
"U  c #518D32",
"Y  c #588E37",
"T  c #528D38",
"R  c #5C9432",
"E  c #5B9437",
"W  c #5D9A32",
"Q  c #5D9A36",
"!  c #559138",
"~  c #609733",
"^  c #639736",
"/  c #629B32",
"(  c #639A36",
")  c #699D34",
"_  c #6B9C35",
"`  c #769E37",
"'  c #55A225",
"]  c #58A020",
"[  c #58A520",
"{  c #5AA524",
"}  c #5DAC21",
"|  c #5CAD23",
" . c #5FB321",
".. c #5FB323",
"X. c #61AF21",
"o. c #60AE23",
"O. c #76A336",
"+. c #869210",
"@. c #989D12",
"#. c #8EA518",
"$. c #8FB31E",
"%. c #97B31B",
"&. c #9CB41B",
"*. c #A2A413",
"=. c #A7AA12",
"-. c #B5AE12",
";. c #C9BA13",
":. c #D6BF12",
">. c #D7C516",
",. c #D6CA1B",
"<. c #E6C611",
"1. c #E7CC14",
"2. c #F9D614",
"3. c #FDE11F",
"4. c #5B6A8A",
"5. c #61718E",
"6. c #687589",
"7. c #6B7888",
"8. c #677696",
"9. c #7F74AD",
"0. c #747BB2",
"q. c #8577B5",
"w. c #8C77B3",
"e. c #867BB3",
"r. c #8E77BB",
"t. c #9275B5",
"y. c #C26A95",
"u. c #188594",
"i. c #24889A",
"p. c #208D9C",
"a. c #1F8EA3",
"s. c #248DA2",
"d. c #338BA7",
"f. c #778494",
"g. c #77859C",
"h. c #7D889A",
"j. c #4685A4",
"k. c #508AA3",
"l. c #5A8FB4",
"z. c #7585AF",
"x. c #7A8AAE",
"c. c #638DB8",
"v. c #7889B5",
"b. c #7D8CB5",
"n. c #7D8EBB",
"m. c #7F91BF",
"M. c #7E90C2",
"N. c #8189AF",
"B. c #8D9BAE",
"V. c #818DB7",
"C. c #8685B9",
"Z. c #828FBC",
"A. c #8396B7",
"S. c #8594BD",
"D. c #9993B0",
"F. c #969AB6",
"G. c #9999BB",
"H. c #9BA7B8",
"J. c #9BA8BF",
"K. c #9CACBE",
"L. c #828FC3",
"P. c #909FC6",
"I. c #99A9C2",
"U. c #92A4CA",
"Y. c #A5B5CB",
"T. c #ABBBCD",
"R. c #A9B8D7",
"E. c #AFBFD6",
"W. c #A9B8DA",
"Q. c #B3BEE4",
"!. c #AFC3DE",
"~. c #B2C0DB",
"^. c #B6C5DF",
"/. c #B9C8DF",
"(. c #B7C6E2",
"). c #B9C7E2",
"_. c #BAC9E0",
/* pixels */
"e Z Z e F F Z Z g F e t e g { t e ' t t [ t t [ ] e F ] t t t 0 w F e w F y e F e c e G e G [ e t t t e { G t F t e F H G F t t ",
"F g g r } [ e [ F [ g ] g [ ' F H G G ] [ D F [ t A F G [ F t F F g y Z Z e ] [ e F ] t F G t F F F F F [ t t ' t F g t F g t t ",
"Z g } h } } Z w h ' g g g [ [ g t F [ F [ [ ] [ { Z G ' G F [ F C D D n e g t y ] F ] [ [ A G e F g G F g [ Z e [ t F [ F F [ F ",
"w r g ' r g Z 0 t e w g 0 ] e F e G t C [ F t [ ' C t F 0 e [ M T I U v Z e 9 e ] 0 g ' e 9 G A 0 F F 0 [ G 0 Z t w Z g t t F 0 ",
"[ [ r ] } ] e [ F } n x # e F [ Z F e ] [ 0 F o.e F ' t F [ t t T T E t g 9 g h 0 F [ 0 F F e t ] t c t ] t e g 0 F [ 9 y ] t F ",
"F [ h } [ } F g ' A B U B e [ F t g F e [ ] [ [ [ e ] g ' g [ e U ^ T 0 A [ A [ F F [ j Z F g F t F R ~ D [ t F g F g g F [ [ F ",
"Z [ } g F g t F Z C U U R e g Z t g w e [ e t [ [ e t e e t t v R W U n [ Z e [ G t F g t t F t t t ~ ) Q F e F e 9 F F t e ] t ",
"F F F g | e [ g ' e D G n t g h [ t 0 F e w [ } x t g b e F 0 w e C e t F 0 e g 0 F g e F ] 0 9 t t U K [ 0 F ] c e F c G [ 0 t ",
"Z ' h h Z g } F F ' | | } } ' } g F F F F F F g g F Z F t t g F [ F F t ' g t ' o.[ } g F F F Z t t n ] F g F F F e y g F g e g ",
"e g Z Z A g F Z | ' ' ' e t g Z e e e e e G t t g e e Z w e F e G G t t G F 9 Z ] D g ' e e F 0 e F C F g t e e F 9 Z A w y Z e ",
"r Z F F y Z Z g ' [ [ F F F F e Z Z t e F e e [ n e F e t F e t ] [ G e G e F g 0 t [ t e F e t t F t y g w Z g 9 y A w e F e e ",
"A g h F [ ' e F [ [ ' X.} [ } F w F g [ [ [ F y [ t Z [ G F [ [ ] ' g t ' [ F h | F F [ ' Z F F g [ F F [ [ Z e g F g h F r [ Z ",
"e g F g [ G t F F t F | t F g t ' A Z A A G Z ' { t F ' G Z ] [ ] [ G G t t F F { t ] [ t e F e Z F ] F [ F e e ] e e g Z r g e ",
"e ] F F X.t n 0 t G F [ F ] ' F e Z F b b C 0 B e D B x K n P U V G U v T A e ] t t [ t e e t e e F t e [ e e F t t F F t F F e ",
"r g g [ g F M T M t [ g [ } } [ ' F G B I T T T T T E Y T T ^ ^ T U B N U t G [ t ] [ G ' F F F F g t y } g ] ' t F g y F [ g Z ",
"e [ } g F g B ` U t [ | [ r  .e ' [ t T ! T ! ! E E _ E ! ! ^ ^ Y ! T N U B t } [ ] F [ 9 F F w t [ ] A g F F g F e g g ] r ] w ",
"w Z F e [ e U J J F F Z g ' [  .F ' e Z A J B W R E ! ! J t K C D B U V N n 0 F D t F F e F t 0 b.V.b.z.] n U V n e Z w y Z F e ",
"G Z ' [ ' F F t A Z g e | ' F Z B e Z F e b C G M B T T b e F A n V F V M c w F 0 F h t t ' t b.v.G.D.v.F D ( O.R e F 9 G g e e ",
"e F F F ' F F G Z e F h e [ C B B A Z w e n C C C J T T e t w 0 n V t t n n t t ] e e [ t F Z.Z.S.G.G.S.e J R ) U t F [ e Z Z e ",
"w F w e F ' F G g Z t ' w Z e T 0 ] ' Z ' G t n B U T U 0 t Z Z [ t b U V V t F y w A ' t i.c.n.b.Z.Z.x.Z D E R J G F ] 0 t ] t ",
"r F e t h e F g e r g 9 g g e N 9 F g h ' ' F C M N U C t F Z e t e n U m M e [ c F F 0 e s.d.l.L.Z.t ] ' ] G 0 t e [ 0 [ ] t e ",
"Z g h r [ h Z e g g g } g g e N 0 Z ' ' | F D M T T R N Z G ' h M b v U U U 0 [ g F [ } i.p.p.s.d.k.] ] g ' t A [ F [ o.] F [ t ",
"w g F t r e e e F e F h t g e N 9 e e G T T M M U E R D G Z F J P v N B B n V F ] t ] i.a.s.a.a.a.F t G [ G w Z G w t [ t F F e ",
"r g F F [ e Z g e F } r ] g e v b g t B J J J N $ R U n ' t n S W U U N B # t [ 0 F [ p.a.s.a.a.a.] t t } t e { 0 G [ 0 [ F t t ",
"F } g } [ g Z Z [ g [ g g } e N 0 F } g e B n I T Q T 0 Z G ' e V M n M M # 0 [ F [ d.s.s.a.a.a.a.[ G [ | F ] ' g F g g g y [ Z ",
"F [ ] F g F w r ' w g g F [ [ B e [ F e U m U T Y R ! D F G C C m P n F t M D { [ q.r.0.j.a.a.s.a.G t e [ ] e g F e g ' A e ] e ",
"F F G t [ w r h 0 w Z x Z ' n N M C D N M U ! U B B T N n t M B U P D [ F C F g C.b.q.q.q.k.s.a.p.N U w [ D F g C t F C F g t t ",
"H [ F ' g F t g e e r Z w n V U U N M $ U U B n C n U U U M N N U U t H g e y S.U.U.n.C.q.q.j.p.p.u.M t ' Z F ] F G g [ ' [ F F ",
"G F e t e t e Z { w t F 9 B   O . C N U U P v n v x T U S B U J M n e t 0 Q.(.(.).(.~.S.C.w.q.j.u.i.M w e G e w e 0 F G t t g F ",
"e t e t [ y e g t t F e M X O % 3 v.v.H t v M n N B R R R ! J ! N c t ~./.(.(.^.(.(.!.W.S.e.w.w.l.i.U n F e e Z t t F e t F t F ",
"F g G F g t Z Z F t [ t F   % % 2 n.n.n.x.M D t M N ! R B ' [ C n /./.(.^.(./.^.(.(.(.^.U.e.w.w.w.9.U t [ F Z Z G t [ ] F ] F g ",
"F F [ t F [ e A g t F [ F   X % 5.b.m.m.M.L.n.n.z.v.! I A t - 4 ).^.^.).)./._.).(.(.^.(.Q.Z.e.t.t.q.M n n n Z Z g t F ] F F g e ",
"0 F D n N L N B G C Z ' + % % 5.n.n.m.n.n.n.n.v.8.5.f.H.& 4 ; < /.^.^.).(./.(.).(.(.^.^.Q.Z.Z.e.w.q.R E R V n e t e Z [ t g F 0 ",
"F ] t B ! ^ E V t F [ t G O % 8.n.Z.z.8.4.: * % = h.!.K.= 7., & /.^.^.).).^.).).(.(.(.(.~.M.Z.Z.A.R ~ ) W U b F 0 F [ y F ] ] t ",
"F [ t B ! E U B ' G [ g F F Z A 8.* * = & o o o - Y./.I.= 5 6.% K.^.(.^.(.(.^.).(.(.(.Q.~.n.n.b.b.R _ R E U e F ' e F A t F [ e ",
"0 F e U T T Y B G e F G 0 t t e & % % o o o o o = K._.R.= > T.= 5 ^.^.(.(.(.).^.(.^.^.!.n.n.A.v.x.^ R U R n b [ Z 0 F Z e e ] e ",
"t e t G n J C 0 x Z ' 9 e ' t 0 0 F . X X o o o % 6.E.!.7.& K.f.& B./._.(.(.(.).(.(.^.J.n.n.n.b.E U W [ ] 0 F | c Z F b t g e w ",
"Z F F F g G t G g Z F g e g F e e F ' F G M X X X & 6.^.T.> 1 T.f.; 8.^.!.^.(.(.(.(.P.n.n.n.n.J t n n F ' F t ' F F F } F F F t ",
"e F e w [ G e Z G 9 F ' G A G G ] F t C n N P U T U * 4 H.K., 7.T.B.5 < h.Y.E.~.R.S.n.n.n.b.t Z e t 0 w Z e e Z F e t g w t F e ",
"F Z G [ [ 9 Z F x F ' 0 ' A M N M n B N U W T T T N $ b 8.N.F.4.5.I.R.I.g.6.g.L.V.n.n.n.b.Z w F ] Z e F F 9 e g 9 t g b F ] 0 w ",
"g } [ [ ' [ Z Z [ F g [ e b B B V U M U U U L T U U T P N 0 x.b.x.Z.S.M.S.S.n.Z.n.n.n.n.Z Z [ F g [ g Z g [ e Z j h [ X.g g g g ",
"e g g [ | F e w F e e [ x U T B U U M U U U L P N U T U U B n b.b.V.n.M.M.Z.n.b.n.n.F F C e F F e [ F r g e e Z g Z ] h F g F F ",
"F Z r ' z e Z ' e e g 9 b T B n e w n n M 0 t D n U T R J R U Y x.b.n.Z.Z.v.v.Z.b.F h 0 F F t e e ] e F [ e w g Z F e 9 n F r g ",
"g [ Z ..z } ' [ g e y F 9 b n 9 9 e F x e F t } [ V R _ W ~ R U B F.x.v M n G g b.g g X.F F F F F g g y X.[ e g F Z n U R F h g ",
"g } [ g g g e [ g Z g g e Z e w w Z w e g g ] } [ C E R ` ( T U F 7 8 T U B n [ [ g r h w F [ e F } ] t [ F Z g ' e R U T t [ e ",
"e Z F F | F e F 9 e y w t F ' F Z F Z ' [ Z F } G n ! R ) Y N N 0 x 6 B N B C ' y e ] t e t t e t ' e Z [ F e ' e ' D R C t G F ",
"[ y Z h } F F g e e Z e F g g Z F g Z A g ] F } G U T E ^ U B U v # y.B B B C g e ] [ t Z ] F F F ' F ] ' Z F [ g ' g [ g h e g ",
"Z ' Z g ' F e e F e Z g e g F Z g g e [ } F F } t b T D t t D c M n 9 b n n 0 G ' 6 F F e e t Z Z ' Z e G g t F g ' ' g e Z Z Z ",
"e F e e g t e F F e e G w t G F e F G F g Z A } ' g G F t F F 0 c D e 0 F e e [ t w F e w e Z t e e C e ' ] e F F e F t 9 r Z Z ",
"] [ F F [ t t Z e F [ e G B B B U J c v g e e [ [ e F e F [ t F F t e e Z e t g t ] r e Z Z e t t w b C t e t [ e F ] 9 Z r Z e ",
"F g g F | [ e Z [ F g | n ! R E ~ ) R B ' w e [ w Z Z g t F [ F F [ [ e Z g t ' h F r } e Z F Z e n N N b F Z Z g F F [ r g g Z ",
"0 F F t } t w Z F e t F U E R ) _ Q R C Z Z Z g Z Z w F 9 w F t y F e 0 Z t e Z g e F Z e 9 Z w e n T m B A 9 e t 0 Z ] e g e w ",
"[ [ t ] } t e [ 0 g ' F D ! R ) Q E E n ' F e Z Z e r 0 r ] e t F [ e F [ G ] } 0 F [ 0 r Z e F g t B R U e Z g 0 F g w r } t F ",
"F g F [ X.| F g h t [ | C E O.O.) ~ R M g w e Z 9 Z F ' e F g [ [ [ F Z ' g F } g ] g } t F [ Z F [ g ] g ] t ' F Z g g r g [ Z ",
"t j k %.&.%.&.&.$.t [ [ n W / Q R W Q D } F G ' F F e ' w e ' F F [ e 0 F F n t F F r [ e e F 0 t [ G t [ F w g G e F g F r t 0 ",
"F u =.:.1.2.<.;.;.s F [ n R E Y R R E n } [ [ ' ' F [ G 0 t ' g } g e [ g e v n x y } x F [ 0 9 e e e g [ 0 ] [ c F [ 0 g g e e ",
"e s >.-.@ ;.d u i e ' ' F J J M D J J e Z Z w Z A 0 [ F t o.F F h h w [ g Z 0 g [ F [ g Z [ [ F Z F Z r F F F g [ ' ' [ ' g F h ",
"e s ,.3.#.c l ,.#.r t ' y h F g g F Z Z F e r h 0 C D U c D D U t ] Z Z t Z Z g F 0 e F e e F e Z Z e e e F e F | ' G A D Z Z F ",
"e s >.2.;.c @.2.1.f F w F g g F Z h F F h g g h F U R ~ R R W R 0 A Z Z g r F h 0 F F w e Z e e F F e e F w e g ' ' J J U e e g ",
"G a >.2.d i q <.2.#.g [ F r g e w g g F h g r g h M Y / ` ~ W R 9 g e Z Z t t g [ F [ [ e Z g F r [ g F g [ e e } F B T T Z r h ",
"e d :.=.f 1.@.+.1.l F g F [ g e Z Z Z Z Z r h  .[ C Y W W _ Q Y g  .r e Z Z Z F r ] g g t e F e Z F ] r h F y e { t U N D g g Z ",
"9 s @.i *.;.;.-.+.0 Z r e [ [ e e h r Z h h Z  .e G F F t G ' J g [ Z w g Z t F y e g r e e Z e Z F t e h t 0 F t ' e t 0 t Z F ",
"Z r q u p q q q e r g e r [ h e Z g g g h r r  .[ e ' e F g g e } } F F g F F h e ] h F t Z Z r F ] e r g F e g g h [ Z g [ [ g ",
"w ] t F r F 0 g t Z ] F r g g w Z h 9 Z  .g g g F w g F e [ | [ F h Z e h Z e g ] F F [ 0 Z F e e h ] F F F e [ Z g g g g r g e "
};
