/* XPM */
static char *out[] = {
/* columns rows colors chars-per-pixel */
"64 64 169 2 ",
"   c None",
".  c #1A212A",
"X  c #1B2733",
"o  c #1E2936",
"O  c #1F2B38",
"+  c #222A35",
"@  c #222D3B",
"#  c #23313D",
"$  c #2A333F",
"%  c #333539",
"&  c #1F3041",
"*  c #232F41",
"=  c #253243",
"-  c #293444",
";  c #2A3548",
":  c #2C394B",
">  c #303942",
",  c #313C4A",
"<  c #2F3B51",
"1  c #323F51",
"2  c #36404D",
"3  c #3C434C",
"4  c #354254",
"5  c #3B4554",
"6  c #3A455C",
"7  c #3D4A5A",
"8  c #3F4B67",
"9  c #404751",
"0  c #494F57",
"q  c #414D5B",
"w  c #4A535F",
"e  c #475261",
"r  c #495564",
"t  c #4B5868",
"y  c #44516A",
"u  c #525762",
"i  c #5A5F69",
"p  c #545B65",
"a  c #4F5F7D",
"s  c #4C5975",
"d  c #5D6776",
"f  c #5F6A77",
"g  c #5E6C7A",
"h  c #646A6F",
"j  c #6B6F76",
"k  c #6F747E",
"l  c #586885",
"z  c #606D80",
"x  c #616F8D",
"c  c #667384",
"v  c #677488",
"b  c #6A7688",
"n  c #757C80",
"m  c #657399",
"M  c #687799",
"N  c #767F92",
"B  c #6B7BA1",
"V  c #747AAD",
"C  c #767BB0",
"Z  c #7A7AB0",
"A  c #B75E8A",
"S  c #B35A82",
"D  c #9F618A",
"F  c #936493",
"G  c #A67698",
"H  c #B9739B",
"J  c #8677AE",
"K  c #8976AF",
"L  c #9D7DA1",
"P  c #8677B1",
"I  c #8B76B2",
"U  c #867BB2",
"Y  c #897AB3",
"T  c #B879A4",
"R  c #2F879F",
"E  c #258C9E",
"W  c #2B8A9E",
"Q  c #2D8695",
"!  c #3F889F",
"~  c #258DA1",
"^  c #2B8BA1",
"/  c #3F86A2",
"(  c #388BA2",
")  c #46819F",
"_  c #768091",
"`  c #73829F",
"'  c #7F8C9E",
"]  c #4588A9",
"[  c #558CAD",
"{  c #598AAC",
"}  c #5584A7",
"|  c #6886A5",
" . c #6280AB",
".. c #7080A6",
"X. c #7685AE",
"o. c #7986A9",
"O. c #7788AE",
"+. c #7A8AAE",
"@. c #6B8EBC",
"#. c #7786B2",
"$. c #7986B2",
"%. c #748CB4",
"&. c #7C8CB5",
"*. c #7D8EBB",
"=. c #728DB9",
"-. c #7E91B4",
";. c #7C90BB",
":. c #7E8EC0",
">. c #7B90C0",
",. c #878A8E",
"<. c #808D9F",
"1. c #828FA2",
"2. c #878CAE",
"3. c #8693A6",
"4. c #8A95AD",
"5. c #8E9BAE",
"6. c #8186B4",
"7. c #828BB6",
"8. c #818DBB",
"9. c #8493B6",
"0. c #8890B0",
"q. c #8B9AB7",
"w. c #8393BC",
"e. c #8798BE",
"r. c #8899BD",
"t. c #8B96BA",
"y. c #929DB3",
"u. c #9396B7",
"i. c #A986A4",
"p. c #AD99B4",
"a. c #B791B1",
"s. c #96A4BC",
"d. c #99A7BC",
"f. c #9FAABD",
"g. c #8D9DC2",
"h. c #8695C2",
"j. c #939EC7",
"k. c #93A2C4",
"l. c #94A4C9",
"z. c #99A7CB",
"x. c #9BAACD",
"c. c #9CA8C4",
"v. c #9CADD0",
"b. c #A1ABC0",
"n. c #ABAFCF",
"m. c #A1AECA",
"M. c #BBACCA",
"N. c #B5A3C0",
"B. c #A6B4CA",
"V. c #A9B6CE",
"C. c #BBB4CD",
"Z. c #A4B3D5",
"A. c #ACBBD4",
"S. c #A7B5D8",
"D. c #AAB6D9",
"F. c #ADBCDB",
"G. c #B5B6D3",
"H. c #B8B5D5",
"J. c #B2BED6",
"K. c #B2BEDB",
"L. c #AEBFE1",
"P. c #AEC0DC",
"I. c #B1C1D6",
"U. c #B4C3DD",
"Y. c #B8C5DF",
"T. c #B6C4E1",
"R. c #B8C5E1",
"E. c #CBCED2",
"W. c #E9E9EA",
/* pixels */
"                                                                                                                                ",
"                                                                                                                                ",
"                                                                                                                                ",
"                                                                                                                                ",
"                                                                                                                                ",
"                                                                                                                                ",
"                                                                                                                                ",
"                                                                                                                                ",
"                                                                                                                                ",
"                                                                                                                                ",
"            W.,.                                                                                              @                 ",
"          % ,.E.p @                                                                                         > 9   @             ",
"            @ 3 k 5 #                                                                                     - e , $ 0             ",
"              % - , 1 f.                                                                                V.4 * - i j             ",
"            h k q @ 4 V.q.                                                                          m.Y.V.1 - u 9               ",
"              # 5 , 7 A.U.7.                                                                      c.K.Y.B., : - +               ",
"                # = 7 I.U.F.t.                                                                o.l.Y.U.Y.f., = u                 ",
"                0 2 7 U.T.T.K.l.7.                                                        &.w.S.U.Y.R.R.q.; q %                 ",
"                = & q P.T.T.R.Y.D.w.$.                                                :.;.l.U.Y.R.U.R.T.c ; ; @                 ",
"                @ = 7 I.T.R.R.T.U.U.x.w.$.                                      $.*.h.g.L.T.T.R.R.R.T.U.4 = O                   ",
"                  @ 7 A.R.R.R.R.R.T.U.K.x.-.O.                              &.*.;.x.F.U.Y.U.Y.R.R.R.Y.B.1 =                     ",
"                  o 4 V.R.R.R.R.R.R.R.T.U.F.h.*.&.          %.#.          *.w.k.F.U.Y.T.Y.Y.Y.T.R.R.U.3.; = +                   ",
"                  # ; s.T.T.R.R.R.R.R.R.Y.U.F.w.*.$.      &.*.8.+.      &.8.g.U.Y.Y.R.R.R.T.R.R.R.T.U.t = #                     ",
"                    = c R.T.R.R.R.R.R.R.R.Y.T.S.9.*.X.    u.0.8.0.      *.;.F.U.Y.R.R.R.R.R.R.R.R.Y.B.: - #                     ",
"                    @ 2 A.T.T.R.R.R.R.R.Y.R.R.U.l.;.;.  { 8.$.u.4.|   %.*.g.U.Y.R.R.R.R.R.R.R.R.R.R.<.; ,                       ",
"                      : 5.U.Y.T.R.R.R.R.R.R.Y.Y.A.;.*.{ ^ @.*...a { Q %.*.Z.U.Y.R.R.R.R.R.R.R.R.Y.J.4 # #                       ",
"                      = 4 V.U.T.R.R.R.R.R.R.R.R.P.r.%.( ~ ^ ] [ ] R W } w.F.Y.T.R.R.R.R.R.R.R.Y.Y.1.; X                         ",
"                        ; v P.Y.U.R.R.R.R.R.R.R.T.l.#./ ~ ~ ~ ~ E E E V j.K.Y.T.R.R.R.R.R.R.R.R.I.: @                           ",
"                        o ; b K.K.R.Y.T.T.T.R.R.T.S.6.Z ^ ^ ~ ~ ~ E ) I w.F.R.R.R.R.R.R.R.R.Y.Y.3.= @                           ",
"                        * * = 7 d.F.U.Y.Y.R.R.R.R.F.8.P B ( ^ ^ R ( V J *.D.T.R.R.R.R.Y.Y.T.A.A.7 # .                           ",
"                          = = = = g I.Y.T.R.R.R.T.F.8.U P Z C C Z Y K Y *.x.U.R.R.R.Y.U.U.3.f 2 o                               ",
"                            o @ @ = t A.Y.R.R.R.Y.F.8.8.P I I I Y K P 8.*.g.U.R.R.Y.J.<.: +                                     ",
"                                O * @ 1.U.R.R.R.R.P.;.*.8.U P P Y Y 8.*.*.e.U.T.Y.U.5.; =                                       ",
"                                    # 4 A.R.R.R.T.P.g.*.*.8.8.&.7.&.*.=.*.w.T.T.U.B.4 #                                         ",
"                                    + ; y.U.R.R.T.T.x.;.*.&.*.*.*.&.x.P.h.h.L.T.A.b = +                                         ",
"                                      * 5 V.R.R.Y.Y.S.;.&.Z.x.;.*.w.U.U.T.g.U.P.4.; +                                           ",
"                                      @ ; N A.T.T.T.P.;.z.P.T.l.;.e.U.P.P.k.U.B.5 @                                             ",
"                                        # : e d.P.T.U.x.Z.Y.T.F.%.w.T.T.T.k.                                                    ",
"                                            @ , e f _ s.m.T.T.T.r.r.U.T.T.                                                      ",
"                                                          T.T.U.S.x.U.T.Y.                                                      ",
"                                                          F.T.M.Y.T.C.T C.                                                      ",
"                                                        7.w.N.A G.G.G H a.9.                                                    ",
"                                                      *.*.7.D S M.R.i.J.L w.&.                                                  ",
"                                                    &.*.-.7.F p.H.R.J.T.n.w.;.*.                                                ",
"                                                  +.*.*.&.*.6.A.K.R.R.U.l.*.&.;.*...                                            ",
"                                                * y &.&.*.&.&.j.R.K.T.P.w.*.*.*.*.M $                                           ",
"                                                * ; s &.*.;.*.*.D.T.T.S.*.*.;.*.$.y @                                           ",
"                                                  * = l *.*.*.*.8.K.T.;.*.8.h.*.l ; O                                           ",
"                                                  @ = ; m *.*.*.*.w.*.*.*.:.h.B : @                                             ",
"                                                    O = ; l *.&.&.&.&.*.*.&.X.6 ; +                                             ",
"                                                        @ ; 4 m X.8.*.*.#.M 6 * O                                               ",
"                                                          = = ; ; : < ; ; ; = @                                                 ",
"                                                              @ # = @ O X X                                                     ",
"                                                                                                                                ",
"                                                                                                                                ",
"                                                                                                                                ",
"                                                                                                                                ",
"                                                                                                                                ",
"                                                                                                                                ",
"                                                                                                                                ",
"                                                                                                                                ",
"                                                                                                                                ",
"                                                                                                                                ",
"                                                                                                                                "
};
