/* XPM */
static char *out[] = {
/* columns rows colors chars-per-pixel */
"64 64 134 2 ",
"   c None",
".  c #1A2636",
"X  c #1E2A34",
"o  c #1F2B3C",
"O  c #212A35",
"+  c #232E3C",
"@  c #26303C",
"#  c #222E41",
"$  c #243143",
"%  c #2A3547",
"&  c #2C3749",
"*  c #2F3A4C",
"=  c #313843",
"-  c #333D50",
";  c #364355",
":  c #394554",
">  c #3C4A62",
",  c #414C5D",
"<  c #424E61",
"1  c #475060",
"2  c #495465",
"3  c #4F5867",
"4  c #43546F",
"5  c #4E596C",
"6  c #576374",
"7  c #5C667D",
"8  c #5D697B",
"9  c #A7395E",
"0  c #B3436E",
"q  c #AD497D",
"w  c #227C89",
"e  c #5C6B8B",
"r  c #667181",
"t  c #65759A",
"y  c #6C7B9F",
"u  c #6B79A4",
"i  c #677CAD",
"p  c #707FA2",
"a  c #787EA2",
"s  c #767DAF",
"d  c #7C7BB0",
"f  c #95759D",
"g  c #8F79A6",
"h  c #8575AE",
"j  c #837DAA",
"k  c #8B77B2",
"l  c #857CB2",
"z  c #897BB4",
"x  c #9074B8",
"c  c #23808F",
"v  c #218C96",
"b  c #248C9D",
"n  c #2C8998",
"m  c #32899E",
"M  c #268DA2",
"N  c #2B8CA3",
"B  c #3D86A4",
"V  c #308AA4",
"C  c #3B8AA5",
"Z  c #778293",
"A  c #74859E",
"S  c #78869A",
"D  c #7B899E",
"F  c #4D85A8",
"G  c #408AA8",
"H  c #4A89AB",
"J  c #5584AB",
"K  c #5A82AA",
"L  c #6080A9",
"P  c #7482A5",
"I  c #7985A2",
"U  c #7D8BA4",
"Y  c #7484AB",
"T  c #7A84AD",
"R  c #748AAF",
"E  c #7B8BAD",
"W  c #6C8FB5",
"Q  c #698BB8",
"!  c #7587B2",
"~  c #7C86B2",
"^  c #778BB4",
"/  c #7B8CB4",
"(  c #778CBA",
")  c #7D8DBB",
"_  c #7C90B5",
"`  c #7D90B9",
"'  c #7C8EC1",
"]  c #7B90C1",
"[  c #8D8599",
"{  c #858DA7",
"}  c #8389AD",
"|  c #8491A2",
" . c #8A98AF",
".. c #9294A5",
"X. c #8380B2",
"o. c #8D81B7",
"O. c #818DB5",
"+. c #8285B8",
"@. c #818EBC",
"#. c #8590B4",
"$. c #8A94B6",
"%. c #8C9BB4",
"&. c #8392BA",
"*. c #8894BC",
"=. c #8E9EBF",
"-. c #939FB5",
";. c #96A5BB",
":. c #9AA7B9",
">. c #9AA8BC",
",. c #808EC1",
"<. c #8897C2",
"1. c #8D9CC5",
"2. c #9DABC1",
"3. c #93A4CB",
"4. c #9AA7CC",
"5. c #9BAACE",
"6. c #9DACD3",
"7. c #A2ADC6",
"8. c #A0AACD",
"9. c #A3B0C3",
"0. c #A5B3CB",
"q. c #A9B6CF",
"w. c #A9B9CF",
"e. c #A8B6D7",
"r. c #ACBBD4",
"t. c #ABB7DC",
"y. c #ADBBDA",
"u. c #B0BFDF",
"i. c #B5C2D5",
"p. c #BDC5D0",
"a. c #B3C3DD",
"s. c #B8C5DD",
"d. c #B6C4E2",
"f. c #B8C5E1",
/* pixels */
"                                                                                                                                ",
"                                                                                                                                ",
"                                                                                                                                ",
"                                                                                                                                ",
"                                                                                                                                ",
"                                                                                                                                ",
"                                                                                                                                ",
"                                                                                                                                ",
"                                                                                                                                ",
"                                                                                                                                ",
"                                                                                                                                ",
"                                                                                                                                ",
"                                                                                                                                ",
"                                                                                                                                ",
"                                                                                                                                ",
"                                                                                                                                ",
"                                                                          } / O.O.a                                             ",
"                                                                          / O.&.O.O.                                            ",
"                                                                          $.[ { $.7.p.                                          ",
"                                                                          / ..} ~ 7 =                                           ",
"                                                                          ) _ ) ) ~ I                                           ",
"                                                                          H Q ] ' ) W                                           ",
"                                                                          b N C G C m n                                         ",
"                                                                          M b M N b b b                                         ",
"                                                                        v N M M M M M M c                                       ",
"                                                                        b M M M M M M M M                                       ",
"                                                                        J F B V N M M N M w                                     ",
"                                                                      X.o.o.l s L B V N N v                                     ",
"                                                                      3.5.6.4.O.o.h d i K K                                     ",
"                                                                  i.d.f.s.f.d.d.4.X.k k k x                                     ",
"                                                          i.s.s.f.f.f.f.f.f.d.s.d.8.d h k z                                     ",
"                                                      $ r s.s.s.f.f.f.f.f.f.f.d.d.u.O.+.z k                                     ",
"                                                @ : | $ 1 f.d.f.f.f.f.f.f.f.f.f.d.d.*.) ,.@.                                    ",
"                        .                   q.;.& : >.& & w.f.d.f.f.f.f.f.f.f.f.d.d.*.@.' !                                     ",
"                        + $ $ $ # $ $ # $ S a.;.* ; 7.2 $ Z a.a.f.f.f.f.f.f.f.s.a.y./ ) )                                       ",
"                            O $ o $ # # % 2.f.r.1 * >.9.& & >.a.f.f.f.f.f.f.f.f.d.6.) ) !                                       ",
"                                  @ + # % 2.a.y.S &  .a.D & * :.d.a.f.a.s.f.f.d.e.` ' )                                         ",
"                                      + $ 2 r.a.w.2 8 a.a.%.; * 8 0.a.a.s.f.f.t.&.) ) T                                         ",
"                                      u e > 3 ;.r.>.2 r.a.a.0.U 2 : 6 D 9.q.6.&.) ' E                                           ",
"                                ~ ) ) ) ) ^ P y E %.;.A a.d.d.d.y.q.%.{ S / ) @.) R                                             ",
"                            ( ,.,.) ) ) ) ) ) ( ^ / R / <.1.3.4.4.3.1.` ) ,.) / g                                               ",
"                        Y ] ' ] ) ` _ ) ) / ) ~ E     U / / ) @.` ) @.` ) ) } f q 0                                             ",
"                    O $ e R E ) ` ` _ ) ) / Y             1./ ` @.) ] @.` P                                                     ",
"                      + % > 4 t ) / ` ) /                           Y / A                                                       ",
"                      O + + % $ p / @./                               /                                                         ",
"                            @ # - I O.                                j                                                         ",
"                              + + O                                     9                                                       ",
"                                                                                                                                ",
"                                                                                                                                ",
"                                                                                                                                ",
"                                                                                                                                ",
"                                                                                                                                ",
"                                                                                                                                ",
"                                                                                                                                ",
"                                                                                                                                ",
"                                                                                                                                ",
"                                                                                                                                ",
"                                                                                                                                ",
"                                                                                                                                ",
"                                                                                                                                ",
"                                                                                                                                ",
"                                                                                                                                ",
"                                                                                                                                ",
"                                                                                                                                "
};
