/* XPM */
static char *out[] = {
/* columns rows colors chars-per-pixel */
"64 64 146 2 ",
"   c None",
".  c #816700",
"X  c #8C6902",
"o  c #956A00",
"O  c #9C6B01",
"+  c #A26D00",
"@  c #AA6F00",
"#  c #B26F00",
"$  c #AF7301",
"%  c #B37201",
"&  c #BC7400",
"*  c #C37500",
"=  c #CB7701",
"-  c #C47B07",
";  c #CE7B01",
":  c #D37A01",
">  c #DB7C00",
",  c #E37E00",
"<  c #EA7F00",
"1  c #D78603",
"2  c #DD8202",
"3  c #DB840D",
"4  c #E58201",
"5  c #EB8400",
"6  c #E68904",
"7  c #EC8A02",
"8  c #E2850B",
"9  c #E1890E",
"0  c #F18600",
"q  c #F38D00",
"w  c #ED9003",
"e  c #ED9409",
"r  c #F49400",
"t  c #F49B00",
"y  c #F4910A",
"u  c #F29614",
"i  c #F29618",
"p  c #ECA203",
"a  c #F3A401",
"s  c #F3AB01",
"d  c #F4A40B",
"f  c #F3AC0B",
"g  c #F3B302",
"h  c #F3BA04",
"j  c #F3B30C",
"k  c #F3BA0B",
"l  c #F4A512",
"z  c #F4AB14",
"x  c #F4AE1B",
"c  c #F3B414",
"v  c #F3BD14",
"b  c #F4B61B",
"n  c #F4BB1A",
"m  c #F5A620",
"M  c #F5A923",
"N  c #F3B424",
"B  c #F4B923",
"V  c #F5B52D",
"C  c #F5BB2B",
"Z  c #F5AC36",
"A  c #EDBD37",
"S  c #F5B631",
"D  c #F5BB34",
"F  c #F6B73A",
"G  c #F6BD3C",
"H  c #F3C30F",
"J  c #F4C315",
"K  c #F3CB12",
"L  c #F4C41C",
"P  c #F3CD1C",
"I  c #F2D310",
"U  c #F2D51B",
"Y  c #F4C423",
"T  c #F4CD23",
"R  c #F5C22D",
"E  c #F4CD2C",
"W  c #F3D321",
"Q  c #F2DA21",
"!  c #F4D22B",
"~  c #F2DC2A",
"^  c #F5C636",
"/  c #F5CC37",
"(  c #F5C43B",
")  c #F5C93C",
"_  c #F4D434",
"`  c #F3DA33",
"'  c #F4D53B",
"]  c #F3DB3B",
"[  c #F3E33E",
"{  c #F6BB46",
"}  c #F7BC4F",
"|  c #F5AF5A",
" . c #F7BC55",
".. c #F8BA67",
"X. c #F8BA71",
"o. c #F6C342",
"O. c #F6CC45",
"+. c #F6C34C",
"@. c #F5CC4C",
"#. c #F5D542",
"$. c #F3DB45",
"%. c #F5D24D",
"&. c #F4DC4C",
"*. c #F7C457",
"=. c #F6CB55",
"-. c #F7C55B",
";. c #F7CA5D",
":. c #F5D554",
">. c #F4DB54",
",. c #F6D45D",
"<. c #F4DB5C",
"1. c #F3E444",
"2. c #F2E448",
"3. c #F3E154",
"4. c #F2E45C",
"5. c #F7C764",
"6. c #F6CC62",
"7. c #F7CF6D",
"8. c #EFDD6A",
"9. c #F4D161",
"0. c #F5DA63",
"q. c #F5D26D",
"w. c #F3DA6B",
"e. c #F6CE73",
"r. c #EFDD74",
"t. c #EEDA7C",
"y. c #F5D373",
"u. c #F3DA73",
"i. c #F2D57B",
"p. c #F0DA79",
"a. c #EFE664",
"s. c #EEE16C",
"d. c #F2E361",
"f. c #F1E36A",
"g. c #EDE374",
"h. c #EAE27D",
"j. c #EFD681",
"k. c #ECDA83",
"l. c #ECD688",
"z. c #EAD98B",
"x. c #F1D481",
"c. c #E5DD93",
"v. c #E2DE9C",
"b. c #E9E183",
"n. c #E5E08F",
"m. c #E4E091",
/* pixels */
"                                                                                                                                ",
"                                                                                                                                ",
"                                                                                                                                ",
"                                                                                                                                ",
"                                                                                                                                ",
"                                                                                                                                ",
"                                                                                                                                ",
"                                                                                                                                ",
"                                                                                                                                ",
"                                                                                                                                ",
"                                                                                                                                ",
"                                                                                                                                ",
"                                                                                                                                ",
"                                                                                                                                ",
"                                                          2 i Z ..X.|                                                           ",
"                                                        N A @.6.e.i.e.5. .                                                      ",
"                                                    O.:.8.8.8.h.t.t.t.t.y.,.=.} {                                               ",
"                                                  ,.f.g.b.h.b.b.n.c.l.k.u.<.:.<.,.=.+.                                          ",
"                                                4.s.h.h.h.h.h.b.c.m.z.j.y.:.O.<.0.<.;.+.i                                       ",
"                                            :.0.f.g.g.f.4.3.a.g.m.v.c.l.p.;.{ ^ @.%.@.@.S e                                     ",
"                                          %.<.d.d.d.d.3.[ ] &.4.b.c.c.l.t.9.( ^ ^ O.+.+.D z r                                   ",
"                                          %.<.<.2.$.&.2.Q ~ ` $.g.k.l.k.z.q.^ J J Y ^ G D n t                                   ",
"                                        O.#.&.$.` ! ] [ Q ~ ~ _ &.w.r.k.z.q.) J h J R G N c f r                                 ",
"                                        / / ' _ W U ] 1.~ ~ ` ] &.0.u.t.i.e.=.R k g n C V f f t                                 ",
"                                      n E / _ ! U U _ 2.` ` ] ] $.:.w.y.w.e.6.o.v g k C S z a r                                 ",
"                                      h K E E K I U ' 2.] ! ` ` ] >.0.i.i.7.;.( n k g n { N d t 2                               ",
"                                      g H T T K I W ' >.&._ ] ' $.<.w.i.i.e.5.( n j g n G D z t 4                               ",
"                                      g J L Y Y T ! ` <.<._ ] ' %.0.q.i.x.e.*.G v g g n G F M w 8                               ",
"                                      g k J L Y T E _ <.0._ ] #.%.;.7.i.x.e.+.B g g s j B V m r 6                               ",
"                                      s h h k J L L W :.0.E ! / @.=.7.e.x.e.o.b g s a s f x l q 6 %                             ",
"                                    y s s g k j k v Y @.<.' / ^ o.=.*.6.q.6.D c g s s s s f d q 7 &                             ",
"                                    7 a g g j h h h c ( @.) R C o.+.*.6.5.+.B j s s s a s d d r 5 =                             ",
"                                    1 t s s g g g s f C ( ( b B G { } *. .D f s a s a a a a a q 4 :                             ",
"                                    & w a s s s s s a b C G j j c N S G S x s s a a a a t t t q 5 >                             ",
"                                    @ 7 t a s s s a a z N S f s f f z x z f a a t t t t t t r q 8 :                             ",
"                                      1 r t a a a a t a z S f s s a a f s a a a a t t r r t r 4 4 :                             ",
"                                      % y r t t t t r r t N s a a a a a a a a t t t r t r r q 4 ,                               ",
"                                      O 6 r t a a t r r t l d a a a a a t t t t t r t r r r 5 4 >                               ",
"                                        - q r t t r q q q r s t t r t t r t r r r r r r r r 5 , >                               ",
"                                          8 q r r r q q q q a t t t t t t r t t r r r r r q 4 4 =                               ",
"                                          ; 7 r q q r q q q t t r t t r r t r r r r r r q 5 4 , *                               ",
"                                            3 y 0 q q r r q r t r t r r r r r r r r r r q , > > %                               ",
"                                            & 6 0 q q r r q q r r r r r r r r r r r r q 4 > : * @                               ",
"                                              - e r r r r r q r r r r r r r r r r r q 0 > : : # @                               ",
"                                                1 y t r q q 0 0 r r q r q q q r r 0 0 , = = & @                                 ",
"                                                % 9 q r r 0 0 0 q r r q r r q q 0 0 , = = * @ @                                 ",
"                                                    7 0 q 0 < 4 0 r q q q q 0 q q 4 : * & # +                                   ",
"                                                      3 5 0 < 0 q q q q 0 0 5 4 , : = * # + O                                   ",
"                                                        , 5 , < < 0 0 < 0 4 : > > : * % o o                                     ",
"                                                          , < , , < , > > > , > : - O . X                                       ",
"                                                            5 > > , : : : > : = # X                                             ",
"                                                              7 , & % # # & % O                                                 ",
"                                                                                                                                ",
"                                                                                                                                ",
"                                                                                                                                ",
"                                                                                                                                ",
"                                                                                                                                ",
"                                                                                                                                ",
"                                                                                                                                ",
"                                                                                                                                ",
"                                                                                                                                ",
"                                                                                                                                ",
"                                                                                                                                ",
"                                                                                                                                "
};
