/* XPM */
static char *out[] = {
/* columns rows colors chars-per-pixel */
"64 64 137 2 ",
"   c None",
".  c #151E2A",
"X  c #1D2533",
"o  c #1D2935",
"O  c #1D273B",
"+  c #1E2A3B",
"@  c #252D36",
"#  c #222D3D",
"$  c #24313E",
"%  c #1F3043",
"&  c #222E42",
"*  c #243142",
"=  c #293445",
"-  c #263249",
";  c #2D354A",
":  c #2D3A4A",
">  c #313C4E",
",  c #2C3A52",
"<  c #323D52",
"1  c #34404E",
"2  c #364252",
"3  c #394355",
"4  c #3E4A66",
"5  c #3E4C6A",
"6  c #414D5C",
"7  c #434E6A",
"8  c #4C5665",
"9  c #46556F",
"0  c #50586A",
"q  c #485574",
"w  c #576274",
"e  c #5D677A",
"r  c #5D697B",
"t  c #626D7F",
"y  c #B13666",
"u  c #337A8D",
"i  c #576282",
"p  c #5A6886",
"a  c #5E7192",
"s  c #687684",
"d  c #6E7A8B",
"f  c #717D8E",
"g  c #67769B",
"h  c #727E92",
"j  c #727E9A",
"k  c #5C7EAC",
"l  c #6F7CA4",
"z  c #727CA3",
"x  c #717EB1",
"c  c #7D7CB3",
"v  c #827F97",
"b  c #AF6D85",
"n  c #A4608C",
"m  c #B5688E",
"M  c #8976AF",
"N  c #8A77B5",
"B  c #847EB7",
"V  c #8879B5",
"C  c #198E9D",
"Z  c #298593",
"A  c #248B9E",
"S  c #298C9E",
"D  c #1E90A1",
"F  c #228EA1",
"G  c #62809E",
"H  c #778494",
"J  c #798797",
"K  c #7B8896",
"L  c #7E899C",
"P  c #4D89A7",
"I  c #4D84A9",
"U  c #6E81AD",
"Y  c #7781AE",
"T  c #7887AE",
"R  c #798BAE",
"E  c #658DB6",
"W  c #7A86B3",
"Q  c #778CB4",
"!  c #7D8DB5",
"~  c #7485B9",
"^  c #728FBA",
"/  c #7C8EBB",
"(  c #7F92B6",
")  c #7D91BB",
"_  c #7D90C0",
"`  c #808C9D",
"'  c #9C8B9C",
"]  c #BC8099",
"[  c #808CA0",
"{  c #8280A9",
"}  c #9986A6",
"|  c #8695A6",
" . c #8C96A2",
".. c #8694AA",
"X. c #8B97AA",
"o. c #8C9BAC",
"O. c #9098AA",
"+. c #8480B5",
"@. c #818CB3",
"#. c #8785BF",
"$. c #8886BA",
"%. c #818EBA",
"&. c #8292B6",
"*. c #8F9AB4",
"=. c #8394BE",
"-. c #8E9AB9",
";. c #96A6BA",
":. c #99A6BB",
">. c #A0AAB7",
",. c #A1AEBB",
"<. c #838FC1",
"1. c #8D9DC3",
"2. c #93A3C4",
"3. c #9FADC5",
"4. c #99ABCE",
"5. c #A4A2C3",
"6. c #A2AFC4",
"7. c #A7B5C3",
"8. c #ADB8C6",
"9. c #A4B5CC",
"0. c #ABBBCD",
"q. c #A3B3D4",
"w. c #A4BCD5",
"e. c #ADBDD3",
"r. c #A7B7DA",
"t. c #A8B7DE",
"y. c #ADBBD9",
"u. c #D1BEC6",
"i. c #BFC1CF",
"p. c #AFC0DC",
"a. c #B5C2D7",
"s. c #B3C3DD",
"d. c #B8C6DF",
"f. c #AFC2E2",
"g. c #B5C5E2",
"h. c #B8C5E1",
"j. c #BACAE2",
/* pixels */
"                                                                                                                                ",
"                                                                                                                                ",
"                                                                                                                                ",
"                                                                                                                                ",
"                                                                                                                                ",
"                                                                                                                                ",
"                                                                                                                                ",
"                                                                                                                                ",
"                                                                                                                                ",
"                                                                                                                                ",
"                                                                                                                                ",
"                                                                                                                                ",
"                                                                                                                                ",
"                                                                                                                                ",
"                                                                                                                                ",
"                                                                                                                                ",
"                                                                                                                                ",
"                                                                                                                                ",
"                                                                                                                                ",
"                                                                                                                                ",
"                                                                                                                                ",
"                                                                                                                                ",
"                                                                                                                                ",
"                                        s.s.g.g.f.g.g.h.f.g.                                                                    ",
"                                      s.s.g.y.g.g.g.g.g.g.g.h.h.;                                                               ",
"                                    w.q.4.2.2.2.4.q.t.f.g.h.h.h.e 3 >.@                             X o $ #                     ",
"                                  M Q / / / / / / ! / =.q.y.s.s.L ; O.> ,.7.                + @ $ * * * #                       ",
"                              Z U N <./ _ _ / =.( ! &.( ! ..&.2.H ; 2 3 H 8 1 =   . & - # * $ * * % * *                         ",
"                          P F F k N B ! ! ( 1.4.q.4.q.w.r.e.y.*., 2 7.1 2 8.0.J = - $ # * * $ * * * $                           ",
"                    ! / / E S C I M B Q 2.y.g.g.g.h.g.g.g.s.g.a.* # 7.o.: ;.s.s.h = & & # $ # * & #                             ",
"                  ! ! ) / ^ F S I V ! q.g.s.g.d.d.d.g.d.g.d.d.d.: + | p.: d a.s.2.= - * * $ $ * >                               ",
"                  / ^ %./ ^ S F k $.4.g.g.g.g.g.g.g.g.g.g.s.g.j.< # o.a.1 8 p.s.3.: & & & * - p ! _ / , & & &                   ",
"                  / ) / / ^ A S x %.f.g.g.h.h.h.d.d.h.h.h.s.s.j.* # 9.s.4 3 a.s.X.* & & - 7 T ! / / %.z - * &                   ",
"                  / &.) ! E A A c / j.g.h.h.h.h.h.h.h.h.h.s.g.e.# > a.j.3 8 p.a.w * # 2 g / / / / %.7 # * @ X                   ",
"                    %.W     u S U @.q.p.g.s.h.h.d.h.h.d.h.s.y.[ & t s.g.3 t a.H * , a / / ) ) / / <.4 - $ *                     ",
"                                G $.) s.s.h.h.h.h.h.h.h.g.h.g.8 = 0.g.y.1 o.K = i ! / _ / ! / ( / &.9 ; # $                     ",
"                                  z / ( g.g.s.g.d.h.h.s.h.s.:.= L p.g.7.1 8 0 H   z W %./ / ) ) =.< ; # o                       ",
"                                      ~ / t.f.p.s.h.h.s.s.a.6 f g.j.p.w 1 t             Y ! z q 5 * * o                         ",
"                                            -.y.g.g.h.s.d.d K s.s.                          1 $ $ * $ $                         ",
"                                              ' } 5.9.9...X.;.                                  @ # #                           ",
"                                              b m n v O.i.                                                                      ",
"                                              u.] y                                                                             ",
"                                                                                                                                ",
"                                                                                                                                ",
"                                                                                                                                ",
"                                                                                                                                ",
"                                                                                                                                ",
"                                                                                                                                ",
"                                                                                                                                ",
"                                                                                                                                ",
"                                                                                                                                ",
"                                                                                                                                ",
"                                                                                                                                ",
"                                                                                                                                ",
"                                                                                                                                ",
"                                                                                                                                ",
"                                                                                                                                ",
"                                                                                                                                ",
"                                                                                                                                ",
"                                                                                                                                ",
"                                                                                                                                ",
"                                                                                                                                ",
"                                                                                                                                ",
"                                                                                                                                "
};
