/* XPM */
static char *out[] = {
/* columns rows colors chars-per-pixel */
"64 64 227 2 ",
"   c #003D01",
".  c #004100",
"X  c #064A04",
"o  c #065906",
"O  c #036403",
"+  c #096706",
"@  c #046D04",
"#  c #05640A",
"$  c #0A640A",
"%  c #096E0B",
"&  c #047404",
"*  c #0A7406",
"=  c #027D01",
"-  c #0D7A05",
";  c #157D05",
":  c #547610",
">  c #477D2C",
",  c #477B30",
"<  c #497E30",
"1  c #F85706",
"2  c #D47308",
"3  c #E87A07",
"4  c #FD7505",
"5  c #FA7A0A",
"6  c #038403",
"7  c #088304",
"8  c #038C01",
"9  c #0A8C04",
"0  c #198A05",
"q  c #029401",
"w  c #029B02",
"e  c #089B04",
"r  c #0B9709",
"t  c #159304",
"y  c #258705",
"u  c #358D03",
"i  c #2A9605",
"p  c #369306",
"a  c #02A401",
"s  c #0CA404",
"d  c #01AB00",
"f  c #0FAC05",
"g  c #1AA204",
"h  c #02B300",
"j  c #02BC00",
"k  c #0EB508",
"l  c #1AB704",
"z  c #2BB605",
"x  c #4C8D07",
"c  c #469808",
"v  c #5D970A",
"b  c #4A8A10",
"n  c #59881B",
"m  c #53921F",
"M  c #688C07",
"N  c #729C0A",
"B  c #6A8719",
"V  c #63891C",
"C  c #68951E",
"Z  c #77981C",
"A  c #4DAF02",
"S  c #66A408",
"D  c #71AB10",
"F  c #458525",
"G  c #498626",
"H  c #478B25",
"J  c #4A8D24",
"K  c #47832B",
"L  c #4A842D",
"P  c #478928",
"I  c #4B8B2B",
"U  c #518C2E",
"Y  c #479024",
"T  c #4E9424",
"R  c #4E9825",
"E  c #4E9329",
"W  c #4F9928",
"Q  c #519524",
"!  c #599221",
"~  c #539C26",
"^  c #599F25",
"/  c #52932B",
"(  c #529B28",
")  c #599C2B",
"_  c #4E8532",
"`  c #4E8A32",
"'  c #528C35",
"]  c #508639",
"[  c #538C3B",
"{  c #549132",
"}  c #5C9335",
"|  c #5A9936",
" . c #5D9935",
".. c #56903B",
"X. c #5B933A",
"o. c #6D9C21",
"O. c #609636",
"+. c #639A37",
"@. c #699C37",
"#. c #639639",
"$. c #6B9B38",
"%. c #769E39",
"&. c #56A324",
"*. c #59A425",
"=. c #56A824",
"-. c #5DAA26",
";. c #56A12A",
":. c #5BAB28",
">. c #5FB226",
",. c #64A724",
"<. c #61AD26",
"1. c #75A424",
"2. c #62B425",
"3. c #76A239",
"4. c #00C201",
"5. c #02CB00",
"6. c #09C904",
"7. c #01D300",
"8. c #06DC02",
"9. c #18D507",
"0. c #04E100",
"q. c #2EE500",
"w. c #3CE702",
"e. c #40D000",
"r. c #66C303",
"t. c #6FEE00",
"y. c #8B9606",
"u. c #8A9413",
"i. c #979C19",
"p. c #B3960D",
"a. c #89A80A",
"s. c #8DA41E",
"d. c #94AF12",
"f. c #B2B00A",
"g. c #B2B10E",
"h. c #A3A419",
"j. c #B4AC19",
"k. c #8EB123",
"l. c #9BB321",
"z. c #B8B428",
"x. c #CF980E",
"c. c #FD8304",
"v. c #FC8C05",
"b. c #F8870A",
"n. c #FB8C09",
"m. c #FA9404",
"M. c #FC9D03",
"N. c #F6940D",
"B. c #FA940B",
"V. c #F99D0A",
"C. c #E58F10",
"Z. c #FD8514",
"A. c #FA9312",
"S. c #F69C12",
"D. c #C6A20C",
"F. c #CCBA06",
"G. c #D0AB12",
"H. c #C8B718",
"J. c #D5BE19",
"K. c #FCA404",
"L. c #FCAB02",
"P. c #FBA30B",
"I. c #FBAB0A",
"U. c #E6B70C",
"Y. c #FDB306",
"T. c #FCBC03",
"R. c #F6B30C",
"E. c #FCB50B",
"W. c #FABC0C",
"Q. c #F7A415",
"!. c #FBA514",
"~. c #FBAC13",
"^. c #FDB513",
"/. c #FCB319",
"(. c #FABC1A",
"). c #FAA524",
"_. c #EBB229",
"`. c #F9B723",
"'. c #FBB837",
"]. c #99EC06",
"[. c #C7C510",
"{. c #D6C41C",
"}. c #E4C50A",
"|. c #FEC303",
" X c #FBCA04",
".X c #FCC40B",
"XX c #FCCB0C",
"oX c #FCD707",
"OX c #FCD20A",
"+X c #E4C71A",
"@X c #EBCC1A",
"#X c #FAC513",
"$X c #FCCC12",
"%X c #FDC51A",
"&X c #FBCC1A",
"*X c #FDD116",
"=X c #F5D219",
"-X c #FAD31B",
";X c #FCDB1C",
":X c #FEE407",
">X c #FDE717",
",X c #D5C921",
"<X c #D4D12A",
"1X c #FECB24",
"2X c #FAC528",
"3X c #FCCC2A",
"4X c #ECD221",
"5X c #FBD927",
"6X c #FDD329",
"7X c #FAC835",
"8X c #FBD435",
"9X c #FBDA33",
"0X c #FCD538",
"qX c #FEDC3C",
"wX c #FBE624",
"eX c #FFE93D",
"rX c #FFF63D",
"tX c #FACD46",
"yX c #FBD446",
"uX c #FDDB44",
"iX c #FCDC49",
"pX c #FDD158",
"aX c #FAE447",
"sX c #F9E548",
"dX c #F8E55B",
"fX c #F8EC72",
"gX c #FDF58A",
/* pixels */
"Q Q ~ ( ) ~ T Q ~ Q ( *.T Q Q Q T *.( T ~ T G T ( Q Q ~ T Q Q Q J Q Q Q ^ ~ T ) *.Q Q *.Q Q *.T Q *.) T T R ~ *.R R ~ ~ Q R R Y ",
"Q Q &.~ Q &.~ Q ;.Q ~ *.~ ~ ( ~ ~ Q ( ~ T ^ ~ T *.^ Q T R Q &.~ ~ Q ~ &.( ;.( Q *.~ / *.^ ( ( ;.( ;.*.&.^ &.&.~ &.T *.-.! &.=.~ ",
"~ *.~ ~ *.~ Q *.R R *.&.~ ~ ~ ~ T ~ W ~ *.^ ~ ^ ! Q *.T P / / E ~ *.~ ( *.( R *.*.^ *.*.~ *.( Q *.*.*.*.&.&.;.&.Y R -.-.&.-.&.T ",
"J ~ Q Q &.R Y Q ~ G ~ &.J ~ ~ J W ~ Y T ~ *.J ^ R H T R K ' ] [ L ^ T J ( Q E ;.*.Q ~ *.E Q ( T ~ T *.H &.Y T Q J R &.m ;.=.m Y ",
"~ Q ^ ! H *.~ J &.R Q ^ Q G Q *.Q T ~ ~ J *.~ J =.&.J &./ s [ [ T 6X=XfXgX;.~ T <.~ J *.*.T ( T &.~ T > F I -.^ &.T ^ -.*.m *.*.",
"( *.*.~ &.&.~ &.~ Q *./ O.} R ! ;.&.~ R ,.*.~ ~ &.R ;.~ J e #.' 9XOXXXsXqXuXT *.*.&.^ *.T ~ &.Q ~ *.T ` ' ` R ;.&.~ -.&.-.=.*.~ ",
"Q ^ T Q ~ ~ H T ~ T ~  .@.} T Q Q ~ Q Q ~ ~ Q ( *.T R &.e '  .dX&X5XXXaX5X;XuX*.*.Q Q *.T T &.Q R &.T } ' ' E R ~ Q &.^ &.:.*.Q ",
"Q J *.~ G ~ T G ^ ~ J &.| ..Q Q Y J ^ ~ m &.~ J &.T J ~ a T E sXXXXX-X=X.XwXyXF -.*.Y R R G Q *.&.&.Q I ~ / R ;.&.*.T :.*.~ ~ R ",
"&.R &.~ &.m T ~ ~ ~ &.&.^ I Q Q ~ ~ ~ ~ * = & & ;.T &.w e ~ 8XXX>X X>X>XoXoX=X=.&.~ &.T ~ ~ ~ &.-.;.-.-.:.-.;.( ;.&.&.R =.&.;.R ",
"T T T Y ~ R H ~ T T Q &.Q E ~ T J ~ q w q e = @ 8 Y ~ a t rXXXXX|.oXwX-XW.eX&XwXQ T ~ R T T T T R &.Q R ;.;.;.:.R ~ &.~ R R &.T ",
"T T ~ T Y ~ ! H &.R Y &.T Q ~ Q T T ~ T Q &.Q J w 6 8 s d.>X X>X XoXrXwXXX|. XwX*.T T ~ T Q R R T ~ ~ ~ ~ *.*.) &.R R ! ~ ~ R m ",
"R *.m ~ &.&.~ &.T R &.*.~ ~ *.*.~ ~ R ;.*.~ ~ <.q 6 8 g }..XOXOX|.;X;X XoXoXOX:X! ~ *.*.*.&.~ J ~ -.*.-.-.;.*.*.~ R ;.*.~ =.&.R ",
"Q ^ m R &.T T ^ T T ~ *.~ ^ ~ ~ T ~ T Q *.^ ~ *.q 8 * S oXY.OX|.L..X$X|.|..XXX5X;.& ( ( W W ~ ;.Q &.~ Q -.( Q &.~ Q ( *.*.~ &.T ",
"Q ~ ~ Q ~ ~ Q Q ~ T Q *.Q Q ~ T T T T T ( &.T m e 8 0 [.T.T.6XL.oXeX#XL.5XqX|.OX` @ E P P ~ W T ~ ;.^ ~ *.~ ( Q G I Q <.~ ~ ^ T ",
"R &.*.~ ! &.~ Q ;.^ &.-.Q Q &.~ ~ ~ ~ ^ ~ *.~ Q w 8 c wXXXL.T.T.|.W.L.K.W.T.|.@Xc @ [ ] ` % ~ ;.=.:.-.&.&.*.Q K ' L ~ *.&.&.&.! ",
"Y ^ m ^ &.^ T ~ &.~ ~ &.~ ~ &.! H ~ ~ J ^ O @ 6 w t a.^.L.XX|.L.;XqXT.K.*XXXT.@Xv # [ [ [ Q *.;.T >.! *.:.*.( ' %.' &.~ *.:.=.Y ",
"T ~ T T Y R Q I ' ' I ^ J / ~ Y J Q ~ T 8 & @ & q u U.*XK.T.L.m.E.W.K.K.R.L.|.4Xb ` { W o T ;.~ >.*.;.&.R ~ ~ { { ' T &.T ~ T Y ",
"T T &.~ J ~ Q } 3.+./ ~ &.T R ~ R Q ;.Q 6 6 @ & 6 S 5XP.&XuXL.Y.qX-XL.K.XXT.|.}.M E P T # R R ` R ~ ;.:.T &.T W Q ~ ~ ;.*.;.R ~ ",
"T R R T *.( Q ' @.} { T T Q &.T T ( ~ Q = 6 @ & ; F.I.L.V.W.m.$X2XI.K./.iXI.XX}.v E I % $ W W ` ` E &.T =.~ T T ( ~ ;.;.~ ~ ~ T ",
"Q ^ Q J ^ ~ ~ { X.X./ R T Q ~ T T *.E + & & O & c +XE.K.XX XM.XX6XT.K..X&XE.E.}.x / ( # % ;.^ J [ T R Y ;.Q T =.( ~ ;.~ T Y ~ Y ",
"T Q ^ &.J *.T Q J ~ ^ ;.^ Q ~ ^ ~ T ( # @ O o & N =XT.L.#XK.K.XX.XK.K.3XXXK.1XF.u ^ = & -.&.~ H _ T &.&.H =.m T &.~ T &.Q T ~ m ",
"Q *.( *.<.*.( *./ ( ;.&.^ ^ *.( T &.~ # @ *.~ ; z.tXM.T.7XP.L.*X6XT.P.XX|.Y.R.F.i 6 * % ~ &.R H _ T &.&.-.&.&.&.T R =.&.m =.&.R ",
"T ~ ~ Q *.Q Y ( T Y ~ *.W / ~ T T &.Q & % ^ / y x.A.P.!./.c.T.(.E.M.Y.0XI.I.7Xa.t 8 * * ~ T T H _ T &.Q =.~ T ~ T T R ! T ~ &.Y ",
"Q Q ~ ^ J *.~ J *.T Q -.Q Q ^ *.) Q ^ & $ *.~ x _.).M.3XpXc.T.$XL.c..X1X.X~.W.a.e 8 & ' ` Q =.G K T &.^ m -.~ Q =.R T *.~ ~ &.m ",
"~ *.! &.&.&.~ &.~ ^ ;.-.*.~ *.Q ;.&.Q & -.*.* M S.N.I.7XB.n.0X3Xv.v.1X8XY.3XtXS w q * T &.*.~ J _ Q -.&.&.*.&.&.T R &.*.-.*.-.~ ",
"T ^ T R ;.&.T ~ &.T ^ *.T / ( / J I o T ~ ! - g.0XW.R.6XXXV.*X&XY.M.!.|.Y.N.R.S e q _ U W ( *.T ` *.*.~ &.&.J ;.m Y ~ &.~ ^ *.~ ",
"T Q *.~ E ~ Q E &.~ E *.T ' ] K L ` X / J &.; f.P.n.#XyXE.Y.3X0Xm.T.iX1XM.8X+Xc q r ' L _ / E L _ I ;.R P T Y J =.m Y *.Q ( ~ ~ ",
"~ ~ *.;.*.&.( ~ ^ ~ R ;.Q L ] _ ' _ J I K ^ x =X2XV.E.$XV.v..X$XY.M.V.Y.N.R.D.y = 6 h s < K _ ' ' U I Y R Q T T &.T ~ &.*.~ *.) ",
"~ &.Q E ~ R J R Y T ~ T Y L ] ' [ _ < L ] @ v }.V.P.6X'.n.OXuX/.v.*XaX#XXX0Xf.; & 8 6   ' _ E / U ' ` H ~ R Y *.R Q Q T T R ( ( ",
"~ Q ~ Q T ~ Q Q ~ T T ~ I ' ' ' ' _ I L ` * d.*XL.B.~.$Xm.W.P.E.m.T.R.m.!.(.N - = 6 . . ) E W Y _ U L G T ~ Q Q &.T Q &.Q T Q T ",
"&.~ ^ ~ ^ *.Q ~ T T ( *.~ ' ' ' ` L J I I - g.!.n..X6XY.P.5XaXK.B.aXiXR.6X6Xv = 8 o . X o ( E T L Q ( ~ Q *.Q ~ T R Q *.~ ~ &.~ ",
"T *.~ ~ ^ ~ Q &.R R I I I L X.X.[ ' Q R + - f.I.v.I..Xv.m.!.W.c.V.).R.P.7XC.y 8 / / . o O R ! W ^ T &.~ &.~ Q &.W Q *.~ Q ^ ~ ~ ",
"J ~ &.Q *.R T Q R H ' } X.} #.} ..I T H # 0 <X#XL.=XiXW.E.yX^.m.P.$X|.N.`.U.y w H Q X O O 8 E F H T ~ T ^ R E ( ` _ ] _ I E ~ G ",
"Q ^ ^ ~ ! *.~ J ~ G '  .$.+.} ' } L ( ` & i }.E.N.N.W.B.XXQ.c.5 &X'.N.`.yXd.t ` / T T = 6 8 ~ T Q Q ~ ~ Q *.~ Q U X.#...' ! *.~ ",
"T *.~ Q R ~ T ;.~ E ' X.} $.} [ _ ` { & & S 4XP..XyX%Xn.$XyXM.v..X&XI.!.#XS r ` , L I ( 6 6 R T W R ~ ~ &.*.( ;.` ' X...` Q *.~ ",
"T ^ T T R ~ J R *.P I } ' } +.' > _ } 6 = i.I.V.W./.5 I.$XW.4 m.6X2XN.;X7Xp r [ _ ` ` ` R % Y H T Q T J W ~ T ( ` [ [ ..' T ~ J ",
"Y T &.! K &.R G -.~ J ^ *.} ' X.[ ..} 6 = H.E.c.W.7Xn.n.XXL.c.v.&XW.P.!.U.i ] , ` } } { ' + X G Y Q ;.T H ;.R F J E { U W Q R Q ",
"Q ( ~ ~ -.~ ~ ~ ;.Q ~ ;.~ I I Q { ` I = 9 D.B.V.(./.N.|.7XB.4 ^.yXI.S.iX[.g [ ] ] ` L ~ ~ ;.o Q Q ~ &.T &.( R &.( Q ~ &.~ ~ ~ R ",
"T ~ R Y &.Q T ~ R T T R Y J Q T W Q 8 6 9 x.m.m.%X!.v.E.(.m.c.~.1XT.S.^.D l ] [ ' ] _ I / Q ~ *.( ( ( W ;.~ Y ( R T ~ &.Y T ~ T ",
"Y J ~ ~ H &.Q H &.T H ~ ~ T R ^ ~ Y 8 8 q j.c.I.`.5 n.%X7X4 5 8XtXn.*X_.i , ] [ [ [ } ' _ ` I L _ L W ;.J ;.~ G ~ R P &.&.~ R ~ ",
"=.&.&.=.<.*.=.-.R T &.&.T &.*.*.~ *.8 q e z.Z.I.'.Z.n.#X/.c.c.%X/.N.`.p.g [ ' ' [ ] ' ' _ L ' I ' ` H T *.&.~ &.R R *.;.*.*.-.^ ",
"Q ~ *.~ &.^ T &.R T Q &.! ( *.T ( ~ q a a y.b.2X~.4 T.0X/.c.R.pX7XS.sXc s [ ' _ _ ] ' ' ' _ ' ' ` [ ' F *.T T ~ Y T ~ :.*.&.&.R ",
"=.m ~ I H T ~ R &.Y T *.~ T *.T T Q q d h A 3 .XQ.5 C.D.R.v.B.Q.T.P.H.t f [ ' I / Q G K I I T T I ` [ P J *.T T ;.R T 2.;.m T ~ ",
"&.*.~ } ' I R ~ &.T *.<.m &.&.~ ~ ~ w h j k F.2XC.M t 7 : 1 XXuXM.Q.D e $.} U *.-.Q ~ T H W T H H I P H ~ m T &.=.;.-.2.>.R *.&.",
"T *.Q [ ' } T ;.&.R ~ *.Q *.-.~ R a w j 4.5.e.r.z a 8 8 0 2 E.V.5 G.0 a } X.E *.-.&.&.&.T Y T Y H T R T &.&.R &.*.T &.=.&.*.-.&.",
"~ ~ Q E } / ;.R ;.T ~ *.T T ;.Q T q w j 6.7.7.5.j d w q w a.9X2Xb.c q h } ..I ~ -.~ T -.;.R ~ R ~ ;.~ Q Y ! T H ~ T ~ :.~ ~ R T ",
"&.T =.&.*.&.;.&.*.~ R ;.^ ~ ;.~ ~ q w j 4.7.7.5.j d w a a f y.p.c 9 a j X.[ ` ( -.~ &.&.~ R &.~ R &.&.~ T R T T &.~ ~ :.&.R ! =.",
"R R T Q &.;.;.&.~ Q &.~ T R ;.R R 8 a h 4.7.7.5.4.h a a d h j k a 8 a T / [ P Q -.~ ~ -.&.T &.&.~ ~ &.T &.T T ~ T Q ~ ;.&.R ;.R ",
"R R m H Q ~ T ~ ~ T *.;.T E T T R 8 a h 4.5.7.5.4.h d d h j j h w q h Q ;.T &.;.-.~ R &.R ~ ~ T ~ ~ T H W R T ~ ~ T T &.T T ~ T ",
"T R m R Y ^ ~ T &.Q T / E P Y Q ! 6 a h 4.5.7.5.j h d h j j 4.h w d 6.~ T ~ T *.&.T T &.P L { { ` ` ` ( ! &.~ T R T Q *.~ ~ *.~ ",
"R &.&.m *.~ ~ &.R T ~ P _ _ G Q R 6 w h j 4.5.4.4.h d j j j 4.d d j ~ Q &.R R Y &.T Y ;.` X.@.O.X.} ..I :.=.~ *.R T *.-.~ *.=.~ ",
"Y T &.T ^ R J Q T H W ` < [ I T Y R q a h j 4.j h d h 4.4.j j d d 6.Y G ~ Y R R &.R R R T X.X.$.@.} X.' ~ Q / ~ R Y Q -.Q ~ ~ J ",
"~ Q -.m Y =.~ J &.R T ' X.I Q *.~ T 9 w w a d d d h h h h j h d 5.9.*.! G Q T R R T ~ ;.I X.X. .@.X.../ ~ *.&.Y *.R T -.^ Q ^ *.",
"R *.&.m *.&.R ~ ;.Q ^ &.&.&.*.~ T &.~ 9 w w a h 4.4.j h d h h 5.8.*.~ E *.( T J R T T &.L X.#.@.3.3.X.E -.*.R &.=.~ :.-.*.^ *.~ ",
"J m m ~ &.~ T ~ &.H ~ *.Q ~ *.Q J ~ T T &.w h 6.8.7.4.d d h 5.0.~ ;.R Y ;.W ~ ~ ~ ( ~ -./ |  .} } +. .U *.*.Q k.l.l.l.l.l.1.,.T ",
"T T &.&.J &.~ K *.*.J *.&.T Q T Y J &.~ G w h 6.0.8.j a e j 0.-.&.;.m J ( *.~ ;.;.*.*.-.I X.} } ..X.X.J &.( o.H.H.+X-X+X{.h.V ~ ",
"&.~ &.;.&.;.;.*.&.~ ~ ~ m R ~ R ~ *.*.R ^ s 4.7.0.7.j r &.T *.&.R &.-.Q ~ *.J W R Y R T Q { { / L { { ~ ;.*.Q B V Z z.: j.{.C T ",
"~ R R / ( ( ;.:.~ T ~ R T T R R T ~ T T ~ T 8.q.w.9.k T R R ;.Q ` E ( L ' / E J =.m T ~ R R ~ *.&.( *.T ;.! m s.,XZ n s.wX,Xo.T ",
"=.T T ' { { ~ *.&.T Y ~ T T ~ ~ T T R T Y ~ ~ w.t.].m &.R R ~ J X. .} } O.} ' ~ =.&.&.=.~ R =.R ~ &.&.~ Y ~ Z {.=Xi.F H.;X{.o.T ",
"=.m Q [ [ ` ~ -.T T ^ &.~ &.&.m ~ &.R R *.*.~ *.&.Q m R R T &.J X. .O.%.+.X.L *.&.m =.=.&.&.&.H T &.! ~ *.&.s.=X+XV B Z *XJ.o.( ",
"R &.&.{ ] ' Q *.T Q ~ *.m ^ ~ R T ~ T T *.&.&.! ( R R R T m 2.&...| $. . .[ E *.>.=.m R R R R R R &.&.~ &.R 1.@Xu.i.@XZ h.J.C / ",
"~ R Q J Q Q ;.Q ~ J Q *.T Q ~ R T T T T T &.Q Q ~ R R &.Y R &.&.' ;.( Q ~ ~ ~ T >.T =.&.R m &.T T &.*.T ! R J u.h.H.H.h.B i.C J ",
"&.*.&.&.R =.=.&.&.R ~ =.m R &.~ ! R R Q ~ *.^ T *.~ ~ =.~ ~ -.-.~ &.&.~ T ;.T *.>.m m =.&.=.&.R T &.*.m R &.! T n n n C n n m ~ ",
"T &.m =.&.&.&.R &.T ~ ~ ~ ~ &.! T ~ R J *.~ ~ ^ &.T R =.T T =.~ *.-.&.T ~ &.Y ~ =.&.&.>.R H =.R Y =.=.m ~ ~ R T &.Q ~ m T ! ^ T "
};
